Akatab-Regular.ufo
<glyph name="exclam" format="2">
  <advance width="601"/>
  <unicode hex="0021"/>
  <outline>
    <contour>
      <point x="244" y="413" type="line"/>
      <point x="356" y="413" type="line"/>
      <point x="377" y="1224" type="line"/>
      <point x="382" y="1414" type="line"/>
      <point x="219" y="1414" type="line"/>
      <point x="223" y="1224" type="line"/>
    </contour>
    <contour>
      <point x="299" y="-25" type="curve" smooth="yes"/>
      <point x="365" y="-25"/>
      <point x="420" y="27"/>
      <point x="420" y="101" type="curve" smooth="yes"/>
      <point x="420" y="177"/>
      <point x="365" y="230"/>
      <point x="299" y="230" type="curve" smooth="yes"/>
      <point x="234" y="230"/>
      <point x="181" y="177"/>
      <point x="181" y="101" type="curve" smooth="yes"/>
      <point x="181" y="27"/>
      <point x="234" y="-25"/>
    </contour>
  </outline>
</glyph>
<glyph name="QuotMrk" format="2">
  <advance width="1025"/>
  <unicode hex="0022"/>
  <outline>
    <contour>
      <point x="278" y="1045" type="curve"/>
      <point x="397" y="1045" type="line"/>
      <point x="402" y="1180"/>
      <point x="408" y="1325"/>
      <point x="436" y="1560" type="curve"/>
      <point x="240" y="1560" type="line"/>
      <point x="270" y="1325"/>
      <point x="274" y="1180"/>
    </contour>
    <contour>
      <point x="603" y="1045" type="curve"/>
      <point x="722" y="1045" type="line"/>
      <point x="727" y="1180"/>
      <point x="732" y="1325"/>
      <point x="760" y="1560" type="curve"/>
      <point x="564" y="1560" type="line"/>
      <point x="594" y="1325"/>
      <point x="599" y="1180"/>
    </contour>
  </outline>
</glyph>
<glyph name="DollarSgn" format="2">
  <advance width="1200"/>
  <unicode hex="0024"/>
  <outline>
    <contour>
      <point x="659" y="1516" type="line"/>
      <point x="535" y="1516" type="line"/>
      <point x="535" y="-220" type="line"/>
      <point x="659" y="-220" type="line"/>
    </contour>
    <contour>
      <point x="912" y="1065" type="curve"/>
      <point x="948" y="1236" type="line"/>
      <point x="833" y="1291"/>
      <point x="736" y="1315"/>
      <point x="601" y="1315" type="curve" smooth="yes"/>
      <point x="309" y="1315"/>
      <point x="188" y="1109"/>
      <point x="188" y="960" type="curve" smooth="yes"/>
      <point x="188" y="810"/>
      <point x="248" y="695"/>
      <point x="522" y="613" type="curve" smooth="yes"/>
      <point x="796" y="531"/>
      <point x="838" y="459"/>
      <point x="838" y="368" type="curve" smooth="yes"/>
      <point x="838" y="226"/>
      <point x="707" y="143"/>
      <point x="566" y="143" type="curve" smooth="yes"/>
      <point x="436" y="143"/>
      <point x="309" y="187"/>
      <point x="193" y="288" type="curve"/>
      <point x="153" y="108" type="line"/>
      <point x="243" y="39"/>
      <point x="396" y="-10"/>
      <point x="566" y="-10" type="curve" smooth="yes"/>
      <point x="806" y="-10"/>
      <point x="1005" y="149"/>
      <point x="1005" y="385" type="curve" smooth="yes"/>
      <point x="1005" y="575"/>
      <point x="877" y="682"/>
      <point x="645" y="749" type="curve" smooth="yes"/>
      <point x="394" y="823"/>
      <point x="355" y="876"/>
      <point x="355" y="973" type="curve" smooth="yes"/>
      <point x="355" y="1070"/>
      <point x="452" y="1161"/>
      <point x="592" y="1161" type="curve" smooth="yes"/>
      <point x="704" y="1161"/>
      <point x="787" y="1135"/>
    </contour>
  </outline>
</glyph>
<glyph name="dollar" format="2">
  <advance width="1042"/>
  <unicode hex="0024"/>
  <outline>
    <contour>
      <point x="517" y="-25" type="curve" smooth="yes"/>
      <point x="755" y="-25"/>
      <point x="916" y="126"/>
      <point x="916" y="358" type="curve" smooth="yes"/>
      <point x="916" y="759"/>
      <point x="322" y="749"/>
      <point x="322" y="1028" type="curve" smooth="yes"/>
      <point x="322" y="1150"/>
      <point x="409" y="1237"/>
      <point x="538" y="1237" type="curve" smooth="yes"/>
      <point x="654" y="1237"/>
      <point x="734" y="1194"/>
      <point x="800" y="1120" type="curve"/>
      <point x="888" y="1207" type="line"/>
      <point x="808" y="1304"/>
      <point x="700" y="1372"/>
      <point x="538" y="1372" type="curve" smooth="yes"/>
      <point x="318" y="1372"/>
      <point x="164" y="1228"/>
      <point x="164" y="1019" type="curve" smooth="yes"/>
      <point x="164" y="641"/>
      <point x="757" y="650"/>
      <point x="757" y="346" type="curve" smooth="yes"/>
      <point x="757" y="204"/>
      <point x="675" y="109"/>
      <point x="517" y="109" type="curve" smooth="yes"/>
      <point x="386" y="109"/>
      <point x="276" y="162"/>
      <point x="189" y="244" type="curve"/>
      <point x="111" y="145" type="line"/>
      <point x="204" y="40"/>
      <point x="354" y="-25"/>
    </contour>
    <contour>
      <point x="470" y="-232" type="line"/>
      <point x="591" y="-232" type="line"/>
      <point x="591" y="29" type="line"/>
      <point x="470" y="29" type="line"/>
    </contour>
    <contour>
      <point x="470" y="1310" type="line"/>
      <point x="591" y="1310" type="line"/>
      <point x="591" y="1579" type="line"/>
      <point x="470" y="1579" type="line"/>
    </contour>
  </outline>
</glyph>
<glyph name="parenright" format="2">
  <advance width="631"/>
  <unicode hex="0029"/>
  <outline>
    <contour>
      <point x="179" y="-371" type="line"/>
      <point x="354" y="-88"/>
      <point x="458" y="215"/>
      <point x="458" y="586" type="curve" smooth="yes"/>
      <point x="458" y="958"/>
      <point x="354" y="1262"/>
      <point x="179" y="1545" type="curve"/>
      <point x="78" y="1496" type="line"/>
      <point x="240" y="1228"/>
      <point x="322" y="909"/>
      <point x="322" y="586" type="curve" smooth="yes"/>
      <point x="322" y="263"/>
      <point x="240" y="-54"/>
      <point x="78" y="-322" type="curve"/>
    </contour>
  </outline>
</glyph>
<glyph name="comma" format="2">
  <advance width="517"/>
  <unicode hex="002C"/>
  <outline>
    <contour>
      <point x="141" y="-354" type="line"/>
      <point x="303" y="-282"/>
      <point x="407" y="-143"/>
      <point x="407" y="33" type="curve" smooth="yes"/>
      <point x="407" y="154"/>
      <point x="354" y="230"/>
      <point x="265" y="230" type="curve" smooth="yes"/>
      <point x="200" y="230"/>
      <point x="143" y="185"/>
      <point x="143" y="113" type="curve" smooth="yes"/>
      <point x="143" y="37"/>
      <point x="200" y="-4"/>
      <point x="263" y="-4" type="curve" smooth="yes"/>
      <point x="295" y="-4"/>
      <point x="327" y="4"/>
      <point x="350" y="33" type="curve"/>
      <point x="265" y="156" type="line"/>
      <point x="287" y="4" type="line"/>
      <point x="287" y="-111"/>
      <point x="215" y="-206"/>
      <point x="99" y="-257" type="curve"/>
    </contour>
  </outline>
</glyph>
<glyph name="slash" format="2">
  <advance width="740"/>
  <unicode hex="002F"/>
  <outline>
    <contour>
      <point x="21" y="-337" type="line"/>
      <point x="139" y="-337" type="line"/>
      <point x="715" y="1498" type="line"/>
      <point x="597" y="1498" type="line"/>
    </contour>
  </outline>
</glyph>
<glyph name="DigitOne" format="2">
  <advance width="1200"/>
  <unicode hex="0031"/>
  <anchor x="600" y="-100" name="L"/>
  <anchor x="600" y="1530" name="U"/>
  <outline>
    <contour>
      <point x="520" y="1202" type="line"/>
      <point x="520" y="162" type="line"/>
      <point x="220" y="162" type="line"/>
      <point x="220" y="0" type="line"/>
      <point x="1002" y="0" type="line"/>
      <point x="1002" y="162" type="line"/>
      <point x="701" y="162" type="line"/>
      <point x="701" y="1412" type="line"/>
      <point x="539" y="1412" type="line"/>
      <point x="210" y="1210" type="line"/>
      <point x="234" y="1038" type="line"/>
    </contour>
  </outline>
</glyph>
<glyph name="DigitTwo" format="2">
  <advance width="1200"/>
  <unicode hex="0032"/>
  <anchor x="600" y="-100" name="L"/>
  <anchor x="560" y="1530" name="U"/>
  <outline>
    <contour>
      <point x="1036" y="0" type="line"/>
      <point x="1036" y="172" type="line"/>
      <point x="960" y="158"/>
      <point x="809" y="157"/>
      <point x="621" y="157" type="curve" smooth="yes"/>
      <point x="378" y="157" type="line"/>
      <point x="587" y="336"/>
      <point x="969" y="695"/>
      <point x="969" y="1016" type="curve" smooth="yes"/>
      <point x="969" y="1262"/>
      <point x="769" y="1417"/>
      <point x="540" y="1417" type="curve" smooth="yes"/>
      <point x="379" y="1417"/>
      <point x="202" y="1338"/>
      <point x="125" y="1231" type="curve"/>
      <point x="168" y="1068" type="line"/>
      <point x="253" y="1172"/>
      <point x="389" y="1245"/>
      <point x="506" y="1245" type="curve" smooth="yes"/>
      <point x="643" y="1245"/>
      <point x="778" y="1176"/>
      <point x="778" y="997" type="curve" smooth="yes"/>
      <point x="778" y="733"/>
      <point x="379" y="348"/>
      <point x="120" y="162" type="curve"/>
      <point x="120" y="0" type="line"/>
    </contour>
  </outline>
</glyph>
<glyph name="two" format="2">
  <advance width="1042"/>
  <unicode hex="0032"/>
  <outline>
    <contour>
      <point x="84" y="0" type="line"/>
      <point x="947" y="0" type="line"/>
      <point x="947" y="139" type="line"/>
      <point x="534" y="139" type="line" smooth="yes"/>
      <point x="464" y="139"/>
      <point x="379" y="135"/>
      <point x="308" y="128" type="curve"/>
      <point x="643" y="472"/>
      <point x="882" y="717"/>
      <point x="882" y="979" type="curve" smooth="yes"/>
      <point x="882" y="1215"/>
      <point x="728" y="1372"/>
      <point x="481" y="1372" type="curve" smooth="yes"/>
      <point x="308" y="1372"/>
      <point x="187" y="1289"/>
      <point x="80" y="1165" type="curve"/>
      <point x="170" y="1076" type="line"/>
      <point x="249" y="1167"/>
      <point x="348" y="1239"/>
      <point x="460" y="1239" type="curve" smooth="yes"/>
      <point x="637" y="1239"/>
      <point x="721" y="1127"/>
      <point x="721" y="971" type="curve" smooth="yes"/>
      <point x="721" y="751"/>
      <point x="493" y="502"/>
      <point x="84" y="99" type="curve"/>
    </contour>
  </outline>
</glyph>
<glyph name="Semicolon" format="2">
  <advance width="650"/>
  <unicode hex="003B"/>
  <outline>
    <contour>
      <point x="185" y="812"/>
      <point x="185" y="741" type="curve" smooth="yes"/>
      <point x="185" y="671"/>
      <point x="243" y="612"/>
      <point x="314" y="612" type="curve" smooth="yes"/>
      <point x="384" y="612"/>
      <point x="443" y="671"/>
      <point x="443" y="741" type="curve" smooth="yes"/>
      <point x="443" y="812"/>
      <point x="384" y="870"/>
      <point x="314" y="870" type="curve" smooth="yes"/>
      <point x="243" y="870"/>
    </contour>
    <contour>
      <point x="185" y="131" type="curve"/>
      <point x="185" y="35" type="line"/>
      <point x="319" y="35" type="line"/>
      <point x="319" y="-61"/>
      <point x="245" y="-177"/>
      <point x="190" y="-232" type="curve"/>
      <point x="285" y="-270" type="line"/>
      <point x="397" y="-165"/>
      <point x="452" y="-48"/>
      <point x="452" y="69" type="curve" smooth="yes"/>
      <point x="452" y="165"/>
      <point x="390" y="226"/>
      <point x="314" y="226" type="curve" smooth="yes"/>
      <point x="259" y="226"/>
      <point x="197" y="191"/>
    </contour>
  </outline>
</glyph>
<glyph name="EqSgn" format="2">
  <advance width="1200"/>
  <unicode hex="003D"/>
  <outline>
    <contour>
      <point x="120" y="623" type="line"/>
      <point x="120" y="480" type="line"/>
      <point x="1036" y="480" type="line"/>
      <point x="1036" y="623" type="line"/>
    </contour>
    <contour>
      <point x="120" y="957" type="line"/>
      <point x="120" y="814" type="line"/>
      <point x="1036" y="814" type="line"/>
      <point x="1036" y="957" type="line"/>
    </contour>
  </outline>
</glyph>
<glyph name="AtSgn" format="2">
  <advance width="1702"/>
  <unicode hex="0040"/>
  <outline>
    <contour>
      <point x="1536" y="340"/>
      <point x="1536" y="657" type="curve" smooth="yes"/>
      <point x="1536" y="1064"/>
      <point x="1251" y="1330"/>
      <point x="844" y="1330" type="curve" smooth="yes"/>
      <point x="448" y="1330"/>
      <point x="95" y="1063"/>
      <point x="95" y="538" type="curve" smooth="yes"/>
      <point x="95" y="35"/>
      <point x="447" y="-235"/>
      <point x="820" y="-235" type="curve" smooth="yes"/>
      <point x="949" y="-235"/>
      <point x="1101" y="-190"/>
      <point x="1197" y="-123" type="curve"/>
      <point x="1097" y="-20" type="line"/>
      <point x="1014" y="-78"/>
      <point x="923" y="-101"/>
      <point x="834" y="-101" type="curve" smooth="yes"/>
      <point x="503" y="-101"/>
      <point x="233" y="155"/>
      <point x="233" y="566" type="curve" smooth="yes"/>
      <point x="233" y="946"/>
      <point x="521" y="1201"/>
      <point x="834" y="1201" type="curve" smooth="yes"/>
      <point x="1209" y="1201"/>
      <point x="1402" y="945"/>
      <point x="1402" y="628" type="curve" smooth="yes"/>
      <point x="1402" y="401"/>
      <point x="1290" y="290"/>
      <point x="1225" y="290" type="curve" smooth="yes"/>
      <point x="1169" y="290"/>
      <point x="1125" y="380"/>
      <point x="1125" y="590" type="curve" smooth="yes"/>
      <point x="1125" y="924" type="line"/>
      <point x="1042" y="958"/>
      <point x="921" y="981"/>
      <point x="844" y="981" type="curve" smooth="yes"/>
      <point x="687" y="981"/>
      <point x="589" y="916"/>
      <point x="510" y="786" type="curve" smooth="yes"/>
      <point x="465" y="710"/>
      <point x="438" y="612"/>
      <point x="438" y="495" type="curve" smooth="yes"/>
      <point x="438" y="270"/>
      <point x="578" y="164"/>
      <point x="706" y="164" type="curve" smooth="yes"/>
      <point x="817" y="164"/>
      <point x="947" y="338"/>
      <point x="997" y="457" type="curve"/>
      <point x="1006" y="296"/>
      <point x="1080" y="161"/>
      <point x="1197" y="161" type="curve" smooth="yes"/>
      <point x="1364" y="161"/>
    </contour>
    <contour>
      <point x="750" y="853"/>
      <point x="815" y="853" type="curve" smooth="yes"/>
      <point x="886" y="853"/>
      <point x="951" y="834"/>
      <point x="982" y="819" type="curve"/>
      <point x="982" y="676" type="line"/>
      <point x="952" y="544"/>
      <point x="804" y="294"/>
      <point x="718" y="294" type="curve" smooth="yes"/>
      <point x="649" y="294"/>
      <point x="582" y="369"/>
      <point x="582" y="538" type="curve" smooth="yes"/>
      <point x="582" y="611"/>
      <point x="597" y="687"/>
      <point x="624" y="733" type="curve" smooth="yes"/>
      <point x="678" y="825"/>
    </contour>
  </outline>
</glyph>
<glyph name="A" format="2">
  <advance width="1142"/>
  <unicode hex="0041"/>
  <anchor x="569" y="1433" name="aboveUC"/>
  <anchor x="569" y="-46" name="belowLC"/>
  <anchor x="1017" y="0" name="ogonekUC"/>
  <outline>
    <contour>
      <point x="6" y="0" type="line"/>
      <point x="175" y="0" type="line"/>
      <point x="424" y="781" type="line" smooth="yes"/>
      <point x="474" y="937"/>
      <point x="521" y="1087"/>
      <point x="563" y="1249" type="curve"/>
      <point x="572" y="1249" type="line"/>
      <point x="618" y="1087"/>
      <point x="662" y="937"/>
      <point x="713" y="781" type="curve" smooth="yes"/>
      <point x="960" y="0" type="line"/>
      <point x="1135" y="0" type="line"/>
      <point x="662" y="1386" type="line"/>
      <point x="479" y="1386" type="line"/>
    </contour>
    <contour>
      <point x="251" y="430" type="line"/>
      <point x="886" y="430" type="line"/>
      <point x="886" y="561" type="line"/>
      <point x="251" y="561" type="line"/>
    </contour>
  </outline>
</glyph>
<glyph name="H" format="2">
  <advance width="1372"/>
  <unicode hex="0048"/>
  <anchor x="683" y="1433" name="aboveUC"/>
  <anchor x="683" y="-46" name="belowLC"/>
  <outline>
    <contour>
      <point x="192" y="0" type="line"/>
      <point x="356" y="0" type="line"/>
      <point x="356" y="658" type="line"/>
      <point x="1015" y="658" type="line"/>
      <point x="1015" y="0" type="line"/>
      <point x="1180" y="0" type="line"/>
      <point x="1180" y="1386" type="line"/>
      <point x="1015" y="1386" type="line"/>
      <point x="1015" y="802" type="line"/>
      <point x="356" y="802" type="line"/>
      <point x="356" y="1386" type="line"/>
      <point x="192" y="1386" type="line"/>
    </contour>
  </outline>
</glyph>
<glyph name="K" format="2">
  <advance width="1215"/>
  <unicode hex="004B"/>
  <anchor x="654" y="1433" name="aboveUC"/>
  <anchor x="690" y="-46" name="belowLC"/>
  <outline>
    <contour>
      <point x="192" y="0" type="line"/>
      <point x="356" y="0" type="line"/>
      <point x="356" y="443" type="line"/>
      <point x="601" y="732" type="line"/>
      <point x="1021" y="0" type="line"/>
      <point x="1205" y="0" type="line"/>
      <point x="702" y="859" type="line"/>
      <point x="1137" y="1386" type="line"/>
      <point x="952" y="1386" type="line"/>
      <point x="363" y="679" type="line"/>
      <point x="356" y="679" type="line"/>
      <point x="356" y="1386" type="line"/>
      <point x="192" y="1386" type="line"/>
    </contour>
  </outline>
</glyph>
<glyph name="LtnCapO" format="2">
  <advance width="1460"/>
  <unicode hex="004F"/>
  <anchor x="717" y="0" name="H"/>
  <anchor x="717" y="-100" name="L"/>
  <anchor x="956" y="0" name="O"/>
  <anchor x="1460" y="1200" name="R"/>
  <anchor x="717" y="1530" name="U"/>
  <outline>
    <contour>
      <point x="1097" y="1033"/>
      <point x="1097" y="681" type="curve" smooth="yes"/>
      <point x="1097" y="342"/>
      <point x="925" y="142"/>
      <point x="691" y="142" type="curve" smooth="yes"/>
      <point x="443" y="142"/>
      <point x="281" y="361"/>
      <point x="281" y="710" type="curve" smooth="yes"/>
      <point x="281" y="1040"/>
      <point x="450" y="1249"/>
      <point x="691" y="1249" type="curve" smooth="yes"/>
      <point x="934" y="1249"/>
    </contour>
    <contour>
      <point x="1283" y="247"/>
      <point x="1283" y="705" type="curve" smooth="yes"/>
      <point x="1283" y="1162"/>
      <point x="1004" y="1416"/>
      <point x="701" y="1416" type="curve" smooth="yes"/>
      <point x="393" y="1416"/>
      <point x="95" y="1143"/>
      <point x="95" y="686" type="curve" smooth="yes"/>
      <point x="95" y="229"/>
      <point x="375" y="-25"/>
      <point x="682" y="-25" type="curve" smooth="yes"/>
      <point x="986" y="-25"/>
    </contour>
  </outline>
</glyph>
<glyph name="LtnCapV" format="2">
  <advance width="1365"/>
  <unicode hex="0056"/>
  <anchor x="680" y="0" name="H"/>
  <anchor x="672" y="-100" name="L"/>
  <anchor x="880" y="0" name="O"/>
  <anchor x="672" y="1530" name="U"/>
  <outline>
    <contour>
      <point x="1251" y="1393" type="curve"/>
      <point x="1046" y="1393" type="line"/>
      <point x="643" y="186" type="line"/>
      <point x="240" y="1393" type="line"/>
      <point x="35" y="1393" type="line"/>
      <point x="66" y="1315"/>
      <point x="98" y="1229"/>
      <point x="164" y="1045" type="curve" smooth="yes"/>
      <point x="536" y="0" type="line"/>
      <point x="751" y="0" type="line"/>
      <point x="1118" y="1045" type="line" smooth="yes"/>
      <point x="1183" y="1230"/>
      <point x="1217" y="1315"/>
    </contour>
  </outline>
</glyph>
<glyph name="V" format="2">
  <advance width="1078"/>
  <unicode hex="0056"/>
  <anchor x="538" y="1433" name="aboveUC"/>
  <anchor x="542" y="-46" name="belowLC"/>
  <outline>
    <contour>
      <point x="439" y="0" type="line"/>
      <point x="626" y="0" type="line"/>
      <point x="1078" y="1386" type="line"/>
      <point x="909" y="1386" type="line"/>
      <point x="675" y="626" type="line" smooth="yes"/>
      <point x="624" y="464"/>
      <point x="593" y="331"/>
      <point x="540" y="168" type="curve"/>
      <point x="531" y="168" type="line"/>
      <point x="479" y="331"/>
      <point x="443" y="464"/>
      <point x="396" y="626" type="curve" smooth="yes"/>
      <point x="175" y="1386" type="line"/>
      <point x="2" y="1386" type="line"/>
    </contour>
  </outline>
</glyph>
<glyph name="Y" format="2">
  <advance width="994"/>
  <unicode hex="0059"/>
  <anchor x="498" y="1433" name="aboveUC"/>
  <anchor x="502" y="-46" name="belowLC"/>
  <outline>
    <contour>
      <point x="415" y="0" type="line"/>
      <point x="580" y="0" type="line"/>
      <point x="580" y="540" type="line"/>
      <point x="996" y="1386" type="line"/>
      <point x="825" y="1386" type="line"/>
      <point x="643" y="987" type="line"/>
      <point x="599" y="886"/>
      <point x="550" y="789"/>
      <point x="502" y="686" type="curve"/>
      <point x="493" y="686" type="line"/>
      <point x="445" y="789"/>
      <point x="403" y="886"/>
      <point x="358" y="987" type="curve"/>
      <point x="173" y="1386" type="line"/>
      <point x="0" y="1386" type="line"/>
      <point x="415" y="540" type="line"/>
    </contour>
  </outline>
</glyph>
<glyph name="LtnCapZ" format="2">
  <advance width="1230"/>
  <unicode hex="005A"/>
  <anchor x="605" y="-100" name="L"/>
  <anchor x="605" y="1530" name="U"/>
  <outline>
    <contour>
      <point x="1058" y="1269" type="line"/>
      <point x="1058" y="1393" type="line"/>
      <point x="132" y="1393" type="line"/>
      <point x="132" y="1216" type="line"/>
      <point x="209" y="1233"/>
      <point x="321" y="1235"/>
      <point x="509" y="1235" type="curve" smooth="yes"/>
      <point x="833" y="1235" type="line"/>
      <point x="75" y="119" type="line"/>
      <point x="75" y="0" type="line"/>
      <point x="1086" y="0" type="line"/>
      <point x="1086" y="176" type="line"/>
      <point x="1010" y="163"/>
      <point x="858" y="157"/>
      <point x="671" y="157" type="curve" smooth="yes"/>
      <point x="299" y="157" type="line"/>
    </contour>
  </outline>
</glyph>
<glyph name="CircumAccent" format="2">
  <advance width="812"/>
  <unicode hex="005E"/>
  <anchor x="406" y="1635" name="U"/>
  <outline>
    <contour>
      <point x="812" y="1170" type="line"/>
      <point x="487" y="1580" type="line"/>
      <point x="325" y="1580" type="line"/>
      <point x="0" y="1170" type="line"/>
      <point x="143" y="1170" type="line"/>
      <point x="406" y="1437" type="line"/>
      <point x="669" y="1170" type="line"/>
    </contour>
  </outline>
</glyph>
<glyph name="GraveAccent" format="2">
  <advance width="580"/>
  <unicode hex="0060"/>
  <anchor x="390" y="1635" name="U"/>
  <outline>
    <contour>
      <point x="1282" y="1128" type="line"/>
      <point x="1393" y="1128" type="line"/>
      <point x="1132" y="1431" type="line" smooth="yes"/>
      <point x="1104" y="1465"/>
      <point x="1085" y="1484"/>
      <point x="1030" y="1484" type="curve" smooth="yes"/>
      <point x="964" y="1484"/>
      <point x="940" y="1437"/>
      <point x="940" y="1396" type="curve" smooth="yes"/>
      <point x="940" y="1361"/>
      <point x="957" y="1336"/>
      <point x="985" y="1318" type="curve" smooth="yes"/>
    </contour>
  </outline>
</glyph>
<glyph name="d" format="2">
  <advance width="1167"/>
  <unicode hex="0064"/>
  <anchor x="563" y="1534" name="aboveUC"/>
  <anchor x="584" y="-46" name="belowLC"/>
  <outline>
    <contour>
      <point x="523" y="-25" type="curve" smooth="yes"/>
      <point x="648" y="-25"/>
      <point x="757" y="42"/>
      <point x="838" y="122" type="curve"/>
      <point x="844" y="122" type="line"/>
      <point x="857" y="0" type="line"/>
      <point x="992" y="0" type="line"/>
      <point x="992" y="1505" type="line"/>
      <point x="829" y="1505" type="line"/>
      <point x="829" y="1106" type="line"/>
      <point x="835" y="930" type="line"/>
      <point x="745" y="1004"/>
      <point x="664" y="1049"/>
      <point x="546" y="1049" type="curve" smooth="yes"/>
      <point x="312" y="1049"/>
      <point x="101" y="842"/>
      <point x="101" y="510" type="curve" smooth="yes"/>
      <point x="101" y="168"/>
      <point x="268" y="-25"/>
    </contour>
    <contour>
      <point x="559" y="111" type="curve" smooth="yes"/>
      <point x="373" y="111"/>
      <point x="268" y="261"/>
      <point x="268" y="510" type="curve" smooth="yes"/>
      <point x="268" y="749"/>
      <point x="403" y="914"/>
      <point x="572" y="914" type="curve" smooth="yes"/>
      <point x="658" y="914"/>
      <point x="738" y="882"/>
      <point x="829" y="802" type="curve"/>
      <point x="829" y="255" type="line"/>
      <point x="740" y="158"/>
      <point x="656" y="111"/>
    </contour>
  </outline>
</glyph>
<glyph name="LtnSmF" format="2">
  <advance width="750"/>
  <unicode hex="0066"/>
  <anchor x="370" y="0" name="H"/>
  <anchor x="335" y="-100" name="L"/>
  <anchor x="560" y="1635" name="U"/>
  <outline>
    <contour>
      <point x="40" y="949" type="line"/>
      <point x="40" y="811" type="line"/>
      <point x="231" y="811" type="line"/>
      <point x="231" y="0" type="line"/>
      <point x="436" y="0" type="line"/>
      <point x="415" y="100"/>
      <point x="407" y="286"/>
      <point x="407" y="471" type="curve" smooth="yes"/>
      <point x="407" y="811" type="line"/>
      <point x="665" y="811" type="line"/>
      <point x="665" y="949" type="line"/>
      <point x="407" y="949" type="line"/>
      <point x="407" y="1154" type="line" smooth="yes"/>
      <point x="407" y="1317"/>
      <point x="461" y="1383"/>
      <point x="560" y="1383" type="curve" smooth="yes"/>
      <point x="615" y="1383"/>
      <point x="679" y="1361"/>
      <point x="727" y="1326" type="curve"/>
      <point x="770" y="1479" type="line"/>
      <point x="711" y="1521"/>
      <point x="634" y="1545"/>
      <point x="560" y="1545" type="curve" smooth="yes"/>
      <point x="354" y="1545"/>
      <point x="231" y="1402"/>
      <point x="231" y="1116" type="curve" smooth="yes"/>
      <point x="231" y="949" type="line"/>
    </contour>
  </outline>
</glyph>
<glyph name="LtnSmG" format="2">
  <advance width="1125"/>
  <unicode hex="0067"/>
  <anchor x="555" y="-500" name="L"/>
  <anchor x="1125" y="1000" name="R"/>
  <anchor x="595" y="1100" name="U"/>
  <outline>
    <contour>
      <point x="949" y="2" type="curve" smooth="yes"/>
      <point x="949" y="899" type="line"/>
      <point x="845" y="933"/>
      <point x="717" y="971"/>
      <point x="601" y="971" type="curve" smooth="yes"/>
      <point x="253" y="971"/>
      <point x="105" y="686"/>
      <point x="105" y="393" type="curve" smooth="yes"/>
      <point x="105" y="90"/>
      <point x="268" y="-26"/>
      <point x="444" y="-26" type="curve" smooth="yes"/>
      <point x="549" y="-26"/>
      <point x="674" y="39"/>
      <point x="773" y="164" type="curve"/>
      <point x="773" y="-31" type="line" smooth="yes"/>
      <point x="773" y="-252"/>
      <point x="614" y="-317"/>
      <point x="515" y="-317" type="curve" smooth="yes"/>
      <point x="421" y="-317"/>
      <point x="328" y="-273"/>
      <point x="239" y="-208" type="curve"/>
      <point x="177" y="-356" type="line"/>
      <point x="278" y="-424"/>
      <point x="404" y="-470"/>
      <point x="525" y="-470" type="curve" smooth="yes"/>
      <point x="737" y="-470"/>
      <point x="949" y="-334"/>
    </contour>
    <contour>
      <point x="773" y="770" type="curve"/>
      <point x="773" y="355" type="line"/>
      <point x="690" y="215"/>
      <point x="559" y="136"/>
      <point x="463" y="136" type="curve" smooth="yes"/>
      <point x="360" y="136"/>
      <point x="281" y="205"/>
      <point x="281" y="441" type="curve" smooth="yes"/>
      <point x="281" y="621"/>
      <point x="364" y="808"/>
      <point x="572" y="808" type="curve" smooth="yes"/>
      <point x="631" y="808"/>
      <point x="713" y="793"/>
    </contour>
  </outline>
</glyph>
<glyph name="LtnSmH" format="2">
  <advance width="1175"/>
  <unicode hex="0068"/>
  <anchor x="250" y="0" name="H"/>
  <anchor x="585" y="-100" name="L"/>
  <anchor x="585" y="1635" name="U"/>
  <outline>
    <contour>
      <point x="822" y="0" type="curve"/>
      <point x="998" y="0" type="line"/>
      <point x="998" y="0"/>
      <point x="998" y="438"/>
      <point x="998" y="596" type="curve" smooth="yes"/>
      <point x="998" y="859"/>
      <point x="887" y="992"/>
      <point x="683" y="992" type="curve" smooth="yes"/>
      <point x="550" y="992"/>
      <point x="414" y="924"/>
      <point x="321" y="792" type="curve"/>
      <point x="321" y="837"/>
      <point x="321" y="1526"/>
      <point x="321" y="1526" type="curve"/>
      <point x="130" y="1526" type="line"/>
      <point x="144" y="1444"/>
      <point x="144" y="1283"/>
      <point x="144" y="1078" type="curve" smooth="yes"/>
      <point x="144" y="892"/>
      <point x="144" y="0"/>
      <point x="144" y="0" type="curve"/>
      <point x="321" y="0" type="line"/>
      <point x="321" y="553" type="line"/>
      <point x="363" y="683"/>
      <point x="493" y="825"/>
      <point x="631" y="825" type="curve" smooth="yes"/>
      <point x="759" y="825"/>
      <point x="822" y="763"/>
      <point x="822" y="525" type="curve" smooth="yes"/>
      <point x="822" y="394"/>
      <point x="822" y="0"/>
    </contour>
  </outline>
</glyph>
<glyph name="h" format="2">
  <advance width="1144"/>
  <unicode hex="0068"/>
  <anchor x="618" y="1534" name="aboveUC"/>
  <anchor x="605" y="-46" name="belowLC"/>
  <outline>
    <contour>
      <point x="175" y="0" type="line"/>
      <point x="337" y="0" type="line"/>
      <point x="337" y="745" type="line"/>
      <point x="443" y="852"/>
      <point x="519" y="909"/>
      <point x="624" y="909" type="curve" smooth="yes"/>
      <point x="766" y="909"/>
      <point x="825" y="823"/>
      <point x="825" y="629" type="curve" smooth="yes"/>
      <point x="825" y="0" type="line"/>
      <point x="985" y="0" type="line"/>
      <point x="985" y="650" type="line" smooth="yes"/>
      <point x="985" y="911"/>
      <point x="888" y="1049"/>
      <point x="675" y="1049" type="curve" smooth="yes"/>
      <point x="534" y="1049"/>
      <point x="430" y="973"/>
      <point x="331" y="878" type="curve"/>
      <point x="337" y="1091" type="line"/>
      <point x="337" y="1505" type="line"/>
      <point x="175" y="1505" type="line"/>
    </contour>
  </outline>
</glyph>
<glyph name="LtnSmJ" format="2">
  <advance width="595"/>
  <unicode hex="006A"/>
  <anchor x="125" y="-500" name="L"/>
  <anchor x="313" y="1100" name="U"/>
  <outline>
    <contour>
      <point x="378" y="2" type="curve" smooth="yes"/>
      <point x="378" y="951" type="line"/>
      <point x="187" y="951" type="line"/>
      <point x="199" y="851"/>
      <point x="201" y="670"/>
      <point x="201" y="484" type="curve"/>
      <point x="201" y="-45" type="line"/>
      <point x="201" y="-233"/>
      <point x="131" y="-308"/>
      <point x="29" y="-308" type="curve" smooth="yes"/>
      <point x="-24" y="-308"/>
      <point x="-115" y="-282"/>
      <point x="-157" y="-251" type="curve"/>
      <point x="-190" y="-408" type="line"/>
      <point x="-133" y="-447"/>
      <point x="-34" y="-470"/>
      <point x="20" y="-470" type="curve" smooth="yes"/>
      <point x="237" y="-470"/>
      <point x="378" y="-354"/>
    </contour>
    <contour>
      <point x="168" y="1332"/>
      <point x="168" y="1262" type="curve" smooth="yes"/>
      <point x="168" y="1191"/>
      <point x="216" y="1133"/>
      <point x="287" y="1133" type="curve" smooth="yes"/>
      <point x="359" y="1133"/>
      <point x="411" y="1191"/>
      <point x="411" y="1262" type="curve" smooth="yes"/>
      <point x="411" y="1332"/>
      <point x="359" y="1390"/>
      <point x="287" y="1390" type="curve" smooth="yes"/>
      <point x="216" y="1390"/>
    </contour>
  </outline>
</glyph>
<glyph name="LtnSmQ" format="2">
  <advance width="1130"/>
  <unicode hex="0071"/>
  <anchor x="555" y="-500" name="L"/>
  <anchor x="1130" y="1000" name="R"/>
  <anchor x="555" y="1100" name="U"/>
  <outline>
    <contour>
      <point x="763" y="111" type="curve"/>
      <point x="763" y="-490" type="line"/>
      <point x="964" y="-490" type="line"/>
      <point x="947" y="-409"/>
      <point x="940" y="-318"/>
      <point x="940" y="-166" type="curve" smooth="yes"/>
      <point x="940" y="-47"/>
      <point x="940" y="898"/>
      <point x="940" y="898" type="curve"/>
      <point x="837" y="932"/>
      <point x="717" y="970"/>
      <point x="601" y="970" type="curve" smooth="yes"/>
      <point x="253" y="970"/>
      <point x="105" y="685"/>
      <point x="105" y="392" type="curve" smooth="yes"/>
      <point x="105" y="89"/>
      <point x="311" y="-46"/>
      <point x="487" y="-46" type="curve" smooth="yes"/>
      <point x="575" y="-46"/>
      <point x="664" y="-4"/>
    </contour>
    <contour>
      <point x="763" y="769" type="curve"/>
      <point x="763" y="326" type="line"/>
      <point x="685" y="186"/>
      <point x="589" y="116"/>
      <point x="501" y="116" type="curve" smooth="yes"/>
      <point x="398" y="116"/>
      <point x="281" y="204"/>
      <point x="281" y="440" type="curve" smooth="yes"/>
      <point x="281" y="620"/>
      <point x="364" y="807"/>
      <point x="572" y="807" type="curve" smooth="yes"/>
      <point x="631" y="807"/>
      <point x="706" y="791"/>
    </contour>
  </outline>
</glyph>
<glyph name="LtnSmS" format="2">
  <advance width="965"/>
  <unicode hex="0073"/>
  <anchor x="495" y="0" name="H"/>
  <anchor x="495" y="-100" name="L"/>
  <anchor x="495" y="1100" name="U"/>
  <outline>
    <contour>
      <point x="768" y="748" type="curve"/>
      <point x="802" y="915" type="line"/>
      <point x="736" y="951"/>
      <point x="635" y="991"/>
      <point x="496" y="991" type="curve" smooth="yes"/>
      <point x="206" y="991"/>
      <point x="129" y="793"/>
      <point x="129" y="705" type="curve" smooth="yes"/>
      <point x="129" y="587"/>
      <point x="179" y="489"/>
      <point x="411" y="433" type="curve" smooth="yes"/>
      <point x="624" y="380"/>
      <point x="673" y="328"/>
      <point x="673" y="256" type="curve" smooth="yes"/>
      <point x="673" y="191"/>
      <point x="594" y="128"/>
      <point x="482" y="128" type="curve" smooth="yes"/>
      <point x="381" y="128"/>
      <point x="244" y="179"/>
      <point x="158" y="256" type="curve"/>
      <point x="110" y="85" type="line"/>
      <point x="185" y="26"/>
      <point x="323" y="-25"/>
      <point x="477" y="-25" type="curve" smooth="yes"/>
      <point x="682" y="-25"/>
      <point x="845" y="109"/>
      <point x="845" y="280" type="curve" smooth="yes"/>
      <point x="845" y="458"/>
      <point x="702" y="532"/>
      <point x="530" y="571" type="curve" smooth="yes"/>
      <point x="329" y="617"/>
      <point x="301" y="648"/>
      <point x="301" y="714" type="curve" smooth="yes"/>
      <point x="301" y="772"/>
      <point x="347" y="838"/>
      <point x="487" y="838" type="curve" smooth="yes"/>
      <point x="605" y="838"/>
      <point x="704" y="785"/>
    </contour>
  </outline>
</glyph>
<glyph name="LtnSmT" format="2">
  <advance width="835"/>
  <unicode hex="0074"/>
  <anchor x="475" y="0" name="H"/>
  <anchor x="475" y="-100" name="L"/>
  <anchor x="835" y="1000" name="R"/>
  <anchor x="325" y="1360" name="U"/>
  <outline>
    <contour>
      <point x="726" y="51" type="curve"/>
      <point x="726" y="204" type="line"/>
      <point x="642" y="157"/>
      <point x="574" y="132"/>
      <point x="519" y="132" type="curve" smooth="yes"/>
      <point x="434" y="132"/>
      <point x="397" y="174"/>
      <point x="397" y="371" type="curve" smooth="yes"/>
      <point x="397" y="503"/>
      <point x="397" y="1258"/>
      <point x="397" y="1258" type="curve"/>
      <point x="221" y="1258" type="line"/>
      <point x="221" y="1258"/>
      <point x="221" y="414"/>
      <point x="221" y="256" type="curve" smooth="yes"/>
      <point x="221" y="36"/>
      <point x="341" y="-25"/>
      <point x="490" y="-25" type="curve" smooth="yes"/>
      <point x="557" y="-25"/>
      <point x="639" y="-5"/>
    </contour>
    <contour>
      <point x="30" y="948" type="line"/>
      <point x="30" y="810" type="line"/>
      <point x="707" y="810" type="line"/>
      <point x="707" y="948" type="line"/>
    </contour>
  </outline>
</glyph>
<glyph name="t" format="2">
  <advance width="705"/>
  <unicode hex="0074"/>
  <anchor x="308" y="1353" name="aboveLC"/>
  <anchor x="449" y="0" name="baseLC"/>
  <anchor x="449" y="-46" name="belowLC"/>
  <outline>
    <contour>
      <point x="491" y="-25" type="curve" smooth="yes"/>
      <point x="559" y="-25"/>
      <point x="626" y="-6"/>
      <point x="681" y="18" type="curve"/>
      <point x="645" y="132" type="line"/>
      <point x="603" y="113"/>
      <point x="563" y="107"/>
      <point x="527" y="107" type="curve" smooth="yes"/>
      <point x="407" y="107"/>
      <point x="367" y="181"/>
      <point x="367" y="308" type="curve" smooth="yes"/>
      <point x="367" y="890" type="line"/>
      <point x="648" y="890" type="line"/>
      <point x="648" y="1023" type="line"/>
      <point x="367" y="1023" type="line"/>
      <point x="367" y="1355" type="line"/>
      <point x="232" y="1355" type="line"/>
      <point x="213" y="1023" type="line"/>
      <point x="52" y="1015" type="line"/>
      <point x="52" y="890" type="line"/>
      <point x="204" y="890" type="line"/>
      <point x="204" y="312" type="line" smooth="yes"/>
      <point x="204" y="111"/>
      <point x="276" y="-25"/>
    </contour>
  </outline>
</glyph>
<glyph name="LtnSmW" format="2">
  <advance width="1550"/>
  <unicode hex="0077"/>
  <anchor x="775" y="-100" name="L"/>
  <anchor x="775" y="1100" name="U"/>
  <outline>
    <contour>
      <point x="813" y="973" type="line"/>
      <point x="670" y="973" type="line"/>
      <point x="422" y="205" type="line"/>
      <point x="221" y="973" type="line"/>
      <point x="45" y="973" type="line"/>
      <point x="90" y="827"/>
      <point x="117" y="736"/>
      <point x="145" y="634" type="curve" smooth="yes"/>
      <point x="322" y="0" type="line"/>
      <point x="503" y="0" type="line"/>
      <point x="741" y="749" type="line"/>
      <point x="980" y="0" type="line"/>
      <point x="1161" y="0" type="line"/>
      <point x="1338" y="634" type="line" smooth="yes"/>
      <point x="1370" y="749"/>
      <point x="1393" y="828"/>
      <point x="1438" y="973" type="curve"/>
      <point x="1261" y="973" type="line"/>
      <point x="1061" y="205" type="line"/>
    </contour>
  </outline>
</glyph>
<glyph name="x" format="2">
  <advance width="930"/>
  <unicode hex="0078"/>
  <anchor x="464" y="1074" name="aboveLC"/>
  <anchor x="464" y="-46" name="belowLC"/>
  <outline>
    <contour>
      <point x="29" y="0" type="line"/>
      <point x="198" y="0" type="line"/>
      <point x="341" y="244" type="line"/>
      <point x="377" y="308"/>
      <point x="411" y="369"/>
      <point x="447" y="428" type="curve"/>
      <point x="455" y="428" type="line"/>
      <point x="496" y="369"/>
      <point x="534" y="306"/>
      <point x="569" y="244" type="curve"/>
      <point x="724" y="0" type="line"/>
      <point x="901" y="0" type="line"/>
      <point x="563" y="519" type="line"/>
      <point x="876" y="1023" type="line"/>
      <point x="705" y="1023" type="line"/>
      <point x="576" y="793" type="line"/>
      <point x="544" y="738"/>
      <point x="512" y="679"/>
      <point x="481" y="624" type="curve"/>
      <point x="472" y="624" type="line"/>
      <point x="439" y="679"/>
      <point x="403" y="738"/>
      <point x="371" y="793" type="curve"/>
      <point x="230" y="1023" type="line"/>
      <point x="54" y="1023" type="line"/>
      <point x="367" y="534" type="line"/>
    </contour>
  </outline>
</glyph>
<glyph name="y" format="2">
  <advance width="977"/>
  <unicode hex="0079"/>
  <anchor x="508" y="1074" name="aboveLC"/>
  <anchor x="417" y="-466" name="belowLC"/>
  <outline>
    <contour>
      <point x="185" y="-445" type="curve" smooth="yes"/>
      <point x="386" y="-445"/>
      <point x="493" y="-289"/>
      <point x="563" y="-90" type="curve"/>
      <point x="952" y="1023" type="line"/>
      <point x="793" y="1023" type="line"/>
      <point x="603" y="445" type="line" smooth="yes"/>
      <point x="576" y="354"/>
      <point x="546" y="251"/>
      <point x="517" y="156" type="curve"/>
      <point x="508" y="156" type="line"/>
      <point x="474" y="251"/>
      <point x="439" y="356"/>
      <point x="407" y="445" type="curve" smooth="yes"/>
      <point x="192" y="1023" type="line"/>
      <point x="25" y="1023" type="line"/>
      <point x="439" y="-4" type="line"/>
      <point x="413" y="-82" type="line" smooth="yes"/>
      <point x="369" y="-213"/>
      <point x="295" y="-310"/>
      <point x="177" y="-310" type="curve" smooth="yes"/>
      <point x="154" y="-310"/>
      <point x="126" y="-303"/>
      <point x="101" y="-295" type="curve"/>
      <point x="67" y="-422" type="line"/>
      <point x="99" y="-436"/>
      <point x="139" y="-445"/>
    </contour>
  </outline>
</glyph>
<glyph name="VertLine" format="2">
  <advance width="690"/>
  <unicode hex="007C"/>
  <outline>
    <contour>
      <point x="413" y="1508" type="line"/>
      <point x="270" y="1508" type="line"/>
      <point x="270" y="-390" type="line"/>
      <point x="413" y="-390" type="line"/>
    </contour>
  </outline>
</glyph>
<glyph name="Tilde" format="2">
  <advance width="1115"/>
  <unicode hex="007E"/>
  <outline>
    <contour>
      <point x="20" y="374" type="curve"/>
      <point x="120" y="374" type="line"/>
      <point x="125" y="421"/>
      <point x="155" y="460"/>
      <point x="230" y="460" type="curve" smooth="yes"/>
      <point x="397" y="460"/>
      <point x="588" y="360"/>
      <point x="807" y="360" type="curve" smooth="yes"/>
      <point x="959" y="360"/>
      <point x="1031" y="476"/>
      <point x="1031" y="599" type="curve"/>
      <point x="931" y="599" type="line"/>
      <point x="924" y="555"/>
      <point x="896" y="503"/>
      <point x="817" y="503" type="curve" smooth="yes"/>
      <point x="591" y="503"/>
      <point x="441" y="603"/>
      <point x="230" y="603" type="curve" smooth="yes"/>
      <point x="91" y="603"/>
      <point x="20" y="491"/>
    </contour>
  </outline>
</glyph>
<glyph name="CentSgn" format="2">
  <advance width="1200"/>
  <unicode hex="00A2"/>
  <outline>
    <contour>
      <point x="797" y="1003"/>
      <point x="676" y="1003" type="curve" smooth="yes"/>
      <point x="388" y="1003"/>
      <point x="205" y="778"/>
      <point x="205" y="506" type="curve" smooth="yes"/>
      <point x="205" y="215"/>
      <point x="402" y="38"/>
      <point x="645" y="38" type="curve" smooth="yes"/>
      <point x="780" y="38"/>
      <point x="866" y="70"/>
      <point x="958" y="138" type="curve"/>
      <point x="940" y="297" type="line"/>
      <point x="860" y="227"/>
      <point x="772" y="188"/>
      <point x="663" y="188" type="curve" smooth="yes"/>
      <point x="487" y="188"/>
      <point x="378" y="319"/>
      <point x="378" y="514" type="curve" smooth="yes"/>
      <point x="378" y="728"/>
      <point x="502" y="854"/>
      <point x="663" y="854" type="curve" smooth="yes"/>
      <point x="756" y="854"/>
      <point x="835" y="823"/>
      <point x="917" y="763" type="curve"/>
      <point x="948" y="926" type="line"/>
      <point x="882" y="972"/>
    </contour>
    <contour>
      <point x="711" y="1250" type="line"/>
      <point x="587" y="1250" type="line"/>
      <point x="587" y="-210" type="line"/>
      <point x="711" y="-210" type="line"/>
    </contour>
  </outline>
</glyph>
<glyph name="FemOrdIndicator" format="2">
  <advance width="808"/>
  <unicode hex="00AA"/>
  <outline>
    <contour>
      <point x="78" y="595" type="line"/>
      <point x="78" y="500" type="line"/>
      <point x="738" y="500" type="line"/>
      <point x="738" y="595" type="line"/>
    </contour>
    <contour>
      <point x="582" y="963" type="curve"/>
      <point x="582" y="901" type="line"/>
      <point x="582" y="846"/>
      <point x="593" y="711"/>
      <point x="612" y="672" type="curve"/>
      <point x="729" y="672" type="line"/>
      <point x="703" y="741"/>
      <point x="686" y="844"/>
      <point x="686" y="1000" type="curve" smooth="yes"/>
      <point x="686" y="1289" type="line"/>
      <point x="618" y="1305"/>
      <point x="528" y="1317"/>
      <point x="441" y="1317" type="curve" smooth="yes"/>
      <point x="192" y="1317"/>
      <point x="81" y="1123"/>
      <point x="81" y="925" type="curve" smooth="yes"/>
      <point x="81" y="751"/>
      <point x="170" y="656"/>
      <point x="281" y="656" type="curve" smooth="yes"/>
      <point x="421" y="656"/>
      <point x="526" y="822"/>
    </contour>
    <contour>
      <point x="257" y="1217"/>
      <point x="432" y="1217" type="curve" smooth="yes"/>
      <point x="499" y="1217"/>
      <point x="540" y="1210"/>
      <point x="562" y="1205" type="curve"/>
      <point x="562" y="1165" type="line" smooth="yes"/>
      <point x="562" y="1076"/>
      <point x="420" y="761"/>
      <point x="301" y="761" type="curve" smooth="yes"/>
      <point x="249" y="761"/>
      <point x="205" y="830"/>
      <point x="205" y="925" type="curve" smooth="yes"/>
      <point x="205" y="1075"/>
    </contour>
  </outline>
</glyph>
<glyph name="LftPtngDblAngQuotMrk" format="2">
  <advance width="1300"/>
  <unicode hex="00AB"/>
  <outline>
    <contour>
      <point x="493" y="0" type="line"/>
      <point x="666" y="0" type="line"/>
      <point x="294" y="488" type="line"/>
      <point x="666" y="973" type="line"/>
      <point x="490" y="973" type="line"/>
      <point x="75" y="488" type="line"/>
    </contour>
    <contour>
      <point x="960" y="0" type="line"/>
      <point x="1134" y="0" type="line"/>
      <point x="762" y="488" type="line"/>
      <point x="1134" y="973" type="line"/>
      <point x="957" y="973" type="line"/>
      <point x="542" y="488" type="line"/>
    </contour>
  </outline>
</glyph>
<glyph name="softhyphen" format="2">
  <advance width="652"/>
  <unicode hex="00AD"/>
  <outline>
    <contour>
      <point x="86" y="466" type="line"/>
      <point x="567" y="466" type="line"/>
      <point x="567" y="591" type="line"/>
      <point x="86" y="591" type="line"/>
    </contour>
  </outline>
</glyph>
<glyph name="degree" format="2">
  <advance width="692"/>
  <unicode hex="00B0"/>
  <outline>
    <contour>
      <point x="348" y="911" type="curve" smooth="yes"/>
      <point x="485" y="911"/>
      <point x="607" y="1015"/>
      <point x="607" y="1175" type="curve" smooth="yes"/>
      <point x="607" y="1340"/>
      <point x="485" y="1446"/>
      <point x="348" y="1446" type="curve" smooth="yes"/>
      <point x="206" y="1446"/>
      <point x="86" y="1340"/>
      <point x="86" y="1175" type="curve" smooth="yes"/>
      <point x="86" y="1015"/>
      <point x="206" y="911"/>
    </contour>
    <contour>
      <point x="348" y="1004" type="curve" smooth="yes"/>
      <point x="253" y="1004"/>
      <point x="185" y="1076"/>
      <point x="185" y="1175" type="curve" smooth="yes"/>
      <point x="185" y="1279"/>
      <point x="253" y="1353"/>
      <point x="348" y="1353" type="curve" smooth="yes"/>
      <point x="441" y="1353"/>
      <point x="508" y="1279"/>
      <point x="508" y="1175" type="curve" smooth="yes"/>
      <point x="508" y="1076"/>
      <point x="441" y="1004"/>
    </contour>
  </outline>
</glyph>
<glyph name="plusminus" format="2">
  <advance width="1042"/>
  <unicode hex="00B1"/>
  <outline>
    <contour>
      <point x="455" y="261" type="line"/>
      <point x="586" y="261" type="line"/>
      <point x="586" y="643" type="line"/>
      <point x="971" y="643" type="line"/>
      <point x="971" y="766" type="line"/>
      <point x="586" y="766" type="line"/>
      <point x="586" y="1171" type="line"/>
      <point x="455" y="1171" type="line"/>
      <point x="455" y="766" type="line"/>
      <point x="71" y="766" type="line"/>
      <point x="71" y="643" type="line"/>
      <point x="455" y="643" type="line"/>
    </contour>
    <contour>
      <point x="71" y="0" type="line"/>
      <point x="971" y="0" type="line"/>
      <point x="971" y="122" type="line"/>
      <point x="71" y="122" type="line"/>
    </contour>
  </outline>
</glyph>
<glyph name="mu" format="2">
  <advance width="1180"/>
  <unicode hex="00B5"/>
  <outline>
    <contour>
      <point x="175" y="-377" type="line"/>
      <point x="339" y="-377" type="line"/>
      <point x="327" y="-215"/>
      <point x="327" y="-124"/>
      <point x="325" y="82" type="curve"/>
      <point x="375" y="-2"/>
      <point x="443" y="-21"/>
      <point x="529" y="-21" type="curve" smooth="yes"/>
      <point x="641" y="-21"/>
      <point x="743" y="42"/>
      <point x="819" y="175" type="curve"/>
      <point x="825" y="175" type="line"/>
      <point x="835" y="35"/>
      <point x="888" y="-25"/>
      <point x="1000" y="-25" type="curve"/>
      <point x="1055" y="-25"/>
      <point x="1091" y="-14"/>
      <point x="1120" y="-2" type="curve"/>
      <point x="1097" y="122" type="line"/>
      <point x="1074" y="113"/>
      <point x="1055" y="109"/>
      <point x="1036" y="109" type="curve" smooth="yes"/>
      <point x="992" y="109"/>
      <point x="962" y="132"/>
      <point x="962" y="192" type="curve" smooth="yes"/>
      <point x="962" y="443"/>
      <point x="971" y="743"/>
      <point x="973" y="1023" type="curve"/>
      <point x="810" y="1023" type="line"/>
      <point x="810" y="320" type="line"/>
      <point x="711" y="145"/>
      <point x="626" y="116"/>
      <point x="531" y="116" type="curve" smooth="yes"/>
      <point x="394" y="116"/>
      <point x="337" y="211"/>
      <point x="337" y="394" type="curve" smooth="yes"/>
      <point x="337" y="1023" type="line"/>
      <point x="175" y="1023" type="line"/>
    </contour>
  </outline>
</glyph>
<glyph name="paragraph" format="2">
  <advance width="1167"/>
  <unicode hex="00B6"/>
  <outline>
    <contour>
      <point x="800" y="-168" type="line"/>
      <point x="964" y="-168" type="line"/>
      <point x="964" y="1386" type="line"/>
      <point x="800" y="1386" type="line"/>
    </contour>
    <contour>
      <point x="616" y="483" type="curve" smooth="yes"/>
      <point x="686" y="483" type="line"/>
      <point x="686" y="1386" type="line"/>
      <point x="593" y="1386" type="line" smooth="yes"/>
      <point x="301" y="1386"/>
      <point x="86" y="1266"/>
      <point x="86" y="937" type="curve" smooth="yes"/>
      <point x="86" y="620"/>
      <point x="310" y="483"/>
    </contour>
  </outline>
</glyph>
<glyph name="MascOrdIndicator" format="2">
  <advance width="798"/>
  <unicode hex="00BA"/>
  <outline>
    <contour>
      <point x="71" y="1198"/>
      <point x="71" y="985" type="curve" smooth="yes"/>
      <point x="71" y="772"/>
      <point x="199" y="656"/>
      <point x="382" y="656" type="curve" smooth="yes"/>
      <point x="558" y="656"/>
      <point x="705" y="772"/>
      <point x="705" y="985" type="curve" smooth="yes"/>
      <point x="705" y="1198"/>
      <point x="579" y="1317"/>
      <point x="395" y="1317" type="curve" smooth="yes"/>
      <point x="220" y="1317"/>
    </contour>
    <contour>
      <point x="195" y="841"/>
      <point x="195" y="985" type="curve" smooth="yes"/>
      <point x="195" y="1130"/>
      <point x="281" y="1217"/>
      <point x="389" y="1217" type="curve" smooth="yes"/>
      <point x="503" y="1217"/>
      <point x="582" y="1130"/>
      <point x="582" y="985" type="curve" smooth="yes"/>
      <point x="582" y="841"/>
      <point x="496" y="756"/>
      <point x="389" y="756" type="curve" smooth="yes"/>
      <point x="274" y="756"/>
    </contour>
    <contour>
      <point x="71" y="595" type="line"/>
      <point x="71" y="500" type="line"/>
      <point x="705" y="500" type="line"/>
      <point x="705" y="595" type="line"/>
    </contour>
  </outline>
</glyph>
<glyph name="InvQstnMrk" format="2">
  <advance width="1050"/>
  <unicode hex="00BF"/>
  <outline>
    <contour>
      <point x="798" y="-305" type="curve"/>
      <point x="755" y="-134" type="line"/>
      <point x="683" y="-210"/>
      <point x="596" y="-243"/>
      <point x="520" y="-243" type="curve" smooth="yes"/>
      <point x="379" y="-243"/>
      <point x="336" y="-171"/>
      <point x="336" y="-114" type="curve" smooth="yes"/>
      <point x="336" y="-58"/>
      <point x="348" y="-5"/>
      <point x="469" y="124" type="curve" smooth="yes"/>
      <point x="572" y="234"/>
      <point x="588" y="326"/>
      <point x="588" y="639" type="curve"/>
      <point x="421" y="639" type="line"/>
      <point x="421" y="345"/>
      <point x="405" y="298"/>
      <point x="289" y="162" type="curve" smooth="yes"/>
      <point x="179" y="35"/>
      <point x="140" y="-26"/>
      <point x="140" y="-124" type="curve" smooth="yes"/>
      <point x="140" y="-317"/>
      <point x="291" y="-410"/>
      <point x="493" y="-410" type="curve" smooth="yes"/>
      <point x="612" y="-410"/>
      <point x="735" y="-365"/>
    </contour>
    <contour>
      <point x="638" y="845"/>
      <point x="638" y="915" type="curve" smooth="yes"/>
      <point x="638" y="986"/>
      <point x="581" y="1043"/>
      <point x="510" y="1043" type="curve" smooth="yes"/>
      <point x="440" y="1043"/>
      <point x="382" y="986"/>
      <point x="382" y="915" type="curve" smooth="yes"/>
      <point x="382" y="845"/>
      <point x="440" y="787"/>
      <point x="510" y="787" type="curve" smooth="yes"/>
      <point x="581" y="787"/>
    </contour>
  </outline>
</glyph>
<glyph name="Eth" format="2">
  <advance width="1342"/>
  <unicode hex="00D0"/>
  <outline>
    <contour>
      <point x="71" y="669" type="line"/>
      <point x="721" y="669" type="line"/>
      <point x="721" y="787" type="line"/>
      <point x="242" y="787" type="line"/>
      <point x="71" y="778" type="line"/>
    </contour>
    <component base="D" xOffset="46"/>
  </outline>
</glyph>
<glyph name="MultSgn" format="2">
  <advance width="1200"/>
  <unicode hex="00D7"/>
  <outline>
    <contour>
      <point x="299" y="1090" type="line"/>
      <point x="198" y="989" type="line"/>
      <point x="482" y="704" type="line"/>
      <point x="203" y="424" type="line"/>
      <point x="304" y="323" type="line"/>
      <point x="583" y="603" type="line"/>
      <point x="859" y="328" type="line"/>
      <point x="960" y="429" type="line"/>
      <point x="685" y="704" type="line"/>
      <point x="965" y="984" type="line"/>
      <point x="864" y="1085" type="line"/>
      <point x="583" y="805" type="line"/>
    </contour>
  </outline>
</glyph>
<glyph name="LtnCapOStrk" format="2">
  <advance width="1460"/>
  <unicode hex="00D8"/>
  <anchor x="717" y="-100" name="L"/>
  <anchor x="717" y="1530" name="U"/>
  <outline>
    <contour>
      <point x="1097" y="1031"/>
      <point x="1097" y="679" type="curve" smooth="yes"/>
      <point x="1097" y="340"/>
      <point x="925" y="140"/>
      <point x="691" y="140" type="curve" smooth="yes"/>
      <point x="443" y="140"/>
      <point x="281" y="359"/>
      <point x="281" y="707" type="curve" smooth="yes"/>
      <point x="281" y="1037"/>
      <point x="450" y="1246"/>
      <point x="691" y="1246" type="curve" smooth="yes"/>
      <point x="934" y="1246"/>
    </contour>
    <contour>
      <point x="1283" y="245"/>
      <point x="1283" y="703" type="curve" smooth="yes"/>
      <point x="1283" y="1159"/>
      <point x="1004" y="1413"/>
      <point x="701" y="1413" type="curve" smooth="yes"/>
      <point x="393" y="1413"/>
      <point x="95" y="1140"/>
      <point x="95" y="683" type="curve" smooth="yes"/>
      <point x="95" y="226"/>
      <point x="375" y="-27"/>
      <point x="682" y="-27" type="curve" smooth="yes"/>
      <point x="986" y="-27"/>
    </contour>
    <contour>
      <point x="1155" y="1456" type="line"/>
      <point x="1016" y="1456" type="line"/>
      <point x="190" y="-75" type="line"/>
      <point x="332" y="-75" type="line"/>
    </contour>
  </outline>
</glyph>
<glyph name="Oslash" format="2">
  <advance width="1397"/>
  <unicode hex="00D8"/>
  <anchor x="702" y="1433" name="aboveUC"/>
  <outline>
    <component base="O" xOffset="6"/>
    <contour>
      <point x="198" y="-61" type="line"/>
      <point x="1298" y="1376" type="line"/>
      <point x="1207" y="1446" type="line"/>
      <point x="107" y="10" type="line"/>
    </contour>
  </outline>
</glyph>
<glyph name="LtnCapThorn" format="2">
  <advance width="1196"/>
  <unicode hex="00DE"/>
  <anchor x="638" y="-100" name="L"/>
  <anchor x="638" y="1530" name="U"/>
  <outline>
    <contour>
      <point x="356" y="281"/>
      <point x="356" y="281" type="curve"/>
      <point x="418" y="275"/>
      <point x="497" y="272"/>
      <point x="566" y="272" type="curve" smooth="yes"/>
      <point x="880" y="272"/>
      <point x="1072" y="445"/>
      <point x="1072" y="725" type="curve" smooth="yes"/>
      <point x="1072" y="1004"/>
      <point x="875" y="1145"/>
      <point x="566" y="1145" type="curve" smooth="yes"/>
      <point x="491" y="1145"/>
      <point x="420" y="1143"/>
      <point x="356" y="1142" type="curve"/>
      <point x="356" y="1393" type="line"/>
      <point x="160" y="1393" type="line"/>
      <point x="174" y="1317"/>
      <point x="174" y="1141"/>
      <point x="174" y="954" type="curve" smooth="yes"/>
      <point x="174" y="415" type="line" smooth="yes"/>
      <point x="174" y="227"/>
      <point x="174" y="76"/>
      <point x="160" y="0" type="curve"/>
      <point x="370" y="0" type="line"/>
      <point x="357" y="74"/>
    </contour>
    <contour>
      <point x="356" y="429" type="curve"/>
      <point x="356" y="987" type="line"/>
      <point x="420" y="990"/>
      <point x="466" y="992"/>
      <point x="556" y="992" type="curve" smooth="yes"/>
      <point x="810" y="992"/>
      <point x="890" y="859"/>
      <point x="890" y="706" type="curve" smooth="yes"/>
      <point x="890" y="552"/>
      <point x="818" y="420"/>
      <point x="551" y="420" type="curve" smooth="yes"/>
      <point x="480" y="420"/>
      <point x="416" y="422"/>
    </contour>
  </outline>
</glyph>
<glyph name="Thorn" format="2">
  <advance width="1224"/>
  <unicode hex="00DE"/>
  <outline>
    <contour>
      <point x="192" y="0" type="line"/>
      <point x="356" y="0" type="line"/>
      <point x="356" y="320" type="line"/>
      <point x="610" y="320" type="line" smooth="yes"/>
      <point x="914" y="320"/>
      <point x="1118" y="455"/>
      <point x="1118" y="745" type="curve" smooth="yes"/>
      <point x="1118" y="1047"/>
      <point x="916" y="1150"/>
      <point x="610" y="1150" type="curve" smooth="yes"/>
      <point x="356" y="1150" type="line"/>
      <point x="356" y="1386" type="line"/>
      <point x="192" y="1386" type="line"/>
    </contour>
    <contour>
      <point x="356" y="455" type="line"/>
      <point x="356" y="1017" type="line"/>
      <point x="586" y="1017" type="line" smooth="yes"/>
      <point x="833" y="1017"/>
      <point x="954" y="949"/>
      <point x="954" y="745" type="curve" smooth="yes"/>
      <point x="954" y="544"/>
      <point x="835" y="455"/>
      <point x="586" y="455" type="curve" smooth="yes"/>
    </contour>
  </outline>
</glyph>
<glyph name="LtnSmSharpS" format="2">
  <advance width="1238"/>
  <unicode hex="00DF"/>
  <anchor x="590" y="-100" name="L"/>
  <anchor x="590" y="1635" name="U"/>
  <outline>
    <contour>
      <point x="733" y="707"/>
      <point x="733" y="805" type="curve" smooth="yes"/>
      <point x="733" y="973"/>
      <point x="1039" y="919"/>
      <point x="1039" y="1224" type="curve" smooth="yes"/>
      <point x="1039" y="1387"/>
      <point x="890" y="1544"/>
      <point x="597" y="1544" type="curve" smooth="yes"/>
      <point x="374" y="1544"/>
      <point x="159" y="1411"/>
      <point x="159" y="1067" type="curve" smooth="yes"/>
      <point x="159" y="470" type="line" smooth="yes"/>
      <point x="159" y="285"/>
      <point x="151" y="99"/>
      <point x="130" y="-1" type="curve"/>
      <point x="335" y="-1" type="line"/>
      <point x="335" y="-1"/>
      <point x="335" y="1003"/>
      <point x="335" y="1105" type="curve" smooth="yes"/>
      <point x="335" y="1321"/>
      <point x="499" y="1392"/>
      <point x="631" y="1392" type="curve" smooth="yes"/>
      <point x="737" y="1392"/>
      <point x="865" y="1314"/>
      <point x="865" y="1205" type="curve" smooth="yes"/>
      <point x="865" y="1017"/>
      <point x="561" y="1043"/>
      <point x="561" y="805" type="curve" smooth="yes"/>
      <point x="561" y="641"/>
      <point x="689" y="555"/>
      <point x="800" y="500" type="curve" smooth="yes"/>
      <point x="889" y="455"/>
      <point x="967" y="389"/>
      <point x="967" y="303" type="curve" smooth="yes"/>
      <point x="967" y="192"/>
      <point x="880" y="128"/>
      <point x="763" y="128" type="curve" smooth="yes"/>
      <point x="689" y="128"/>
      <point x="605" y="171"/>
      <point x="560" y="216" type="curve"/>
      <point x="513" y="45" type="line"/>
      <point x="561" y="10"/>
      <point x="671" y="-25"/>
      <point x="763" y="-25" type="curve" smooth="yes"/>
      <point x="979" y="-25"/>
      <point x="1135" y="100"/>
      <point x="1135" y="312" type="curve" smooth="yes"/>
      <point x="1135" y="479"/>
      <point x="1011" y="567"/>
      <point x="914" y="625" type="curve" smooth="yes"/>
      <point x="830" y="674"/>
    </contour>
  </outline>
</glyph>
<glyph name="LtnSmATilde" format="2">
  <advance width="1150"/>
  <unicode hex="00E3"/>
  <anchor x="980" y="0" name="H"/>
  <anchor x="595" y="-100" name="L"/>
  <anchor x="1180" y="0" name="O"/>
  <anchor x="1150" y="1000" name="R"/>
  <anchor x="595" y="1475" name="U"/>
  <outline>
    <contour>
      <point x="844" y="-1" type="curve"/>
      <point x="1011" y="-1" type="line"/>
      <point x="974" y="106"/>
      <point x="949" y="264"/>
      <point x="949" y="504" type="curve" smooth="yes"/>
      <point x="949" y="948" type="line"/>
      <point x="853" y="973"/>
      <point x="743" y="991"/>
      <point x="620" y="991" type="curve" smooth="yes"/>
      <point x="263" y="991"/>
      <point x="105" y="693"/>
      <point x="105" y="390" type="curve" smooth="yes"/>
      <point x="105" y="120"/>
      <point x="231" y="-25"/>
      <point x="391" y="-25" type="curve" smooth="yes"/>
      <point x="591" y="-25"/>
      <point x="726" y="193"/>
      <point x="801" y="390" type="curve"/>
      <point x="801" y="314" type="line" smooth="yes"/>
      <point x="801" y="230"/>
      <point x="817" y="59"/>
    </contour>
    <contour>
      <point x="773" y="821" type="curve"/>
      <point x="773" y="700" type="line"/>
      <point x="773" y="565"/>
      <point x="588" y="137"/>
      <point x="420" y="137" type="curve" smooth="yes"/>
      <point x="344" y="137"/>
      <point x="281" y="242"/>
      <point x="281" y="390" type="curve" smooth="yes"/>
      <point x="281" y="620"/>
      <point x="357" y="838"/>
      <point x="606" y="838" type="curve" smooth="yes"/>
      <point x="701" y="838"/>
      <point x="741" y="828"/>
    </contour>
    <contour>
      <point x="239" y="1148" type="curve"/>
      <point x="339" y="1148" type="line"/>
      <point x="344" y="1195"/>
      <point x="373" y="1230"/>
      <point x="420" y="1230" type="curve" smooth="yes"/>
      <point x="455" y="1230"/>
      <point x="494" y="1214"/>
      <point x="568" y="1180" type="curve" smooth="yes"/>
      <point x="626" y="1153"/>
      <point x="676" y="1134"/>
      <point x="727" y="1134" type="curve" smooth="yes"/>
      <point x="844" y="1134"/>
      <point x="916" y="1250"/>
      <point x="916" y="1373" type="curve"/>
      <point x="816" y="1373" type="line"/>
      <point x="809" y="1329"/>
      <point x="779" y="1292"/>
      <point x="735" y="1292" type="curve" smooth="yes"/>
      <point x="695" y="1292"/>
      <point x="655" y="1310"/>
      <point x="587" y="1337" type="curve" smooth="yes"/>
      <point x="520" y="1364"/>
      <point x="475" y="1387"/>
      <point x="422" y="1387" type="curve" smooth="yes"/>
      <point x="308" y="1387"/>
      <point x="239" y="1265"/>
    </contour>
  </outline>
</glyph>
<glyph name="LtnSmARingAbv" format="2">
  <advance width="1150"/>
  <unicode hex="00E5"/>
  <anchor x="980" y="0" name="H"/>
  <anchor x="595" y="-100" name="L"/>
  <anchor x="1180" y="0" name="O"/>
  <anchor x="1150" y="1000" name="R"/>
  <anchor x="597" y="1635" name="U"/>
  <outline>
    <contour>
      <point x="844" y="-1" type="curve"/>
      <point x="1011" y="-1" type="line"/>
      <point x="974" y="106"/>
      <point x="949" y="264"/>
      <point x="949" y="504" type="curve" smooth="yes"/>
      <point x="949" y="948" type="line"/>
      <point x="853" y="973"/>
      <point x="743" y="991"/>
      <point x="620" y="991" type="curve" smooth="yes"/>
      <point x="263" y="991"/>
      <point x="105" y="693"/>
      <point x="105" y="390" type="curve" smooth="yes"/>
      <point x="105" y="120"/>
      <point x="231" y="-25"/>
      <point x="391" y="-25" type="curve" smooth="yes"/>
      <point x="591" y="-25"/>
      <point x="726" y="193"/>
      <point x="801" y="390" type="curve"/>
      <point x="801" y="314" type="line" smooth="yes"/>
      <point x="801" y="230"/>
      <point x="817" y="59"/>
    </contour>
    <contour>
      <point x="773" y="821" type="curve"/>
      <point x="773" y="700" type="line"/>
      <point x="773" y="565"/>
      <point x="588" y="137"/>
      <point x="420" y="137" type="curve" smooth="yes"/>
      <point x="344" y="137"/>
      <point x="281" y="242"/>
      <point x="281" y="390" type="curve" smooth="yes"/>
      <point x="281" y="620"/>
      <point x="357" y="838"/>
      <point x="606" y="838" type="curve" smooth="yes"/>
      <point x="701" y="838"/>
      <point x="741" y="828"/>
    </contour>
    <contour>
      <point x="670" y="1377"/>
      <point x="670" y="1320" type="curve" smooth="yes"/>
      <point x="670" y="1263"/>
      <point x="632" y="1225"/>
      <point x="574" y="1225" type="curve" smooth="yes"/>
      <point x="517" y="1225"/>
      <point x="479" y="1263"/>
      <point x="479" y="1320" type="curve" smooth="yes"/>
      <point x="479" y="1377"/>
      <point x="517" y="1416"/>
      <point x="574" y="1416" type="curve" smooth="yes"/>
      <point x="632" y="1416"/>
    </contour>
    <contour>
      <point x="369" y="1435"/>
      <point x="369" y="1320" type="curve" smooth="yes"/>
      <point x="369" y="1206"/>
      <point x="460" y="1115"/>
      <point x="574" y="1115" type="curve" smooth="yes"/>
      <point x="689" y="1115"/>
      <point x="779" y="1206"/>
      <point x="779" y="1320" type="curve" smooth="yes"/>
      <point x="779" y="1435"/>
      <point x="689" y="1525"/>
      <point x="574" y="1525" type="curve" smooth="yes"/>
      <point x="460" y="1525"/>
    </contour>
  </outline>
</glyph>
<glyph name="LtnSmIGrave" format="2">
  <advance width="565"/>
  <unicode hex="00EC"/>
  <anchor x="285" y="0" name="H"/>
  <anchor x="285" y="-100" name="L"/>
  <anchor x="520" y="0" name="O"/>
  <anchor x="550" y="1000" name="R"/>
  <anchor x="285" y="1635" name="U"/>
  <outline>
    <contour>
      <point x="353" y="453" type="curve" smooth="yes"/>
      <point x="353" y="973" type="line"/>
      <point x="162" y="973" type="line"/>
      <point x="175" y="873"/>
      <point x="176" y="692"/>
      <point x="176" y="506" type="curve" smooth="yes"/>
      <point x="176" y="321"/>
      <point x="176" y="0"/>
      <point x="176" y="0" type="curve"/>
      <point x="372" y="0" type="line"/>
      <point x="360" y="102"/>
      <point x="353" y="330"/>
    </contour>
    <contour>
      <point x="114" y="1526" type="line"/>
      <point x="-105" y="1526" type="line"/>
      <point x="296" y="1116" type="line"/>
      <point x="448" y="1116" type="line"/>
    </contour>
  </outline>
</glyph>
<glyph name="LtnSmICircum" format="2">
  <advance width="565"/>
  <unicode hex="00EE"/>
  <anchor x="285" y="0" name="H"/>
  <anchor x="285" y="-100" name="L"/>
  <anchor x="520" y="0" name="O"/>
  <anchor x="550" y="1000" name="R"/>
  <anchor x="285" y="1635" name="U"/>
  <outline>
    <contour>
      <point x="351" y="453" type="curve" smooth="yes"/>
      <point x="351" y="973" type="line"/>
      <point x="161" y="973" type="line"/>
      <point x="173" y="873"/>
      <point x="175" y="692"/>
      <point x="175" y="506" type="curve" smooth="yes"/>
      <point x="175" y="321"/>
      <point x="175" y="0"/>
      <point x="175" y="0" type="curve"/>
      <point x="370" y="0" type="line"/>
      <point x="358" y="102"/>
      <point x="351" y="330"/>
    </contour>
    <contour>
      <point x="-140" y="1116" type="line"/>
      <point x="3" y="1116" type="line"/>
      <point x="265" y="1383" type="line"/>
      <point x="528" y="1116" type="line"/>
      <point x="671" y="1116" type="line"/>
      <point x="347" y="1526" type="line"/>
      <point x="184" y="1526" type="line"/>
    </contour>
  </outline>
</glyph>
<glyph name="LtnSmEth" format="2">
  <advance width="1160"/>
  <unicode hex="00F0"/>
  <anchor x="572" y="-100" name="L"/>
  <anchor x="572" y="1635" name="U"/>
  <outline>
    <contour>
      <point x="660" y="953"/>
      <point x="506" y="953" type="curve" smooth="yes"/>
      <point x="319" y="953"/>
      <point x="95" y="773"/>
      <point x="95" y="463" type="curve" smooth="yes"/>
      <point x="95" y="145"/>
      <point x="277" y="-25"/>
      <point x="539" y="-25" type="curve" smooth="yes"/>
      <point x="831" y="-25"/>
      <point x="1006" y="175"/>
      <point x="1006" y="577" type="curve" smooth="yes"/>
      <point x="1006" y="981"/>
      <point x="738" y="1384"/>
      <point x="475" y="1544" type="curve"/>
      <point x="309" y="1460" type="line"/>
      <point x="520" y="1360"/>
      <point x="740" y="1085"/>
      <point x="817" y="827" type="curve"/>
      <point x="729" y="909"/>
    </contour>
    <contour>
      <point x="271" y="251"/>
      <point x="271" y="463" type="curve" smooth="yes"/>
      <point x="271" y="668"/>
      <point x="375" y="800"/>
      <point x="548" y="800" type="curve" smooth="yes"/>
      <point x="712" y="800"/>
      <point x="825" y="677"/>
      <point x="825" y="463" type="curve" smooth="yes"/>
      <point x="825" y="260"/>
      <point x="721" y="128"/>
      <point x="548" y="128" type="curve" smooth="yes"/>
      <point x="384" y="128"/>
    </contour>
    <contour>
      <point x="390" y="1065" type="line"/>
      <point x="955" y="1416" type="line"/>
      <point x="873" y="1517" type="line"/>
      <point x="311" y="1168" type="line"/>
    </contour>
  </outline>
</glyph>
<glyph name="DivSgn" format="2">
  <advance width="1200"/>
  <unicode hex="00F7"/>
  <outline>
    <contour>
      <point x="444" y="473"/>
      <point x="444" y="401" type="curve" smooth="yes"/>
      <point x="444" y="328"/>
      <point x="507" y="267"/>
      <point x="580" y="267" type="curve" smooth="yes"/>
      <point x="652" y="267"/>
      <point x="710" y="328"/>
      <point x="710" y="401" type="curve" smooth="yes"/>
      <point x="710" y="473"/>
      <point x="652" y="532"/>
      <point x="580" y="532" type="curve" smooth="yes"/>
      <point x="507" y="532"/>
    </contour>
    <contour>
      <point x="444" y="1082"/>
      <point x="444" y="1009" type="curve" smooth="yes"/>
      <point x="444" y="937"/>
      <point x="507" y="877"/>
      <point x="580" y="877" type="curve" smooth="yes"/>
      <point x="652" y="877"/>
      <point x="710" y="937"/>
      <point x="710" y="1009" type="curve" smooth="yes"/>
      <point x="710" y="1082"/>
      <point x="652" y="1142"/>
      <point x="580" y="1142" type="curve" smooth="yes"/>
      <point x="507" y="1142"/>
    </contour>
    <contour>
      <point x="155" y="775" type="line"/>
      <point x="155" y="632" type="line"/>
      <point x="1004" y="632" type="line"/>
      <point x="1004" y="775" type="line"/>
    </contour>
  </outline>
</glyph>
<glyph name="LtnSmOStrk" format="2">
  <advance width="1140"/>
  <unicode hex="00F8"/>
  <anchor x="570" y="0" name="H"/>
  <anchor x="570" y="-100" name="L"/>
  <anchor x="820" y="0" name="O"/>
  <anchor x="1140" y="1000" name="R"/>
  <anchor x="570" y="1100" name="U"/>
  <outline>
    <contour>
      <point x="95" y="808"/>
      <point x="95" y="480" type="curve" smooth="yes"/>
      <point x="95" y="152"/>
      <point x="277" y="-27"/>
      <point x="539" y="-27" type="curve" smooth="yes"/>
      <point x="790" y="-27"/>
      <point x="1001" y="152"/>
      <point x="1001" y="480" type="curve" smooth="yes"/>
      <point x="1001" y="808"/>
      <point x="820" y="989"/>
      <point x="558" y="989" type="curve" smooth="yes"/>
      <point x="307" y="989"/>
    </contour>
    <contour>
      <point x="271" y="258"/>
      <point x="271" y="480" type="curve" smooth="yes"/>
      <point x="271" y="703"/>
      <point x="394" y="836"/>
      <point x="548" y="836" type="curve" smooth="yes"/>
      <point x="712" y="836"/>
      <point x="825" y="703"/>
      <point x="825" y="480" type="curve" smooth="yes"/>
      <point x="825" y="258"/>
      <point x="702" y="125"/>
      <point x="548" y="125" type="curve" smooth="yes"/>
      <point x="384" y="125"/>
    </contour>
    <contour>
      <point x="909" y="1051" type="line"/>
      <point x="769" y="1051" type="line"/>
      <point x="162" y="-75" type="line"/>
      <point x="303" y="-75" type="line"/>
    </contour>
  </outline>
</glyph>
<glyph name="LtnSmIBreve" format="2">
  <advance width="565"/>
  <unicode hex="012D"/>
  <anchor x="285" y="0" name="H"/>
  <anchor x="285" y="-100" name="L"/>
  <anchor x="520" y="0" name="O"/>
  <anchor x="550" y="1000" name="R"/>
  <anchor x="285" y="1635" name="U"/>
  <outline>
    <contour>
      <point x="354" y="453" type="curve" smooth="yes"/>
      <point x="354" y="973" type="line"/>
      <point x="163" y="973" type="line"/>
      <point x="175" y="873"/>
      <point x="177" y="692"/>
      <point x="177" y="506" type="curve" smooth="yes"/>
      <point x="177" y="321"/>
      <point x="177" y="0"/>
      <point x="177" y="0" type="curve"/>
      <point x="373" y="0" type="line"/>
      <point x="360" y="102"/>
      <point x="354" y="330"/>
    </contour>
    <contour>
      <point x="626" y="1294"/>
      <point x="626" y="1479" type="curve"/>
      <point x="509" y="1479" type="line"/>
      <point x="490" y="1350"/>
      <point x="393" y="1240"/>
      <point x="268" y="1240" type="curve" smooth="yes"/>
      <point x="144" y="1240"/>
      <point x="40" y="1350"/>
      <point x="24" y="1479" type="curve"/>
      <point x="-90" y="1479" type="line"/>
      <point x="-90" y="1294"/>
      <point x="44" y="1097"/>
      <point x="268" y="1097" type="curve" smooth="yes"/>
      <point x="490" y="1097"/>
    </contour>
  </outline>
</glyph>
<glyph name="Eng" format="2">
  <advance width="1334"/>
  <unicode hex="014A"/>
  <anchor x="724" y="1433" name="aboveUC"/>
  <anchor x="669" y="-46" name="belowLC"/>
  <outline>
    <contour>
      <point x="857" y="-25" type="curve" smooth="yes"/>
      <point x="1076" y="-25"/>
      <point x="1224" y="170"/>
      <point x="1224" y="709" type="curve" smooth="yes"/>
      <point x="1224" y="1224"/>
      <point x="1019" y="1412"/>
      <point x="745" y="1412" type="curve" smooth="yes"/>
      <point x="597" y="1412"/>
      <point x="451" y="1323"/>
      <point x="352" y="1211" type="curve"/>
      <point x="352" y="1386" type="line"/>
      <point x="192" y="1386" type="line"/>
      <point x="192" y="0" type="line"/>
      <point x="356" y="0" type="line"/>
      <point x="356" y="1057" type="line"/>
      <point x="441" y="1175"/>
      <point x="591" y="1266"/>
      <point x="705" y="1266" type="curve" smooth="yes"/>
      <point x="914" y="1266"/>
      <point x="1055" y="1133"/>
      <point x="1055" y="709" type="curve" smooth="yes"/>
      <point x="1055" y="261"/>
      <point x="956" y="130"/>
      <point x="840" y="130" type="curve" smooth="yes"/>
      <point x="795" y="130"/>
      <point x="764" y="137"/>
      <point x="734" y="151" type="curve"/>
      <point x="692" y="4" type="line"/>
      <point x="732" y="-14"/>
      <point x="804" y="-25"/>
    </contour>
  </outline>
</glyph>
<glyph name="LtnSmLigOe" format="2">
  <advance width="1860"/>
  <unicode hex="0153"/>
  <anchor x="1320" y="0" name="H"/>
  <anchor x="955" y="-100" name="L"/>
  <anchor x="1590" y="0" name="O"/>
  <anchor x="1860" y="1000" name="R"/>
  <anchor x="955" y="1100" name="U"/>
  <outline>
    <contour>
      <point x="95" y="811"/>
      <point x="95" y="483" type="curve" smooth="yes"/>
      <point x="95" y="154"/>
      <point x="277" y="-25"/>
      <point x="539" y="-25" type="curve" smooth="yes"/>
      <point x="689" y="-25"/>
      <point x="826" y="40"/>
      <point x="911" y="163" type="curve"/>
      <point x="996" y="39"/>
      <point x="1134" y="-25"/>
      <point x="1283" y="-25" type="curve" smooth="yes"/>
      <point x="1430" y="-25"/>
      <point x="1548" y="1"/>
      <point x="1683" y="70" type="curve"/>
      <point x="1664" y="228" type="line"/>
      <point x="1548" y="157"/>
      <point x="1430" y="132"/>
      <point x="1307" y="132" type="curve" smooth="yes"/>
      <point x="1134" y="132"/>
      <point x="1008" y="238"/>
      <point x="1001" y="462" type="curve"/>
      <point x="1678" y="462" type="line"/>
      <point x="1679" y="479"/>
      <point x="1679" y="519"/>
      <point x="1679" y="536" type="curve" smooth="yes"/>
      <point x="1679" y="751"/>
      <point x="1598" y="991"/>
      <point x="1283" y="991" type="curve" smooth="yes"/>
      <point x="1122" y="991"/>
      <point x="996" y="924"/>
      <point x="916" y="809" type="curve"/>
      <point x="839" y="928"/>
      <point x="712" y="991"/>
      <point x="558" y="991" type="curve" smooth="yes"/>
      <point x="307" y="991"/>
    </contour>
    <contour>
      <point x="271" y="260"/>
      <point x="271" y="483" type="curve" smooth="yes"/>
      <point x="271" y="706"/>
      <point x="394" y="838"/>
      <point x="548" y="838" type="curve" smooth="yes"/>
      <point x="712" y="838"/>
      <point x="825" y="706"/>
      <point x="825" y="483" type="curve" smooth="yes"/>
      <point x="825" y="260"/>
      <point x="702" y="128"/>
      <point x="548" y="128" type="curve" smooth="yes"/>
      <point x="384" y="128"/>
    </contour>
    <contour>
      <point x="1129" y="848"/>
      <point x="1268" y="848" type="curve" smooth="yes"/>
      <point x="1407" y="848"/>
      <point x="1507" y="759"/>
      <point x="1507" y="595" type="curve"/>
      <point x="1009" y="595" type="line"/>
      <point x="1037" y="768"/>
    </contour>
  </outline>
</glyph>
<glyph name="LtnCapSCaron" format="2">
  <advance width="1175"/>
  <unicode hex="0160"/>
  <anchor x="580" y="0" name="H"/>
  <anchor x="580" y="-100" name="L"/>
  <anchor x="580" y="2065" name="U"/>
  <outline>
    <contour>
      <point x="920" y="1144" type="curve"/>
      <point x="958" y="1330" type="line"/>
      <point x="834" y="1390"/>
      <point x="728" y="1416"/>
      <point x="582" y="1416" type="curve" smooth="yes"/>
      <point x="265" y="1416"/>
      <point x="133" y="1191"/>
      <point x="133" y="1029" type="curve" smooth="yes"/>
      <point x="133" y="867"/>
      <point x="198" y="741"/>
      <point x="496" y="652" type="curve" smooth="yes"/>
      <point x="793" y="563"/>
      <point x="839" y="485"/>
      <point x="839" y="385" type="curve" smooth="yes"/>
      <point x="839" y="231"/>
      <point x="697" y="142"/>
      <point x="543" y="142" type="curve" smooth="yes"/>
      <point x="402" y="142"/>
      <point x="264" y="190"/>
      <point x="138" y="299" type="curve"/>
      <point x="95" y="104" type="line"/>
      <point x="192" y="28"/>
      <point x="359" y="-25"/>
      <point x="543" y="-25" type="curve" smooth="yes"/>
      <point x="804" y="-25"/>
      <point x="1020" y="149"/>
      <point x="1020" y="404" type="curve" smooth="yes"/>
      <point x="1020" y="610"/>
      <point x="882" y="726"/>
      <point x="629" y="800" type="curve" smooth="yes"/>
      <point x="357" y="879"/>
      <point x="314" y="939"/>
      <point x="314" y="1043" type="curve" smooth="yes"/>
      <point x="314" y="1148"/>
      <point x="419" y="1249"/>
      <point x="572" y="1249" type="curve" smooth="yes"/>
      <point x="694" y="1249"/>
      <point x="784" y="1219"/>
    </contour>
    <contour>
      <point x="295" y="1935" type="line"/>
      <point x="152" y="1935" type="line"/>
      <point x="477" y="1525" type="line"/>
      <point x="639" y="1525" type="line"/>
      <point x="963" y="1935" type="line"/>
      <point x="820" y="1935" type="line"/>
      <point x="558" y="1668" type="line"/>
    </contour>
  </outline>
</glyph>
<glyph name="Ereversed" format="2">
  <advance width="1108"/>
  <unicode hex="018E"/>
  <anchor x="502" y="1433" name="aboveUC"/>
  <anchor x="490" y="-46" name="belowLC"/>
  <outline>
    <contour>
      <point x="916" y="0" type="line"/>
      <point x="916" y="1386" type="line"/>
      <point x="123" y="1386" type="line"/>
      <point x="123" y="1247" type="line"/>
      <point x="752" y="1247" type="line"/>
      <point x="752" y="800" type="line"/>
      <point x="222" y="800" type="line"/>
      <point x="222" y="658" type="line"/>
      <point x="752" y="658" type="line"/>
      <point x="752" y="139" type="line"/>
      <point x="102" y="139" type="line"/>
      <point x="102" y="0" type="line"/>
    </contour>
  </outline>
</glyph>
<glyph name="Schwa" format="2">
  <advance width="1367"/>
  <unicode hex="018F"/>
  <anchor x="698" y="1431" name="aboveUC"/>
  <anchor x="690" y="-46" name="belowLC"/>
  <outline>
    <contour>
      <point x="690" y="-25" type="curve" smooth="yes"/>
      <point x="1034" y="-25"/>
      <point x="1258" y="219"/>
      <point x="1258" y="696" type="curve" smooth="yes"/>
      <point x="1258" y="1156"/>
      <point x="1038" y="1410"/>
      <point x="686" y="1410" type="curve" smooth="yes"/>
      <point x="474" y="1410"/>
      <point x="320" y="1329"/>
      <point x="204" y="1220" type="curve"/>
      <point x="297" y="1114" type="line"/>
      <point x="394" y="1203"/>
      <point x="517" y="1264"/>
      <point x="679" y="1264" type="curve" smooth="yes"/>
      <point x="935" y="1264"/>
      <point x="1088" y="1063"/>
      <point x="1088" y="696" type="curve" smooth="yes"/>
      <point x="1088" y="312"/>
      <point x="935" y="120"/>
      <point x="690" y="120" type="curve" smooth="yes"/>
      <point x="464" y="120"/>
      <point x="303" y="289"/>
      <point x="299" y="605" type="curve"/>
      <point x="1123" y="605" type="line"/>
      <point x="1123" y="738" type="line"/>
      <point x="126" y="738" type="line"/>
      <point x="124" y="717"/>
      <point x="122" y="692"/>
      <point x="122" y="671" type="curve" smooth="yes"/>
      <point x="122" y="217"/>
      <point x="344" y="-25"/>
    </contour>
  </outline>
</glyph>
<glyph name="LtnSmFHook" format="2">
  <advance width="730"/>
  <unicode hex="0192"/>
  <anchor x="297" y="-500" name="L"/>
  <anchor x="540" y="1635" name="U"/>
  <outline>
    <contour>
      <point x="376" y="-354"/>
      <point x="376" y="2" type="curve" smooth="yes"/>
      <point x="376" y="104"/>
      <point x="378" y="265"/>
      <point x="378" y="450" type="curve" smooth="yes"/>
      <point x="378" y="539"/>
      <point x="378" y="1031"/>
      <point x="378" y="1133" type="curve" smooth="yes"/>
      <point x="378" y="1305"/>
      <point x="431" y="1371"/>
      <point x="530" y="1371" type="curve" smooth="yes"/>
      <point x="586" y="1371"/>
      <point x="649" y="1349"/>
      <point x="696" y="1314" type="curve"/>
      <point x="740" y="1457" type="line"/>
      <point x="681" y="1499"/>
      <point x="605" y="1524"/>
      <point x="530" y="1524" type="curve" smooth="yes"/>
      <point x="324" y="1524"/>
      <point x="201" y="1381"/>
      <point x="201" y="1095" type="curve" smooth="yes"/>
      <point x="201" y="1015"/>
      <point x="201" y="-45"/>
      <point x="201" y="-45" type="curve"/>
      <point x="201" y="-233"/>
      <point x="130" y="-308"/>
      <point x="28" y="-308" type="curve" smooth="yes"/>
      <point x="-26" y="-308"/>
      <point x="-115" y="-282"/>
      <point x="-157" y="-251" type="curve"/>
      <point x="-190" y="-408" type="line"/>
      <point x="-133" y="-447"/>
      <point x="-34" y="-470"/>
      <point x="19" y="-470" type="curve" smooth="yes"/>
      <point x="236" y="-470"/>
    </contour>
    <contour>
      <point x="10" y="928" type="line"/>
      <point x="10" y="789" type="line"/>
      <point x="635" y="789" type="line"/>
      <point x="635" y="928" type="line"/>
    </contour>
  </outline>
</glyph>
<glyph name="LtnCapGamma" format="2">
  <advance width="1365"/>
  <unicode hex="0194"/>
  <anchor x="670" y="-100" name="L"/>
  <anchor x="670" y="1530" name="U"/>
  <outline>
    <contour>
      <point x="1251" y="1392" type="curve"/>
      <point x="1031" y="1392" type="line"/>
      <point x="955" y="1249"/>
      <point x="788" y="973"/>
      <point x="641" y="757" type="curve"/>
      <point x="495" y="973"/>
      <point x="332" y="1249"/>
      <point x="255" y="1392" type="curve"/>
      <point x="35" y="1392" type="line"/>
      <point x="193" y="1136"/>
      <point x="358" y="853"/>
      <point x="536" y="605" type="curve"/>
      <point x="431" y="462"/>
      <point x="355" y="359"/>
      <point x="355" y="242" type="curve" smooth="yes"/>
      <point x="355" y="92"/>
      <point x="480" y="-25"/>
      <point x="641" y="-25" type="curve" smooth="yes"/>
      <point x="798" y="-25"/>
      <point x="932" y="92"/>
      <point x="932" y="242" type="curve" smooth="yes"/>
      <point x="932" y="362"/>
      <point x="868" y="451"/>
      <point x="751" y="609" type="curve"/>
      <point x="935" y="872"/>
      <point x="1095" y="1144"/>
    </contour>
    <contour>
      <point x="755" y="310"/>
      <point x="755" y="252" type="curve" smooth="yes"/>
      <point x="755" y="186"/>
      <point x="715" y="137"/>
      <point x="641" y="137" type="curve" smooth="yes"/>
      <point x="575" y="137"/>
      <point x="531" y="186"/>
      <point x="531" y="252" type="curve" smooth="yes"/>
      <point x="531" y="310"/>
      <point x="573" y="372"/>
      <point x="641" y="462" type="curve"/>
      <point x="709" y="372"/>
    </contour>
  </outline>
</glyph>
<glyph name="ModCircumAccent" format="2">
  <advance width="870"/>
  <unicode hex="02C6"/>
  <outline>
    <contour>
      <point x="10" y="1170" type="line"/>
      <point x="153" y="1170" type="line"/>
      <point x="415" y="1437" type="line"/>
      <point x="678" y="1170" type="line"/>
      <point x="821" y="1170" type="line"/>
      <point x="497" y="1580" type="line"/>
      <point x="334" y="1580" type="line"/>
    </contour>
  </outline>
</glyph>
<glyph name="DblAcuteAccent" format="2">
  <advance width="788"/>
  <unicode hex="02DD"/>
  <outline>
    <contour>
      <point x="571" y="1526" type="line"/>
      <point x="342" y="1097" type="line"/>
      <point x="475" y="1097" type="line"/>
      <point x="771" y="1526" type="line"/>
    </contour>
    <contour>
      <point x="246" y="1526" type="line"/>
      <point x="17" y="1097" type="line"/>
      <point x="151" y="1097" type="line"/>
      <point x="447" y="1526" type="line"/>
    </contour>
  </outline>
</glyph>
<glyph name="CombGrave" format="2">
  <unicode hex="0300"/>
  <anchor x="-550" y="1635" name="U"/>
  <anchor x="-550" y="1100" name="_U"/>
  <outline>
    <contour>
      <point x="-721" y="1580" type="line"/>
      <point x="-940" y="1580" type="line"/>
      <point x="-539" y="1170" type="line"/>
      <point x="-387" y="1170" type="line"/>
    </contour>
  </outline>
</glyph>
<glyph name="gravecmb" format="2">
  <unicode hex="0300"/>
  <anchor x="0" y="1074" name="_aboveLC"/>
  <outline>
    <contour>
      <point x="90" y="1209" type="line"/>
      <point x="173" y="1291" type="line"/>
      <point x="-177" y="1640" type="line"/>
      <point x="-278" y="1532" type="line"/>
    </contour>
  </outline>
</glyph>
<glyph name="CombAcute" format="2">
  <unicode hex="0301"/>
  <anchor x="-570" y="1635" name="U"/>
  <anchor x="-570" y="1100" name="_U"/>
  <outline>
    <contour>
      <point x="-197" y="1580" type="line"/>
      <point x="-416" y="1580" type="line"/>
      <point x="-750" y="1170" type="line"/>
      <point x="-597" y="1170" type="line"/>
    </contour>
  </outline>
</glyph>
<glyph name="acutecmb" format="2">
  <unicode hex="0301"/>
  <anchor x="0" y="1074" name="_aboveLC"/>
  <outline>
    <contour>
      <point x="-90" y="1209" type="line"/>
      <point x="278" y="1532" type="line"/>
      <point x="177" y="1640" type="line"/>
      <point x="-173" y="1291" type="line"/>
    </contour>
  </outline>
</glyph>
<glyph name="CombCircum" format="2">
  <unicode hex="0302"/>
  <anchor x="-570" y="1635" name="U"/>
  <anchor x="-570" y="1100" name="_U"/>
  <outline>
    <contour>
      <point x="-995" y="1170" type="line"/>
      <point x="-852" y="1170" type="line"/>
      <point x="-590" y="1437" type="line"/>
      <point x="-327" y="1170" type="line"/>
      <point x="-184" y="1170" type="line"/>
      <point x="-508" y="1580" type="line"/>
      <point x="-671" y="1580" type="line"/>
    </contour>
  </outline>
</glyph>
<glyph name="circumflexcmb" format="2">
  <unicode hex="0302"/>
  <anchor x="0" y="1074" name="_aboveLC"/>
  <anchor x="0" y="1545" name="aboveLC"/>
  <outline>
    <contour>
      <point x="-251" y="1201" type="line"/>
      <point x="-4" y="1443" type="line"/>
      <point x="4" y="1443" type="line"/>
      <point x="251" y="1201" type="line"/>
      <point x="320" y="1264" type="line"/>
      <point x="80" y="1560" type="line"/>
      <point x="-80" y="1560" type="line"/>
      <point x="-320" y="1264" type="line"/>
    </contour>
  </outline>
</glyph>
<glyph name="tildecomb" format="2">
  <unicode hex="0303"/>
  <anchor x="0" y="1074" name="_aboveLC"/>
  <outline>
    <contour>
      <point x="154" y="1220" type="curve" smooth="yes"/>
      <point x="297" y="1220"/>
      <point x="356" y="1344"/>
      <point x="363" y="1500" type="curve"/>
      <point x="253" y="1509" type="line"/>
      <point x="246" y="1410"/>
      <point x="217" y="1338"/>
      <point x="154" y="1338" type="curve" smooth="yes"/>
      <point x="50" y="1338"/>
      <point x="-2" y="1517"/>
      <point x="-151" y="1517" type="curve" smooth="yes"/>
      <point x="-297" y="1517"/>
      <point x="-356" y="1395"/>
      <point x="-363" y="1234" type="curve"/>
      <point x="-253" y="1228" type="line"/>
      <point x="-246" y="1329"/>
      <point x="-217" y="1399"/>
      <point x="-151" y="1399" type="curve" smooth="yes"/>
      <point x="-50" y="1399"/>
      <point x="2" y="1220"/>
    </contour>
  </outline>
</glyph>
<glyph name="CombDotAbv" format="2">
  <unicode hex="0307"/>
  <anchor x="-570" y="1505" name="U"/>
  <anchor x="-570" y="1100" name="_U"/>
  <outline>
    <contour>
      <point x="-705" y="1419"/>
      <point x="-705" y="1345" type="curve" smooth="yes"/>
      <point x="-705" y="1271"/>
      <point x="-644" y="1210"/>
      <point x="-570" y="1210" type="curve" smooth="yes"/>
      <point x="-496" y="1210"/>
      <point x="-435" y="1271"/>
      <point x="-435" y="1345" type="curve" smooth="yes"/>
      <point x="-435" y="1419"/>
      <point x="-496" y="1480"/>
      <point x="-570" y="1480" type="curve" smooth="yes"/>
      <point x="-644" y="1480"/>
    </contour>
  </outline>
</glyph>
<glyph name="CombDiaer" format="2">
  <unicode hex="0308"/>
  <anchor x="-570" y="1505" name="U"/>
  <anchor x="-570" y="1100" name="_U"/>
  <outline>
    <contour>
      <point x="-509" y="1409"/>
      <point x="-509" y="1339" type="curve" smooth="yes"/>
      <point x="-509" y="1268"/>
      <point x="-456" y="1210"/>
      <point x="-385" y="1210" type="curve" smooth="yes"/>
      <point x="-314" y="1210"/>
      <point x="-261" y="1268"/>
      <point x="-261" y="1339" type="curve" smooth="yes"/>
      <point x="-261" y="1409"/>
      <point x="-314" y="1468"/>
      <point x="-385" y="1468" type="curve" smooth="yes"/>
      <point x="-456" y="1468"/>
    </contour>
    <contour>
      <point x="-910" y="1409"/>
      <point x="-910" y="1339" type="curve" smooth="yes"/>
      <point x="-910" y="1268"/>
      <point x="-857" y="1210"/>
      <point x="-786" y="1210" type="curve" smooth="yes"/>
      <point x="-714" y="1210"/>
      <point x="-662" y="1268"/>
      <point x="-662" y="1339" type="curve" smooth="yes"/>
      <point x="-662" y="1409"/>
      <point x="-714" y="1468"/>
      <point x="-786" y="1468" type="curve" smooth="yes"/>
      <point x="-857" y="1468"/>
    </contour>
  </outline>
</glyph>
<glyph name="hungarumlautcmb" format="2">
  <unicode hex="030B"/>
  <anchor x="0" y="1074" name="_aboveLC"/>
  <outline>
    <contour>
      <point x="-107" y="1199" type="line"/>
      <point x="101" y="1545" type="line"/>
      <point x="-14" y="1604" type="line"/>
      <point x="-198" y="1241" type="line"/>
    </contour>
    <contour>
      <point x="206" y="1199" type="line"/>
      <point x="413" y="1545" type="line"/>
      <point x="299" y="1604" type="line"/>
      <point x="116" y="1241" type="line"/>
    </contour>
  </outline>
</glyph>
<glyph name="cedillacmb" format="2">
  <unicode hex="0327"/>
  <anchor x="0" y="0" name="_baseLC"/>
  <outline>
    <contour>
      <point x="-179" y="-474" type="line"/>
      <point x="37" y="-464"/>
      <point x="162" y="-405"/>
      <point x="162" y="-284" type="curve" smooth="yes"/>
      <point x="162" y="-198"/>
      <point x="103" y="-158"/>
      <point x="8" y="-135" type="curve"/>
      <point x="69" y="6" type="line"/>
      <point x="-37" y="6" type="line"/>
      <point x="-128" y="-185" type="line"/>
      <point x="-8" y="-202"/>
      <point x="33" y="-232"/>
      <point x="33" y="-287" type="curve" smooth="yes"/>
      <point x="33" y="-348"/>
      <point x="-18" y="-382"/>
      <point x="-196" y="-392" type="curve"/>
    </contour>
  </outline>
</glyph>
<glyph name="nonbreakinghyphen" format="2">
  <advance width="652"/>
  <unicode hex="2011"/>
  <outline>
    <contour>
      <point x="86" y="466" type="line"/>
      <point x="567" y="466" type="line"/>
      <point x="567" y="591" type="line"/>
      <point x="86" y="591" type="line"/>
    </contour>
  </outline>
</glyph>
<glyph name="figuredash" format="2">
  <advance width="1042"/>
  <unicode hex="2012"/>
  <outline>
    <contour>
      <point x="86" y="472" type="line"/>
      <point x="958" y="472" type="line"/>
      <point x="958" y="586" type="line"/>
      <point x="86" y="586" type="line"/>
    </contour>
  </outline>
</glyph>
<glyph name="EnDash" format="2">
  <advance width="1055"/>
  <unicode hex="2013"/>
  <outline>
    <contour>
      <point x="80" y="698" type="line"/>
      <point x="80" y="555" type="line"/>
      <point x="934" y="555" type="line"/>
      <point x="934" y="698" type="line"/>
    </contour>
  </outline>
</glyph>
<glyph name="EmDash" format="2">
  <advance width="1735"/>
  <unicode hex="2014"/>
  <outline>
    <contour>
      <point x="80" y="698" type="line"/>
      <point x="80" y="555" type="line"/>
      <point x="1583" y="555" type="line"/>
      <point x="1583" y="698" type="line"/>
    </contour>
  </outline>
</glyph>
<glyph name="RtSglQuotMrk" format="2">
  <advance width="545"/>
  <unicode hex="2019"/>
  <outline>
    <contour>
      <point x="165" y="1466" type="curve"/>
      <point x="165" y="1370" type="line"/>
      <point x="299" y="1370" type="line"/>
      <point x="299" y="1274"/>
      <point x="225" y="1158"/>
      <point x="170" y="1103" type="curve"/>
      <point x="265" y="1065" type="line"/>
      <point x="377" y="1170"/>
      <point x="432" y="1287"/>
      <point x="432" y="1404" type="curve" smooth="yes"/>
      <point x="432" y="1500"/>
      <point x="370" y="1561"/>
      <point x="294" y="1561" type="curve" smooth="yes"/>
      <point x="239" y="1561"/>
      <point x="177" y="1526"/>
    </contour>
  </outline>
</glyph>
<glyph name="Dagger" format="2">
  <advance width="1025"/>
  <unicode hex="2020"/>
  <outline>
    <contour>
      <point x="564" y="509"/>
      <point x="564" y="786" type="curve" smooth="yes"/>
      <point x="564" y="966"/>
      <point x="564" y="1227"/>
      <point x="583" y="1430" type="curve"/>
      <point x="397" y="1430" type="line"/>
      <point x="416" y="1227"/>
      <point x="416" y="966"/>
      <point x="416" y="786" type="curve" smooth="yes"/>
      <point x="416" y="509"/>
      <point x="416" y="179"/>
      <point x="397" y="-235" type="curve"/>
      <point x="583" y="-235" type="line"/>
      <point x="564" y="179"/>
    </contour>
    <contour>
      <point x="747" y="860"/>
      <point x="951" y="852" type="curve"/>
      <point x="951" y="1009" type="line"/>
      <point x="747" y="1000"/>
      <point x="673" y="1000"/>
      <point x="493" y="1000" type="curve" smooth="yes"/>
      <point x="355" y="1000"/>
      <point x="233" y="1000"/>
      <point x="30" y="1009" type="curve"/>
      <point x="30" y="852" type="line"/>
      <point x="233" y="860"/>
      <point x="355" y="862"/>
      <point x="493" y="862" type="curve" smooth="yes"/>
      <point x="630" y="862"/>
    </contour>
  </outline>
</glyph>
<glyph name="dagger" format="2">
  <advance width="947"/>
  <unicode hex="2020"/>
  <outline>
    <contour>
      <point x="403" y="-168" type="line"/>
      <point x="544" y="-168" type="line"/>
      <point x="534" y="1047" type="line"/>
      <point x="831" y="1036" type="line"/>
      <point x="831" y="1175" type="line"/>
      <point x="534" y="1167" type="line"/>
      <point x="544" y="1503" type="line"/>
      <point x="403" y="1503" type="line"/>
      <point x="413" y="1167" type="line"/>
      <point x="116" y="1175" type="line"/>
      <point x="116" y="1036" type="line"/>
      <point x="413" y="1047" type="line"/>
    </contour>
  </outline>
</glyph>
<glyph name="Bullet" format="2">
  <advance width="940"/>
  <unicode hex="2022"/>
  <outline>
    <contour>
      <point x="250" y="837"/>
      <point x="250" y="723" type="curve" smooth="yes"/>
      <point x="250" y="608"/>
      <point x="344" y="512"/>
      <point x="459" y="512" type="curve" smooth="yes"/>
      <point x="573" y="512"/>
      <point x="670" y="608"/>
      <point x="670" y="723" type="curve" smooth="yes"/>
      <point x="670" y="837"/>
      <point x="573" y="932"/>
      <point x="459" y="932" type="curve" smooth="yes"/>
      <point x="344" y="932"/>
    </contour>
  </outline>
</glyph>
<glyph name="bullet" format="2">
  <advance width="635"/>
  <unicode hex="2022"/>
  <outline>
    <contour>
      <point x="316" y="303" type="curve" smooth="yes"/>
      <point x="441" y="303"/>
      <point x="550" y="405"/>
      <point x="550" y="555" type="curve" smooth="yes"/>
      <point x="550" y="705"/>
      <point x="441" y="808"/>
      <point x="316" y="808" type="curve" smooth="yes"/>
      <point x="194" y="808"/>
      <point x="84" y="705"/>
      <point x="84" y="555" type="curve" smooth="yes"/>
      <point x="84" y="405"/>
      <point x="194" y="303"/>
    </contour>
  </outline>
</glyph>
<glyph name="HorizEllipsis" format="2">
  <advance width="1724"/>
  <unicode hex="2026"/>
  <outline>
    <contour>
      <point x="185" y="174"/>
      <point x="185" y="104" type="curve" smooth="yes"/>
      <point x="185" y="33"/>
      <point x="243" y="-25"/>
      <point x="314" y="-25" type="curve" smooth="yes"/>
      <point x="384" y="-25"/>
      <point x="443" y="33"/>
      <point x="443" y="104" type="curve" smooth="yes"/>
      <point x="443" y="174"/>
      <point x="384" y="233"/>
      <point x="314" y="233" type="curve" smooth="yes"/>
      <point x="243" y="233"/>
    </contour>
    <contour>
      <point x="700" y="174"/>
      <point x="700" y="104" type="curve" smooth="yes"/>
      <point x="700" y="33"/>
      <point x="758" y="-25"/>
      <point x="829" y="-25" type="curve" smooth="yes"/>
      <point x="900" y="-25"/>
      <point x="958" y="33"/>
      <point x="958" y="104" type="curve" smooth="yes"/>
      <point x="958" y="174"/>
      <point x="900" y="233"/>
      <point x="829" y="233" type="curve" smooth="yes"/>
      <point x="758" y="233"/>
    </contour>
    <contour>
      <point x="1220" y="174"/>
      <point x="1220" y="104" type="curve" smooth="yes"/>
      <point x="1220" y="33"/>
      <point x="1278" y="-25"/>
      <point x="1349" y="-25" type="curve" smooth="yes"/>
      <point x="1419" y="-25"/>
      <point x="1478" y="33"/>
      <point x="1478" y="104" type="curve" smooth="yes"/>
      <point x="1478" y="174"/>
      <point x="1419" y="233"/>
      <point x="1349" y="233" type="curve" smooth="yes"/>
      <point x="1278" y="233"/>
    </contour>
  </outline>
</glyph>
<glyph name="EuroSgn" format="2">
  <advance width="1200"/>
  <unicode hex="20AC"/>
  <outline>
    <contour>
      <point x="1084" y="123" type="curve"/>
      <point x="1046" y="309" type="line"/>
      <point x="944" y="208"/>
      <point x="839" y="142"/>
      <point x="721" y="142" type="curve" smooth="yes"/>
      <point x="494" y="142"/>
      <point x="354" y="367"/>
      <point x="354" y="700" type="curve" smooth="yes"/>
      <point x="354" y="1058"/>
      <point x="524" y="1251"/>
      <point x="712" y="1251" type="curve" smooth="yes"/>
      <point x="821" y="1251"/>
      <point x="903" y="1222"/>
      <point x="1017" y="1120" type="curve"/>
      <point x="1074" y="1292" type="line"/>
      <point x="944" y="1388"/>
      <point x="860" y="1416"/>
      <point x="731" y="1416" type="curve" smooth="yes"/>
      <point x="429" y="1416"/>
      <point x="173" y="1168"/>
      <point x="173" y="676" type="curve" smooth="yes"/>
      <point x="173" y="247"/>
      <point x="372" y="-25"/>
      <point x="693" y="-25" type="curve" smooth="yes"/>
      <point x="850" y="-25"/>
      <point x="979" y="25"/>
    </contour>
    <contour>
      <point x="58" y="643" type="line"/>
      <point x="20" y="504" type="line"/>
      <point x="715" y="504" type="line"/>
      <point x="753" y="643" type="line"/>
    </contour>
    <contour>
      <point x="58" y="900" type="line"/>
      <point x="20" y="762" type="line"/>
      <point x="779" y="762" type="line"/>
      <point x="818" y="900" type="line"/>
    </contour>
  </outline>
</glyph>
<glyph name="TradeMrkSgn" format="2">
  <advance width="1665"/>
  <unicode hex="2122"/>
  <outline>
    <contour>
      <point x="1313" y="1423" type="line"/>
      <point x="1087" y="765" type="line"/>
      <point x="861" y="1423" type="line"/>
      <point x="740" y="1423" type="line"/>
      <point x="740" y="1423"/>
      <point x="717" y="761"/>
      <point x="704" y="657" type="curve"/>
      <point x="804" y="657" type="line"/>
      <point x="819" y="1278" type="line"/>
      <point x="1035" y="657" type="line"/>
      <point x="1139" y="657" type="line"/>
      <point x="1353" y="1277" type="line"/>
      <point x="1368" y="657" type="line"/>
      <point x="1467" y="657" type="line"/>
      <point x="1452" y="761"/>
      <point x="1431" y="1423"/>
      <point x="1431" y="1423" type="curve"/>
    </contour>
    <contour>
      <point x="666" y="1423" type="line"/>
      <point x="60" y="1423" type="line"/>
      <point x="60" y="1323" type="line"/>
      <point x="102" y="1332"/>
      <point x="142" y="1334"/>
      <point x="188" y="1334" type="curve" smooth="yes"/>
      <point x="312" y="1334" type="line"/>
      <point x="312" y="885" type="line" smooth="yes"/>
      <point x="312" y="782"/>
      <point x="310" y="699"/>
      <point x="301" y="657" type="curve"/>
      <point x="424" y="657" type="line"/>
      <point x="416" y="699"/>
      <point x="414" y="782"/>
      <point x="414" y="885" type="curve" smooth="yes"/>
      <point x="414" y="1334" type="line"/>
      <point x="537" y="1334" type="line" smooth="yes"/>
      <point x="585" y="1334"/>
      <point x="624" y="1332"/>
      <point x="666" y="1323" type="curve"/>
    </contour>
  </outline>
</glyph>
<glyph name="Omega" format="2">
  <advance width="1427"/>
  <unicode hex="2126"/>
  <anchor x="711" y="-46" name="belowLC"/>
  <outline>
    <contour>
      <point x="94" y="0" type="line"/>
      <point x="582" y="0" type="line"/>
      <point x="582" y="120" type="line"/>
      <point x="420" y="242"/>
      <point x="293" y="434"/>
      <point x="293" y="730" type="curve" smooth="yes"/>
      <point x="293" y="1036"/>
      <point x="449" y="1266"/>
      <point x="713" y="1266" type="curve" smooth="yes"/>
      <point x="977" y="1266"/>
      <point x="1131" y="1036"/>
      <point x="1131" y="730" type="curve" smooth="yes"/>
      <point x="1131" y="434"/>
      <point x="1004" y="242"/>
      <point x="844" y="120" type="curve"/>
      <point x="844" y="0" type="line"/>
      <point x="1329" y="0" type="line"/>
      <point x="1329" y="135" type="line"/>
      <point x="1049" y="135" type="line"/>
      <point x="1049" y="143" type="line"/>
      <point x="1171" y="261"/>
      <point x="1302" y="455"/>
      <point x="1302" y="738" type="curve" smooth="yes"/>
      <point x="1302" y="1127"/>
      <point x="1070" y="1412"/>
      <point x="713" y="1412" type="curve" smooth="yes"/>
      <point x="356" y="1412"/>
      <point x="124" y="1127"/>
      <point x="124" y="738" type="curve" smooth="yes"/>
      <point x="124" y="455"/>
      <point x="253" y="261"/>
      <point x="375" y="143" type="curve"/>
      <point x="375" y="135" type="line"/>
      <point x="94" y="135" type="line"/>
    </contour>
  </outline>
</glyph>
<glyph name="Delta" format="2">
  <advance width="1232"/>
  <unicode hex="2206"/>
  <outline>
    <contour>
      <point x="61" y="0" type="line"/>
      <point x="1169" y="0" type="line"/>
      <point x="1169" y="97" type="line"/>
      <point x="709" y="1386" type="line"/>
      <point x="521" y="1386" type="line"/>
      <point x="61" y="97" type="line"/>
    </contour>
    <contour>
      <point x="240" y="139" type="line"/>
      <point x="462" y="787" type="line"/>
      <point x="610" y="1234" type="line"/>
      <point x="618" y="1234" type="line"/>
      <point x="766" y="787" type="line"/>
      <point x="987" y="139" type="line"/>
    </contour>
  </outline>
</glyph>
<glyph name="Increment" format="2">
  <advance width="1395"/>
  <unicode hex="2206"/>
  <outline>
    <contour>
      <point x="795" y="1460" type="line"/>
      <point x="580" y="1460" type="line"/>
      <point x="70" y="145" type="line"/>
      <point x="70" y="0" type="line"/>
      <point x="1305" y="0" type="line"/>
      <point x="1305" y="145" type="line"/>
    </contour>
    <contour>
      <point x="246" y="84" type="line"/>
      <point x="715" y="1345" type="line"/>
      <point x="655" y="1345" type="line"/>
      <point x="1128" y="85" type="line"/>
      <point x="1184" y="165" type="line"/>
      <point x="190" y="165" type="line"/>
    </contour>
  </outline>
</glyph>
<glyph name="product" format="2">
  <advance width="1414"/>
  <unicode hex="220F"/>
  <outline>
    <contour>
      <point x="187" y="-253" type="line"/>
      <point x="352" y="-253" type="line"/>
      <point x="352" y="1203" type="line"/>
      <point x="1057" y="1203" type="line"/>
      <point x="1057" y="-253" type="line"/>
      <point x="1226" y="-253" type="line"/>
      <point x="1226" y="1346" type="line"/>
      <point x="187" y="1346" type="line"/>
    </contour>
  </outline>
</glyph>
<glyph name="TifLtrYa" format="2">
  <advance width="756"/>
  <unicode hex="2D30"/>
  <outline>
    <contour>
      <point x="220" y="785"/>
      <point x="220" y="697" type="curve" smooth="yes"/>
      <point x="220" y="609"/>
      <point x="290" y="539"/>
      <point x="378" y="539" type="curve" smooth="yes"/>
      <point x="466" y="539"/>
      <point x="536" y="609"/>
      <point x="536" y="697" type="curve" smooth="yes"/>
      <point x="536" y="785"/>
      <point x="466" y="855"/>
      <point x="378" y="855" type="curve" smooth="yes"/>
      <point x="290" y="855"/>
    </contour>
  </outline>
</glyph>
<glyph name="yab-tifi" format="2">
  <advance width="1438"/>
  <unicode hex="2D31"/>
  <anchor x="717" y="1393" name="T"/>
  <outline>
    <contour>
      <point x="719" y="1420" type="curve" smooth="yes"/>
      <point x="377" y="1420"/>
      <point x="84" y="1072"/>
      <point x="84" y="675" type="curve" smooth="yes"/>
      <point x="84" y="278"/>
      <point x="357" y="-30"/>
      <point x="699" y="-30" type="curve" smooth="yes"/>
      <point x="1041" y="-30"/>
      <point x="1338" y="318"/>
      <point x="1338" y="715" type="curve" smooth="yes"/>
      <point x="1338" y="1112"/>
      <point x="1061" y="1420"/>
    </contour>
    <contour>
      <point x="691" y="1292" type="curve" smooth="yes"/>
      <point x="919" y="1292"/>
      <point x="1126" y="1055"/>
      <point x="1162" y="767" type="curve"/>
      <point x="1098" y="770"/>
      <point x="1023" y="770"/>
      <point x="942" y="770" type="curve" smooth="yes"/>
      <point x="702" y="770"/>
      <point x="689" y="761"/>
      <point x="469" y="761" type="curve" smooth="yes"/>
      <point x="331" y="761"/>
      <point x="288" y="762"/>
      <point x="255" y="762" type="curve"/>
      <point x="271" y="1066"/>
      <point x="451" y="1292"/>
    </contour>
    <contour>
      <point x="731" y="102" type="curve" smooth="yes"/>
      <point x="503" y="102"/>
      <point x="298" y="338"/>
      <point x="260" y="624" type="curve"/>
      <point x="320" y="621"/>
      <point x="386" y="621"/>
      <point x="469" y="621" type="curve" smooth="yes"/>
      <point x="689" y="621"/>
      <point x="702" y="630"/>
      <point x="942" y="630" type="curve" smooth="yes"/>
      <point x="1071" y="630"/>
      <point x="1129" y="629"/>
      <point x="1167" y="629" type="curve"/>
      <point x="1149" y="327"/>
      <point x="971" y="102"/>
    </contour>
  </outline>
</glyph>
<glyph name="yag-tifi" format="2">
  <advance width="1093"/>
  <unicode hex="2D33"/>
  <anchor x="555" y="1393" name="T"/>
  <outline>
    <contour>
      <point x="211" y="-12" type="curve" smooth="yes"/>
      <point x="253" y="-12"/>
      <point x="316" y="17"/>
      <point x="324" y="66" type="curve" smooth="yes"/>
      <point x="387" y="454"/>
      <point x="993" y="978"/>
      <point x="993" y="1325" type="curve" smooth="yes"/>
      <point x="993" y="1367"/>
      <point x="978" y="1393"/>
      <point x="925" y="1393" type="curve" smooth="yes"/>
      <point x="168" y="1393" type="line" smooth="yes"/>
      <point x="112" y="1393"/>
      <point x="100" y="1369"/>
      <point x="100" y="1318" type="curve" smooth="yes"/>
      <point x="100" y="1050"/>
      <point x="730" y="316"/>
      <point x="790" y="30" type="curve" smooth="yes"/>
      <point x="798" y="-7"/>
      <point x="811" y="-11"/>
      <point x="837" y="-11" type="curve" smooth="yes"/>
      <point x="893" y="-11"/>
      <point x="956" y="44"/>
      <point x="956" y="84" type="curve" smooth="yes"/>
      <point x="956" y="320"/>
      <point x="297" y="1135"/>
      <point x="293" y="1253" type="curve"/>
      <point x="468" y="1253"/>
      <point x="644" y="1253"/>
      <point x="821" y="1253" type="curve"/>
      <point x="787" y="985"/>
      <point x="156" y="297"/>
      <point x="156" y="33" type="curve" smooth="yes"/>
      <point x="156" y="4"/>
      <point x="169" y="-12"/>
    </contour>
  </outline>
</glyph>
<glyph name="yajBerberAcademy-tifi" format="2">
  <advance width="1093"/>
  <unicode hex="2D35"/>
  <anchor x="555" y="1393" name="T"/>
  <outline>
    <contour>
      <point x="798" y="1253" type="curve"/>
      <point x="317" y="1253" type="line"/>
      <point x="326" y="1125"/>
      <point x="993" y="365"/>
      <point x="993" y="75" type="curve" smooth="yes"/>
      <point x="993" y="24"/>
      <point x="981" y="0"/>
      <point x="925" y="0" type="curve" smooth="yes"/>
      <point x="168" y="0" type="line" smooth="yes"/>
      <point x="115" y="0"/>
      <point x="100" y="26"/>
      <point x="100" y="58" type="curve" smooth="yes"/>
      <point x="100" y="442"/>
      <point x="671" y="864"/>
    </contour>
    <contour>
      <point x="178" y="1393" type="curve" smooth="yes"/>
      <point x="915" y="1393" type="line" smooth="yes"/>
      <point x="968" y="1393"/>
      <point x="983" y="1367"/>
      <point x="983" y="1325" type="curve" smooth="yes"/>
      <point x="983" y="1046"/>
      <point x="314" y="471"/>
      <point x="272" y="140" type="curve"/>
      <point x="449" y="140"/>
      <point x="625" y="140"/>
      <point x="802" y="140" type="curve"/>
      <point x="750" y="367"/>
      <point x="110" y="1081"/>
      <point x="110" y="1318" type="curve" smooth="yes"/>
      <point x="110" y="1369"/>
      <point x="122" y="1393"/>
    </contour>
  </outline>
</glyph>
<glyph name="yad-tifi" format="2">
  <advance width="1322"/>
  <unicode hex="2D37"/>
  <anchor x="699" y="1393" name="T"/>
  <outline>
    <contour>
      <point x="754" y="1405"/>
      <point x="720" y="1405" type="curve" smooth="yes"/>
      <point x="680" y="1405"/>
      <point x="637" y="1376"/>
      <point x="610" y="1339" type="curve" smooth="yes"/>
      <point x="350" y="984"/>
      <point x="100" y="237"/>
      <point x="100" y="12" type="curve" smooth="yes"/>
      <point x="100" y="-12"/>
      <point x="117" y="-30"/>
      <point x="146" y="-30" type="curve" smooth="yes"/>
      <point x="192" y="-30"/>
      <point x="265" y="9"/>
      <point x="270" y="46" type="curve" smooth="yes"/>
      <point x="321" y="418"/>
      <point x="481" y="859"/>
      <point x="698" y="1224" type="curve"/>
      <point x="645" y="1213" type="line"/>
      <point x="818" y="954"/>
      <point x="981" y="277"/>
      <point x="1017" y="74" type="curve" smooth="yes"/>
      <point x="1028" y="10"/>
      <point x="1074" y="-19"/>
      <point x="1112" y="-19" type="curve" smooth="yes"/>
      <point x="1168" y="-19"/>
      <point x="1222" y="10"/>
      <point x="1222" y="56" type="curve" smooth="yes"/>
      <point x="1222" y="77"/>
      <point x="1198" y="87"/>
      <point x="1184" y="149" type="curve" smooth="yes"/>
      <point x="1062" y="683"/>
      <point x="972" y="981"/>
      <point x="805" y="1307" type="curve" smooth="yes"/>
      <point x="767" y="1381"/>
    </contour>
  </outline>
</glyph>
<glyph name="yadh-tifi" format="2">
  <advance width="1336"/>
  <unicode hex="2D38"/>
  <anchor x="702" y="1393" name="T"/>
  <outline>
    <contour>
      <point x="267" y="1381" type="curve" smooth="yes"/>
      <point x="267" y="1400"/>
      <point x="237" y="1408"/>
      <point x="216" y="1408" type="curve" smooth="yes"/>
      <point x="165" y="1408"/>
      <point x="100" y="1370"/>
      <point x="100" y="1313" type="curve" smooth="yes"/>
      <point x="100" y="1030"/>
      <point x="473" y="431"/>
      <point x="581" y="4" type="curve" smooth="yes"/>
      <point x="586" y="-14"/>
      <point x="602" y="-30"/>
      <point x="626" y="-30" type="curve" smooth="yes"/>
      <point x="661" y="-30"/>
      <point x="705" y="-19"/>
      <point x="735" y="29" type="curve" smooth="yes"/>
      <point x="1072" y="569"/>
      <point x="1236" y="1103"/>
      <point x="1236" y="1324" type="curve" smooth="yes"/>
      <point x="1236" y="1375"/>
      <point x="1215" y="1407"/>
      <point x="1163" y="1407" type="curve" smooth="yes"/>
      <point x="1111" y="1407"/>
      <point x="1058" y="1345"/>
      <point x="1058" y="1314" type="curve" smooth="yes"/>
      <point x="1058" y="1298"/>
      <point x="1066" y="1289"/>
      <point x="1066" y="1255" type="curve" smooth="yes"/>
      <point x="1066" y="1020"/>
      <point x="838" y="462"/>
      <point x="673" y="194" type="curve"/>
      <point x="710" y="194" type="line"/>
      <point x="635" y="494"/>
      <point x="267" y="1098"/>
    </contour>
  </outline>
</glyph>
<glyph name="yey-tifi" format="2">
  <advance width="1413"/>
  <unicode hex="2D3B"/>
  <outline>
    <component base="_HorizontalBar" xOffset="-36" yOffset="4"/>
    <contour>
      <point x="678" y="930" type="curve" smooth="yes"/>
      <point x="827" y="930"/>
      <point x="968" y="1013"/>
      <point x="968" y="1212" type="curve" smooth="yes"/>
      <point x="968" y="1301"/>
      <point x="881" y="1420"/>
      <point x="735" y="1420" type="curve" smooth="yes"/>
      <point x="525" y="1420"/>
      <point x="433" y="1309"/>
      <point x="433" y="1163" type="curve"/>
      <point x="433" y="994"/>
      <point x="576" y="930"/>
    </contour>
    <contour>
      <point x="742" y="1052" type="curve" smooth="yes"/>
      <point x="674" y="1052"/>
      <point x="570" y="1097"/>
      <point x="570" y="1186" type="curve" smooth="yes"/>
      <point x="570" y="1224"/>
      <point x="585" y="1255"/>
      <point x="604" y="1289" type="curve"/>
      <point x="622" y="1295"/>
      <point x="646" y="1298"/>
      <point x="672" y="1298" type="curve" smooth="yes"/>
      <point x="810" y="1298"/>
      <point x="834" y="1208"/>
      <point x="834" y="1146" type="curve" smooth="yes"/>
      <point x="834" y="1096"/>
      <point x="811" y="1052"/>
    </contour>
    <contour>
      <point x="730" y="84" type="curve" smooth="yes"/>
      <point x="676" y="84"/>
      <point x="619" y="111"/>
      <point x="588" y="133" type="curve"/>
      <point x="573" y="167"/>
      <point x="568" y="204"/>
      <point x="568" y="244" type="curve" smooth="yes"/>
      <point x="568" y="307"/>
      <point x="612" y="338"/>
      <point x="684" y="338" type="curve" smooth="yes"/>
      <point x="755" y="338"/>
      <point x="824" y="291"/>
      <point x="824" y="203" type="curve" smooth="yes"/>
      <point x="824" y="127"/>
      <point x="795" y="84"/>
    </contour>
    <contour>
      <point x="674" y="-30" type="curve" smooth="yes"/>
      <point x="859" y="-30"/>
      <point x="968" y="92"/>
      <point x="968" y="241" type="curve" smooth="yes"/>
      <point x="968" y="360"/>
      <point x="862" y="460"/>
      <point x="738" y="460" type="curve" smooth="yes"/>
      <point x="614" y="460"/>
      <point x="440" y="380"/>
      <point x="440" y="187" type="curve" smooth="yes"/>
      <point x="440" y="54"/>
      <point x="511" y="-30"/>
    </contour>
  </outline>
</glyph>
<glyph name="yaf-tifi" format="2">
  <advance width="1416"/>
  <unicode hex="2D3C"/>
  <anchor x="705" y="1393" name="T"/>
  <outline>
    <contour>
      <point x="1306" y="1312" type="curve" smooth="yes"/>
      <point x="1306" y="1376"/>
      <point x="1260" y="1394"/>
      <point x="1183" y="1394" type="curve" smooth="yes"/>
      <point x="1118" y="1394"/>
      <point x="1047" y="1393"/>
      <point x="1036" y="1393" type="curve" smooth="yes"/>
      <point x="1029" y="1393"/>
      <point x="1024" y="1393"/>
      <point x="937" y="1393" type="curve" smooth="yes"/>
      <point x="845" y="1393"/>
      <point x="792" y="1355"/>
      <point x="792" y="1269" type="curve" smooth="yes"/>
      <point x="792" y="1197"/>
      <point x="788" y="1107"/>
      <point x="788" y="1013" type="curve" smooth="yes"/>
      <point x="788" y="733"/>
      <point x="803" y="664"/>
      <point x="803" y="384" type="curve" smooth="yes"/>
      <point x="803" y="221"/>
      <point x="802" y="169"/>
      <point x="802" y="125" type="curve" smooth="yes"/>
      <point x="802" y="39"/>
      <point x="855" y="1"/>
      <point x="947" y="1" type="curve" smooth="yes"/>
      <point x="1018" y="1"/>
      <point x="1028" y="1"/>
      <point x="1038" y="1" type="curve" smooth="yes"/>
      <point x="1049" y="1"/>
      <point x="1110" y="0"/>
      <point x="1193" y="0" type="curve" smooth="yes"/>
      <point x="1270" y="0"/>
      <point x="1316" y="18"/>
      <point x="1316" y="82" type="curve" smooth="yes"/>
      <point x="1316" y="118"/>
      <point x="1302" y="146"/>
      <point x="1271" y="146" type="curve" smooth="yes"/>
      <point x="1238" y="146"/>
      <point x="1236" y="137"/>
      <point x="1189" y="137" type="curve" smooth="yes"/>
      <point x="1137" y="137"/>
      <point x="1023" y="137"/>
      <point x="969" y="142" type="curve"/>
      <point x="973" y="211"/>
      <point x="973" y="295"/>
      <point x="973" y="384" type="curve" smooth="yes"/>
      <point x="973" y="611"/>
      <point x="956" y="820"/>
      <point x="956" y="1072" type="curve" smooth="yes"/>
      <point x="956" y="1130"/>
      <point x="957" y="1189"/>
      <point x="959" y="1252" type="curve"/>
      <point x="1013" y="1257"/>
      <point x="1127" y="1257"/>
      <point x="1179" y="1257" type="curve" smooth="yes"/>
      <point x="1226" y="1257"/>
      <point x="1228" y="1248"/>
      <point x="1261" y="1248" type="curve" smooth="yes"/>
      <point x="1292" y="1248"/>
      <point x="1306" y="1276"/>
    </contour>
    <contour>
      <point x="110" y="82" type="curve" smooth="yes"/>
      <point x="110" y="18"/>
      <point x="156" y="0"/>
      <point x="233" y="0" type="curve" smooth="yes"/>
      <point x="294" y="0"/>
      <point x="366" y="1"/>
      <point x="378" y="1" type="curve" smooth="yes"/>
      <point x="385" y="1"/>
      <point x="388" y="1"/>
      <point x="479" y="1" type="curve" smooth="yes"/>
      <point x="571" y="1"/>
      <point x="624" y="39"/>
      <point x="624" y="125" type="curve" smooth="yes"/>
      <point x="624" y="197"/>
      <point x="628" y="287"/>
      <point x="628" y="381" type="curve" smooth="yes"/>
      <point x="628" y="661"/>
      <point x="613" y="730"/>
      <point x="613" y="1010" type="curve" smooth="yes"/>
      <point x="613" y="1173"/>
      <point x="614" y="1225"/>
      <point x="614" y="1269" type="curve" smooth="yes"/>
      <point x="614" y="1355"/>
      <point x="561" y="1393"/>
      <point x="469" y="1393" type="curve" smooth="yes"/>
      <point x="385" y="1393"/>
      <point x="381" y="1393"/>
      <point x="372" y="1393" type="curve" smooth="yes"/>
      <point x="361" y="1393"/>
      <point x="291" y="1394"/>
      <point x="223" y="1394" type="curve" smooth="yes"/>
      <point x="146" y="1394"/>
      <point x="100" y="1376"/>
      <point x="100" y="1312" type="curve" smooth="yes"/>
      <point x="100" y="1276"/>
      <point x="114" y="1248"/>
      <point x="145" y="1248" type="curve" smooth="yes"/>
      <point x="178" y="1248"/>
      <point x="180" y="1257"/>
      <point x="227" y="1257" type="curve" smooth="yes"/>
      <point x="279" y="1257"/>
      <point x="393" y="1257"/>
      <point x="447" y="1252" type="curve"/>
      <point x="443" y="1183"/>
      <point x="443" y="1099"/>
      <point x="443" y="1010" type="curve" smooth="yes"/>
      <point x="443" y="783"/>
      <point x="460" y="574"/>
      <point x="460" y="322" type="curve" smooth="yes"/>
      <point x="460" y="264"/>
      <point x="459" y="205"/>
      <point x="457" y="142" type="curve"/>
      <point x="403" y="137"/>
      <point x="289" y="137"/>
      <point x="237" y="137" type="curve" smooth="yes"/>
      <point x="190" y="137"/>
      <point x="188" y="146"/>
      <point x="155" y="146" type="curve" smooth="yes"/>
      <point x="124" y="146"/>
      <point x="110" y="118"/>
    </contour>
  </outline>
</glyph>
<glyph name="yak-tifi" format="2">
  <advance width="1148"/>
  <unicode hex="2D3D"/>
  <anchor x="606" y="1393" name="T"/>
  <outline>
    <contour>
      <point x="268" y="0" type="curve" smooth="yes"/>
      <point x="319" y="0"/>
      <point x="381" y="27"/>
      <point x="422" y="97" type="curve" smooth="yes"/>
      <point x="489" y="212"/>
      <point x="604" y="414"/>
      <point x="713" y="631" type="curve" smooth="yes"/>
      <point x="837" y="878"/>
      <point x="916" y="1030"/>
      <point x="965" y="1118" type="curve" smooth="yes"/>
      <point x="1008" y="1195"/>
      <point x="1058" y="1289"/>
      <point x="1058" y="1320" type="curve" smooth="yes"/>
      <point x="1058" y="1361"/>
      <point x="1020" y="1385"/>
      <point x="972" y="1389" type="curve" smooth="yes"/>
      <point x="936" y="1392"/>
      <point x="891" y="1393"/>
      <point x="846" y="1393" type="curve" smooth="yes"/>
      <point x="794" y="1393"/>
      <point x="728" y="1391"/>
      <point x="668" y="1391" type="curve" smooth="yes"/>
      <point x="620" y="1391"/>
      <point x="572" y="1389"/>
      <point x="475" y="1389" type="curve" smooth="yes"/>
      <point x="401" y="1389"/>
      <point x="397" y="1386"/>
      <point x="318" y="1386" type="curve" smooth="yes"/>
      <point x="264" y="1386"/>
      <point x="211" y="1345"/>
      <point x="207" y="1297" type="curve" smooth="yes"/>
      <point x="200" y="1219"/>
      <point x="200" y="1125"/>
      <point x="200" y="1013" type="curve" smooth="yes"/>
      <point x="200" y="733"/>
      <point x="210" y="660"/>
      <point x="210" y="380" type="curve" smooth="yes"/>
      <point x="210" y="244"/>
      <point x="207" y="182"/>
      <point x="207" y="76" type="curve" smooth="yes"/>
      <point x="207" y="16"/>
      <point x="234" y="0"/>
    </contour>
    <contour>
      <point x="380" y="380" type="curve" smooth="yes"/>
      <point x="380" y="660"/>
      <point x="370" y="733"/>
      <point x="370" y="1013" type="curve" smooth="yes"/>
      <point x="370" y="1177"/>
      <point x="370" y="1208"/>
      <point x="370" y="1247" type="curve"/>
      <point x="416" y="1247"/>
      <point x="467" y="1249"/>
      <point x="527" y="1249" type="curve" smooth="yes"/>
      <point x="575" y="1249"/>
      <point x="623" y="1251"/>
      <point x="720" y="1251" type="curve" smooth="yes"/>
      <point x="804" y="1251"/>
      <point x="843" y="1254"/>
      <point x="870" y="1254" type="curve"/>
      <point x="828" y="1179"/>
      <point x="725" y="985"/>
      <point x="625" y="788" type="curve" smooth="yes"/>
      <point x="490" y="521"/>
      <point x="344" y="240"/>
      <point x="275" y="113" type="curve"/>
      <point x="373" y="113" type="line"/>
      <point x="380" y="167"/>
      <point x="380" y="268"/>
    </contour>
    <contour>
      <point x="969" y="0" type="curve" smooth="yes"/>
      <point x="1008" y="0"/>
      <point x="1066" y="44"/>
      <point x="1066" y="91" type="curve" smooth="yes"/>
      <point x="1066" y="130"/>
      <point x="999" y="251"/>
      <point x="913" y="406" type="curve" smooth="yes"/>
      <point x="828" y="560"/>
      <point x="764" y="670"/>
      <point x="691" y="792" type="curve"/>
      <point x="584" y="632" type="line"/>
      <point x="638" y="539"/>
      <point x="691" y="446"/>
      <point x="758" y="325" type="curve" smooth="yes"/>
      <point x="837" y="183"/>
      <point x="864" y="132"/>
      <point x="882" y="98" type="curve" smooth="yes"/>
      <point x="900" y="64"/>
      <point x="903" y="51"/>
      <point x="910" y="38" type="curve" smooth="yes"/>
      <point x="927" y="6"/>
      <point x="942" y="0"/>
    </contour>
  </outline>
</glyph>
<glyph name="yakhh-tifi" format="2">
  <advance width="1148"/>
  <unicode hex="2D3F"/>
  <anchor x="616" y="1393" name="T"/>
  <outline>
    <contour>
      <point x="444" y="1308" type="curve" smooth="yes"/>
      <point x="422" y="1350"/>
      <point x="373" y="1393"/>
      <point x="307" y="1393" type="curve" smooth="yes"/>
      <point x="240" y="1393"/>
      <point x="203" y="1352"/>
      <point x="203" y="1230" type="curve" smooth="yes"/>
      <point x="203" y="1158"/>
      <point x="200" y="1107"/>
      <point x="200" y="1013" type="curve" smooth="yes"/>
      <point x="200" y="733"/>
      <point x="215" y="660"/>
      <point x="215" y="380" type="curve" smooth="yes"/>
      <point x="215" y="217"/>
      <point x="214" y="165"/>
      <point x="214" y="124" type="curve" smooth="yes"/>
      <point x="214" y="38"/>
      <point x="267" y="0"/>
      <point x="359" y="0" type="curve" smooth="yes"/>
      <point x="392" y="0"/>
      <point x="488" y="4"/>
      <point x="552" y="4" type="curve" smooth="yes"/>
      <point x="608" y="4"/>
      <point x="885" y="0"/>
      <point x="949" y="0" type="curve" smooth="yes"/>
      <point x="1011" y="0"/>
      <point x="1057" y="46"/>
      <point x="1057" y="110" type="curve" smooth="yes"/>
      <point x="1057" y="146"/>
      <point x="1008" y="245"/>
      <point x="928" y="403" type="curve" smooth="yes"/>
      <point x="802" y="652"/>
      <point x="710" y="788"/>
      <point x="586" y="1039" type="curve" smooth="yes"/>
      <point x="549" y="1114"/>
      <point x="491" y="1217"/>
    </contour>
    <contour>
      <point x="301" y="1225" type="line"/>
      <point x="326" y="1186"/>
      <point x="361" y="1121"/>
      <point x="438" y="963" type="curve" smooth="yes"/>
      <point x="562" y="709"/>
      <point x="652" y="577"/>
      <point x="780" y="327" type="curve" smooth="yes"/>
      <point x="854" y="182"/>
      <point x="867" y="156"/>
      <point x="876" y="137" type="curve"/>
      <point x="837" y="137"/>
      <point x="682" y="143"/>
      <point x="588" y="143" type="curve" smooth="yes"/>
      <point x="525" y="143"/>
      <point x="436" y="138"/>
      <point x="381" y="138" type="curve"/>
      <point x="385" y="207"/>
      <point x="385" y="291"/>
      <point x="385" y="380" type="curve" smooth="yes"/>
      <point x="385" y="607"/>
      <point x="368" y="820"/>
      <point x="368" y="1072" type="curve" smooth="yes"/>
      <point x="368" y="1130"/>
      <point x="372" y="1152"/>
      <point x="372" y="1215" type="curve"/>
    </contour>
    <contour>
      <point x="999" y="1393" type="curve" smooth="yes"/>
      <point x="948" y="1393"/>
      <point x="908" y="1370"/>
      <point x="864" y="1296" type="curve" smooth="yes"/>
      <point x="792" y="1176"/>
      <point x="697" y="988"/>
      <point x="598" y="791" type="curve"/>
      <point x="686" y="634" type="line"/>
      <point x="809" y="881"/>
      <point x="940" y="1143"/>
      <point x="1036" y="1301" type="curve" smooth="yes"/>
      <point x="1047" y="1319"/>
      <point x="1058" y="1342"/>
      <point x="1058" y="1359" type="curve" smooth="yes"/>
      <point x="1058" y="1387"/>
      <point x="1030" y="1393"/>
    </contour>
  </outline>
</glyph>
<glyph name="TifLtrTuarYab" format="2">
  <advance width="1438"/>
  <unicode hex="2D40"/>
  <anchor x="720" y="1393" name="T"/>
  <outline>
    <contour>
      <point x="699" y="-30" type="curve" smooth="yes"/>
      <point x="1041" y="-30"/>
      <point x="1338" y="318"/>
      <point x="1338" y="715" type="curve" smooth="yes"/>
      <point x="1338" y="1112"/>
      <point x="1061" y="1420"/>
      <point x="719" y="1420" type="curve" smooth="yes"/>
      <point x="377" y="1420"/>
      <point x="84" y="1072"/>
      <point x="84" y="675" type="curve" smooth="yes"/>
      <point x="84" y="278"/>
      <point x="357" y="-30"/>
    </contour>
    <contour>
      <point x="641" y="114" type="curve"/>
      <point x="428" y="173"/>
      <point x="254" y="430"/>
      <point x="254" y="717" type="curve" smooth="yes"/>
      <point x="254" y="1017"/>
      <point x="410" y="1251"/>
      <point x="631" y="1287" type="curve"/>
      <point x="627" y="1215"/>
      <point x="627" y="1126"/>
      <point x="627" y="1030" type="curve" smooth="yes"/>
      <point x="627" y="750"/>
      <point x="642" y="640"/>
      <point x="642" y="360" type="curve" smooth="yes"/>
      <point x="642" y="205"/>
      <point x="641" y="152"/>
    </contour>
    <contour>
      <point x="808" y="110" type="curve"/>
      <point x="812" y="181"/>
      <point x="812" y="267"/>
      <point x="812" y="360" type="curve" smooth="yes"/>
      <point x="812" y="640"/>
      <point x="797" y="750"/>
      <point x="797" y="1030" type="curve" smooth="yes"/>
      <point x="797" y="1184"/>
      <point x="798" y="1237"/>
      <point x="798" y="1275" type="curve"/>
      <point x="1003" y="1208"/>
      <point x="1168" y="956"/>
      <point x="1168" y="677" type="curve" smooth="yes"/>
      <point x="1168" y="385"/>
      <point x="1020" y="155"/>
    </contour>
  </outline>
</glyph>
<glyph name="yakh-tifi" format="2">
  <advance width="1324"/>
  <unicode hex="2D45"/>
  <anchor x="686" y="1393" name="T"/>
  <outline>
    <contour>
      <point x="1083" y="0" type="curve" smooth="yes"/>
      <point x="1127" y="0"/>
      <point x="1184" y="55"/>
      <point x="1184" y="108" type="curve" smooth="yes"/>
      <point x="1184" y="144"/>
      <point x="1100" y="269"/>
      <point x="1014" y="393" type="curve" smooth="yes"/>
      <point x="821" y="670"/>
      <point x="711" y="792"/>
      <point x="553" y="1024" type="curve" smooth="yes"/>
      <point x="506" y="1093"/>
      <point x="411" y="1233"/>
      <point x="380" y="1281" type="curve" smooth="yes"/>
      <point x="341" y="1342"/>
      <point x="339" y="1349"/>
      <point x="321" y="1375" type="curve" smooth="yes"/>
      <point x="312" y="1388"/>
      <point x="299" y="1393"/>
      <point x="285" y="1393" type="curve" smooth="yes"/>
      <point x="239" y="1393"/>
      <point x="186" y="1332"/>
      <point x="186" y="1292" type="curve" smooth="yes"/>
      <point x="186" y="1250"/>
      <point x="309" y="1072"/>
      <point x="391" y="954" type="curve" smooth="yes"/>
      <point x="571" y="695"/>
      <point x="674" y="574"/>
      <point x="834" y="344" type="curve" smooth="yes"/>
      <point x="927" y="210"/>
      <point x="984" y="123"/>
      <point x="996" y="104" type="curve" smooth="yes"/>
      <point x="1017" y="71"/>
      <point x="1031" y="44"/>
      <point x="1048" y="17" type="curve" smooth="yes"/>
      <point x="1057" y="5"/>
      <point x="1069" y="0"/>
    </contour>
    <contour>
      <point x="647" y="794" type="curve"/>
      <point x="713" y="626" type="line"/>
      <point x="869" y="853"/>
      <point x="1079" y="1153"/>
      <point x="1196" y="1296" type="curve" smooth="yes"/>
      <point x="1212" y="1315"/>
      <point x="1224" y="1335"/>
      <point x="1224" y="1355" type="curve" smooth="yes"/>
      <point x="1224" y="1387"/>
      <point x="1174" y="1393"/>
      <point x="1149" y="1393" type="curve" smooth="yes"/>
      <point x="1108" y="1393"/>
      <point x="1071" y="1372"/>
      <point x="1025" y="1315" type="curve" smooth="yes"/>
      <point x="937" y="1206"/>
      <point x="773" y="975"/>
    </contour>
    <contour>
      <point x="693" y="629" type="curve"/>
      <point x="628" y="796" type="line"/>
      <point x="459" y="550"/>
      <point x="237" y="231"/>
      <point x="131" y="98" type="curve" smooth="yes"/>
      <point x="119" y="83"/>
      <point x="100" y="54"/>
      <point x="100" y="38" type="curve" smooth="yes"/>
      <point x="100" y="7"/>
      <point x="148" y="0"/>
      <point x="173" y="0" type="curve" smooth="yes"/>
      <point x="217" y="0"/>
      <point x="254" y="22"/>
      <point x="299" y="78" type="curve" smooth="yes"/>
      <point x="382" y="181"/>
      <point x="556" y="429"/>
    </contour>
    <contour>
      <point x="701" y="1413" type="curve" smooth="yes"/>
      <point x="610" y="1413"/>
      <point x="600" y="1338"/>
      <point x="600" y="1237" type="curve" smooth="yes"/>
      <point x="600" y="1120"/>
      <point x="608" y="1064"/>
      <point x="608" y="981" type="curve" smooth="yes"/>
      <point x="608" y="819"/>
      <point x="599" y="840"/>
      <point x="599" y="801" type="curve" smooth="yes"/>
      <point x="599" y="776"/>
      <point x="622" y="762"/>
      <point x="652" y="762" type="curve" smooth="yes"/>
      <point x="743" y="762"/>
      <point x="753" y="837"/>
      <point x="753" y="938" type="curve" smooth="yes"/>
      <point x="753" y="1057"/>
      <point x="745" y="1126"/>
      <point x="745" y="1207" type="curve" smooth="yes"/>
      <point x="745" y="1369"/>
      <point x="754" y="1335"/>
      <point x="754" y="1374" type="curve" smooth="yes"/>
      <point x="754" y="1399"/>
      <point x="731" y="1413"/>
    </contour>
  </outline>
</glyph>
<glyph name="yaq-tifi" format="2">
  <advance width="1258"/>
  <unicode hex="2D47"/>
  <anchor x="636" y="1393" name="T"/>
  <outline>
    <contour>
      <point x="446" y="141" type="curve"/>
      <point x="490" y="212"/>
      <point x="602" y="414"/>
      <point x="712" y="631" type="curve" smooth="yes"/>
      <point x="837" y="877"/>
      <point x="916" y="1030"/>
      <point x="965" y="1118" type="curve" smooth="yes"/>
      <point x="1008" y="1195"/>
      <point x="1058" y="1289"/>
      <point x="1058" y="1320" type="curve" smooth="yes"/>
      <point x="1058" y="1361"/>
      <point x="1020" y="1388"/>
      <point x="972" y="1391" type="curve" smooth="yes"/>
      <point x="936" y="1393"/>
      <point x="891" y="1393"/>
      <point x="846" y="1393" type="curve" smooth="yes"/>
      <point x="794" y="1393"/>
      <point x="728" y="1391"/>
      <point x="668" y="1391" type="curve" smooth="yes"/>
      <point x="620" y="1391"/>
      <point x="572" y="1390"/>
      <point x="475" y="1390" type="curve" smooth="yes"/>
      <point x="401" y="1390"/>
      <point x="397" y="1387"/>
      <point x="318" y="1387" type="curve" smooth="yes"/>
      <point x="264" y="1387"/>
      <point x="211" y="1345"/>
      <point x="207" y="1297" type="curve" smooth="yes"/>
      <point x="200" y="1219"/>
      <point x="200" y="1125"/>
      <point x="200" y="1013" type="curve" smooth="yes"/>
      <point x="200" y="733"/>
      <point x="215" y="660"/>
      <point x="215" y="380" type="curve" smooth="yes"/>
      <point x="215" y="244"/>
      <point x="214" y="230"/>
      <point x="214" y="124" type="curve" smooth="yes"/>
      <point x="214" y="38"/>
      <point x="267" y="0"/>
      <point x="359" y="0" type="curve" smooth="yes"/>
      <point x="392" y="0"/>
      <point x="488" y="4"/>
      <point x="552" y="4" type="curve" smooth="yes"/>
      <point x="608" y="4"/>
      <point x="885" y="0"/>
      <point x="934" y="0" type="curve" smooth="yes"/>
      <point x="1011" y="0"/>
      <point x="1057" y="18"/>
      <point x="1057" y="82" type="curve" smooth="yes"/>
      <point x="1057" y="118"/>
      <point x="1043" y="146"/>
      <point x="1012" y="146" type="curve" smooth="yes"/>
      <point x="979" y="146"/>
      <point x="977" y="138"/>
      <point x="930" y="138" type="curve" smooth="yes"/>
      <point x="891" y="138"/>
      <point x="722" y="144"/>
      <point x="628" y="144" type="curve" smooth="yes"/>
      <point x="565" y="144"/>
      <point x="501" y="143"/>
    </contour>
    <contour>
      <point x="385" y="380" type="curve" smooth="yes"/>
      <point x="385" y="660"/>
      <point x="370" y="733"/>
      <point x="370" y="1013" type="curve" smooth="yes"/>
      <point x="370" y="1177"/>
      <point x="370" y="1208"/>
      <point x="370" y="1247" type="curve"/>
      <point x="416" y="1247"/>
      <point x="467" y="1249"/>
      <point x="527" y="1249" type="curve" smooth="yes"/>
      <point x="575" y="1249"/>
      <point x="623" y="1251"/>
      <point x="720" y="1251" type="curve" smooth="yes"/>
      <point x="804" y="1251"/>
      <point x="843" y="1254"/>
      <point x="870" y="1254" type="curve"/>
      <point x="828" y="1179"/>
      <point x="725" y="985"/>
      <point x="625" y="788" type="curve" smooth="yes"/>
      <point x="490" y="521"/>
      <point x="339" y="240"/>
      <point x="270" y="113" type="curve"/>
      <point x="378" y="113" type="line"/>
      <point x="385" y="167"/>
      <point x="385" y="268"/>
    </contour>
  </outline>
</glyph>
<glyph name="TifLtrYi" format="2">
  <advance width="1199"/>
  <unicode hex="2D49"/>
  <anchor x="580" y="1393" name="T"/>
  <outline>
    <contour>
      <point x="965" y="1411" type="curve" smooth="yes"/>
      <point x="951" y="1411"/>
      <point x="936" y="1404"/>
      <point x="925" y="1400" type="curve" smooth="yes"/>
      <point x="703" y="1311"/>
      <point x="474" y="1221"/>
      <point x="227" y="1122" type="curve" smooth="yes"/>
      <point x="192" y="1108"/>
      <point x="152" y="1071"/>
      <point x="152" y="1037" type="curve" smooth="yes"/>
      <point x="152" y="1021"/>
      <point x="161" y="1006"/>
      <point x="184" y="994" type="curve" smooth="yes"/>
      <point x="389" y="889"/>
      <point x="599" y="782"/>
      <point x="804" y="678" type="curve"/>
      <point x="827" y="797" type="line"/>
      <point x="608" y="690"/>
      <point x="389" y="579"/>
      <point x="163" y="472" type="curve" smooth="yes"/>
      <point x="128" y="456"/>
      <point x="100" y="427"/>
      <point x="100" y="399" type="curve" smooth="yes"/>
      <point x="100" y="383"/>
      <point x="110" y="365"/>
      <point x="133" y="354" type="curve" smooth="yes"/>
      <point x="382" y="232"/>
      <point x="598" y="111"/>
      <point x="812" y="20" type="curve" smooth="yes"/>
      <point x="878" y="-8"/>
      <point x="939" y="-31"/>
      <point x="1000" y="-31" type="curve" smooth="yes"/>
      <point x="1046" y="-31"/>
      <point x="1108" y="11"/>
      <point x="1108" y="61" type="curve" smooth="yes"/>
      <point x="1108" y="84"/>
      <point x="1100" y="97"/>
      <point x="1087" y="102" type="curve" smooth="yes"/>
      <point x="1057" y="114"/>
      <point x="1047" y="100"/>
      <point x="921" y="152" type="curve" smooth="yes"/>
      <point x="730" y="232"/>
      <point x="575" y="312"/>
      <point x="262" y="479" type="curve"/>
      <point x="227" y="367" type="line"/>
      <point x="446" y="479"/>
      <point x="672" y="589"/>
      <point x="890" y="690" type="curve" smooth="yes"/>
      <point x="918" y="703"/>
      <point x="944" y="725"/>
      <point x="944" y="753" type="curve" smooth="yes"/>
      <point x="944" y="770"/>
      <point x="942" y="795"/>
      <point x="911" y="811" type="curve" smooth="yes"/>
      <point x="705" y="917"/>
      <point x="495" y="1024"/>
      <point x="290" y="1128" type="curve"/>
      <point x="239" y="1001" type="line"/>
      <point x="501" y="1102"/>
      <point x="873" y="1248"/>
      <point x="939" y="1278" type="curve" smooth="yes"/>
      <point x="971" y="1293"/>
      <point x="1018" y="1323"/>
      <point x="1018" y="1363" type="curve" smooth="yes"/>
      <point x="1018" y="1399"/>
      <point x="992" y="1411"/>
    </contour>
  </outline>
</glyph>
<glyph name="yi-tifi" format="2">
  <advance width="1204"/>
  <unicode hex="2D49"/>
  <anchor x="585" y="1393" name="T"/>
  <outline>
    <contour>
      <point x="970" y="1411" type="curve" smooth="yes"/>
      <point x="961" y="1411"/>
      <point x="944" y="1406"/>
      <point x="930" y="1400" type="curve" smooth="yes"/>
      <point x="708" y="1311"/>
      <point x="479" y="1221"/>
      <point x="232" y="1122" type="curve" smooth="yes"/>
      <point x="197" y="1108"/>
      <point x="157" y="1071"/>
      <point x="157" y="1037" type="curve" smooth="yes"/>
      <point x="157" y="1021"/>
      <point x="166" y="1006"/>
      <point x="189" y="994" type="curve" smooth="yes"/>
      <point x="394" y="889"/>
      <point x="604" y="782"/>
      <point x="809" y="678" type="curve"/>
      <point x="832" y="797" type="line"/>
      <point x="613" y="690"/>
      <point x="394" y="579"/>
      <point x="168" y="472" type="curve" smooth="yes"/>
      <point x="133" y="456"/>
      <point x="105" y="427"/>
      <point x="105" y="399" type="curve" smooth="yes"/>
      <point x="105" y="383"/>
      <point x="115" y="365"/>
      <point x="138" y="354" type="curve" smooth="yes"/>
      <point x="387" y="232"/>
      <point x="603" y="111"/>
      <point x="817" y="20" type="curve" smooth="yes"/>
      <point x="883" y="-8"/>
      <point x="944" y="-31"/>
      <point x="1005" y="-31" type="curve" smooth="yes"/>
      <point x="1051" y="-31"/>
      <point x="1113" y="11"/>
      <point x="1113" y="61" type="curve" smooth="yes"/>
      <point x="1113" y="84"/>
      <point x="1105" y="97"/>
      <point x="1092" y="102" type="curve" smooth="yes"/>
      <point x="1062" y="114"/>
      <point x="1052" y="100"/>
      <point x="926" y="152" type="curve" smooth="yes"/>
      <point x="735" y="232"/>
      <point x="580" y="312"/>
      <point x="267" y="479" type="curve"/>
      <point x="232" y="367" type="line"/>
      <point x="451" y="479"/>
      <point x="677" y="589"/>
      <point x="895" y="690" type="curve" smooth="yes"/>
      <point x="923" y="703"/>
      <point x="949" y="725"/>
      <point x="949" y="753" type="curve" smooth="yes"/>
      <point x="949" y="770"/>
      <point x="947" y="795"/>
      <point x="916" y="811" type="curve" smooth="yes"/>
      <point x="710" y="917"/>
      <point x="500" y="1024"/>
      <point x="295" y="1128" type="curve"/>
      <point x="244" y="1001" type="line"/>
      <point x="506" y="1102"/>
      <point x="878" y="1248"/>
      <point x="944" y="1278" type="curve" smooth="yes"/>
      <point x="976" y="1293"/>
      <point x="1023" y="1323"/>
      <point x="1023" y="1363" type="curve" smooth="yes"/>
      <point x="1023" y="1399"/>
      <point x="997" y="1411"/>
    </contour>
  </outline>
</glyph>
<glyph name="yazh-tifi" format="2">
  <advance width="1133"/>
  <unicode hex="2D4A"/>
  <anchor x="569" y="1393" name="T"/>
  <outline>
    <contour>
      <point x="989" y="-1" type="curve" smooth="yes"/>
      <point x="1019" y="-1"/>
      <point x="1033" y="27"/>
      <point x="1033" y="63" type="curve" smooth="yes"/>
      <point x="1033" y="117"/>
      <point x="991" y="140"/>
      <point x="943" y="143" type="curve" smooth="yes"/>
      <point x="864" y="148"/>
      <point x="763" y="146"/>
      <point x="651" y="143" type="curve" smooth="yes"/>
      <point x="571" y="142"/>
      <point x="539" y="137"/>
      <point x="459" y="135" type="curve" smooth="yes"/>
      <point x="295" y="131"/>
      <point x="266" y="131"/>
      <point x="227" y="131" type="curve" smooth="yes"/>
      <point x="179" y="131"/>
      <point x="177" y="140"/>
      <point x="144" y="140" type="curve" smooth="yes"/>
      <point x="114" y="140"/>
      <point x="100" y="112"/>
      <point x="100" y="76" type="curve" smooth="yes"/>
      <point x="100" y="22"/>
      <point x="135" y="4"/>
      <point x="190" y="-4" type="curve" smooth="yes"/>
      <point x="229" y="-9"/>
      <point x="350" y="-7"/>
      <point x="462" y="-5" type="curve" smooth="yes"/>
      <point x="542" y="-3"/>
      <point x="574" y="2"/>
      <point x="654" y="3" type="curve" smooth="yes"/>
      <point x="818" y="6"/>
      <point x="867" y="8"/>
      <point x="906" y="8" type="curve" smooth="yes"/>
      <point x="954" y="8"/>
      <point x="956" y="-1"/>
    </contour>
    <contour>
      <point x="989" y="1254" type="curve" smooth="yes"/>
      <point x="1019" y="1254"/>
      <point x="1033" y="1282"/>
      <point x="1033" y="1318" type="curve" smooth="yes"/>
      <point x="1033" y="1372"/>
      <point x="991" y="1395"/>
      <point x="943" y="1398" type="curve" smooth="yes"/>
      <point x="864" y="1403"/>
      <point x="763" y="1401"/>
      <point x="651" y="1398" type="curve" smooth="yes"/>
      <point x="571" y="1397"/>
      <point x="539" y="1392"/>
      <point x="459" y="1390" type="curve" smooth="yes"/>
      <point x="295" y="1386"/>
      <point x="266" y="1386"/>
      <point x="227" y="1386" type="curve" smooth="yes"/>
      <point x="179" y="1386"/>
      <point x="177" y="1395"/>
      <point x="144" y="1395" type="curve" smooth="yes"/>
      <point x="114" y="1395"/>
      <point x="100" y="1367"/>
      <point x="100" y="1331" type="curve" smooth="yes"/>
      <point x="100" y="1277"/>
      <point x="135" y="1259"/>
      <point x="190" y="1251" type="curve" smooth="yes"/>
      <point x="229" y="1246"/>
      <point x="350" y="1248"/>
      <point x="462" y="1250" type="curve" smooth="yes"/>
      <point x="542" y="1252"/>
      <point x="574" y="1257"/>
      <point x="654" y="1258" type="curve" smooth="yes"/>
      <point x="818" y="1261"/>
      <point x="867" y="1263"/>
      <point x="906" y="1263" type="curve" smooth="yes"/>
      <point x="954" y="1263"/>
      <point x="956" y="1254"/>
    </contour>
    <contour>
      <point x="532" y="40" type="curve" smooth="yes"/>
      <point x="586" y="40"/>
      <point x="639" y="81"/>
      <point x="643" y="129" type="curve" smooth="yes"/>
      <point x="650" y="207"/>
      <point x="650" y="308"/>
      <point x="650" y="420" type="curve" smooth="yes"/>
      <point x="650" y="700"/>
      <point x="642" y="700"/>
      <point x="642" y="980" type="curve" smooth="yes"/>
      <point x="642" y="1144"/>
      <point x="643" y="1193"/>
      <point x="643" y="1232" type="curve" smooth="yes"/>
      <point x="643" y="1280"/>
      <point x="653" y="1281"/>
      <point x="653" y="1314" type="curve" smooth="yes"/>
      <point x="653" y="1344"/>
      <point x="626" y="1360"/>
      <point x="590" y="1360" type="curve" smooth="yes"/>
      <point x="536" y="1360"/>
      <point x="483" y="1319"/>
      <point x="479" y="1271" type="curve" smooth="yes"/>
      <point x="472" y="1193"/>
      <point x="472" y="1092"/>
      <point x="472" y="980" type="curve" smooth="yes"/>
      <point x="472" y="700"/>
      <point x="480" y="700"/>
      <point x="480" y="420" type="curve" smooth="yes"/>
      <point x="480" y="256"/>
      <point x="479" y="207"/>
      <point x="479" y="168" type="curve" smooth="yes"/>
      <point x="479" y="120"/>
      <point x="469" y="119"/>
      <point x="469" y="86" type="curve" smooth="yes"/>
      <point x="469" y="56"/>
      <point x="496" y="40"/>
    </contour>
  </outline>
</glyph>
<glyph name="yap-tifi" format="2">
  <advance width="1066"/>
  <unicode hex="2D52"/>
  <anchor x="536" y="1393" name="T"/>
  <outline>
    <contour>
      <point x="513" y="-30" type="curve" smooth="yes"/>
      <point x="753" y="-30"/>
      <point x="966" y="206"/>
      <point x="966" y="445" type="curve" smooth="yes"/>
      <point x="966" y="688"/>
      <point x="792" y="824"/>
      <point x="555" y="824" type="curve" smooth="yes"/>
      <point x="439" y="824"/>
      <point x="317" y="772"/>
      <point x="265" y="718" type="curve" smooth="yes"/>
      <point x="209" y="659"/>
      <point x="198" y="631"/>
      <point x="215" y="612" type="curve" smooth="yes"/>
      <point x="232" y="592"/>
      <point x="293" y="579"/>
      <point x="327" y="618" type="curve" smooth="yes"/>
      <point x="361" y="657"/>
      <point x="460" y="691"/>
      <point x="525" y="691" type="curve" smooth="yes"/>
      <point x="664" y="691"/>
      <point x="795" y="581"/>
      <point x="795" y="420" type="curve" smooth="yes"/>
      <point x="795" y="225"/>
      <point x="694" y="102"/>
      <point x="555" y="102" type="curve" smooth="yes"/>
      <point x="416" y="102"/>
      <point x="271" y="210"/>
      <point x="271" y="382" type="curve" smooth="yes"/>
      <point x="271" y="474"/>
      <point x="299" y="571"/>
      <point x="391" y="704" type="curve" smooth="yes"/>
      <point x="522" y="894"/>
      <point x="793" y="1139"/>
      <point x="943" y="1307" type="curve" smooth="yes"/>
      <point x="955" y="1320"/>
      <point x="959" y="1336"/>
      <point x="959" y="1351" type="curve" smooth="yes"/>
      <point x="959" y="1374"/>
      <point x="944" y="1394"/>
      <point x="911" y="1396" type="curve" smooth="yes"/>
      <point x="736" y="1408"/>
      <point x="588" y="1395"/>
      <point x="429" y="1390" type="curve" smooth="yes"/>
      <point x="295" y="1386"/>
      <point x="286" y="1386"/>
      <point x="247" y="1386" type="curve" smooth="yes"/>
      <point x="199" y="1386"/>
      <point x="197" y="1395"/>
      <point x="164" y="1395" type="curve" smooth="yes"/>
      <point x="134" y="1395"/>
      <point x="120" y="1367"/>
      <point x="120" y="1331" type="curve" smooth="yes"/>
      <point x="120" y="1277"/>
      <point x="155" y="1258"/>
      <point x="210" y="1251" type="curve" smooth="yes"/>
      <point x="301" y="1239"/>
      <point x="498" y="1257"/>
      <point x="590" y="1258" type="curve" smooth="yes"/>
      <point x="684" y="1259"/>
      <point x="722" y="1264"/>
      <point x="842" y="1257" type="curve"/>
      <point x="804" y="1352" type="line"/>
      <point x="683" y="1220"/>
      <point x="391" y="991"/>
      <point x="211" y="722" type="curve" smooth="yes"/>
      <point x="135" y="608"/>
      <point x="100" y="493"/>
      <point x="100" y="360" type="curve" smooth="yes"/>
      <point x="100" y="121"/>
      <point x="293" y="-30"/>
    </contour>
  </outline>
</glyph>
<glyph name="yarr-tifi" format="2">
  <advance width="1454"/>
  <unicode hex="2D55"/>
  <anchor x="736" y="1393" name="T"/>
  <outline>
    <component base="_VerticalOval" xOffset="-8"/>
    <contour>
      <point x="1248" y="-4" type="curve" smooth="yes"/>
      <point x="1267" y="16"/>
      <point x="1276" y="39"/>
      <point x="1276" y="62" type="curve" smooth="yes"/>
      <point x="1276" y="85"/>
      <point x="1267" y="108"/>
      <point x="1253" y="127" type="curve" smooth="yes"/>
      <point x="1226" y="162"/>
      <point x="1182" y="208"/>
      <point x="1125" y="264" type="curve" smooth="yes"/>
      <point x="1064" y="323"/>
      <point x="1029" y="352"/>
      <point x="982" y="399" type="curve" smooth="yes"/>
      <point x="940" y="441"/>
      <point x="913" y="470"/>
      <point x="893" y="490" type="curve" smooth="yes"/>
      <point x="873" y="510"/>
      <point x="862" y="529"/>
      <point x="839" y="552" type="curve" smooth="yes"/>
      <point x="832" y="559"/>
      <point x="823" y="563"/>
      <point x="813" y="563" type="curve" smooth="yes"/>
      <point x="797" y="563"/>
      <point x="778" y="552"/>
      <point x="762" y="536" type="curve" smooth="yes"/>
      <point x="742" y="516"/>
      <point x="732" y="491"/>
      <point x="732" y="466" type="curve" smooth="yes"/>
      <point x="732" y="445"/>
      <point x="739" y="423"/>
      <point x="753" y="405" type="curve" smooth="yes"/>
      <point x="782" y="366"/>
      <point x="831" y="317"/>
      <point x="866" y="282" type="curve" smooth="yes"/>
      <point x="925" y="223"/>
      <point x="963" y="194"/>
      <point x="1009" y="148" type="curve" smooth="yes"/>
      <point x="1032" y="125"/>
      <point x="1081" y="74"/>
      <point x="1099" y="56" type="curve" smooth="yes"/>
      <point x="1137" y="18"/>
      <point x="1144" y="4"/>
      <point x="1167" y="-19" type="curve" smooth="yes"/>
      <point x="1175" y="-27"/>
      <point x="1184" y="-30"/>
      <point x="1194" y="-30" type="curve" smooth="yes"/>
      <point x="1212" y="-30"/>
      <point x="1232" y="-20"/>
    </contour>
  </outline>
</glyph>
<glyph name="yagh-tifi" format="2">
  <advance width="1181"/>
  <unicode hex="2D56"/>
  <anchor x="617" y="1393" name="T"/>
  <outline>
    <contour>
      <point x="707" y="620" type="curve" smooth="yes"/>
      <point x="827" y="620"/>
      <point x="875" y="618"/>
      <point x="907" y="618" type="curve" smooth="yes"/>
      <point x="984" y="618"/>
      <point x="1027" y="662"/>
      <point x="1027" y="787" type="curve" smooth="yes"/>
      <point x="1027" y="958"/>
      <point x="1024" y="1134"/>
      <point x="1024" y="1244" type="curve" smooth="yes"/>
      <point x="1024" y="1295"/>
      <point x="1031" y="1331"/>
      <point x="1031" y="1346" type="curve" smooth="yes"/>
      <point x="1031" y="1375"/>
      <point x="1004" y="1392"/>
      <point x="968" y="1392" type="curve" smooth="yes"/>
      <point x="884" y="1392"/>
      <point x="851" y="1344"/>
      <point x="851" y="1215" type="curve" smooth="yes"/>
      <point x="851" y="1063"/>
      <point x="853" y="912"/>
      <point x="853" y="760" type="curve"/>
      <point x="809" y="761"/>
      <point x="762" y="761"/>
      <point x="707" y="761" type="curve" smooth="yes"/>
      <point x="627" y="761"/>
      <point x="534" y="754"/>
      <point x="454" y="754" type="curve" smooth="yes"/>
      <point x="399" y="754"/>
      <point x="357" y="754"/>
      <point x="326" y="755" type="curve"/>
      <point x="326" y="910"/>
      <point x="322" y="1025"/>
      <point x="322" y="1160" type="curve" smooth="yes"/>
      <point x="322" y="1351"/>
      <point x="330" y="1301"/>
      <point x="330" y="1347" type="curve" smooth="yes"/>
      <point x="330" y="1376"/>
      <point x="303" y="1393"/>
      <point x="267" y="1393" type="curve" smooth="yes"/>
      <point x="190" y="1393"/>
      <point x="150" y="1352"/>
      <point x="150" y="1230" type="curve" smooth="yes"/>
      <point x="150" y="1084"/>
      <point x="153" y="938"/>
      <point x="153" y="792" type="curve" smooth="yes"/>
      <point x="153" y="622"/>
      <point x="161" y="613"/>
      <point x="344" y="613" type="curve" smooth="yes"/>
      <point x="424" y="613"/>
      <point x="627" y="620"/>
    </contour>
    <contour>
      <point x="571" y="0" type="curve" smooth="yes"/>
      <point x="625" y="0"/>
      <point x="677" y="41"/>
      <point x="685" y="89" type="curve" smooth="yes"/>
      <point x="688" y="107"/>
      <point x="689" y="128"/>
      <point x="689" y="153" type="curve" smooth="yes"/>
      <point x="689" y="188"/>
      <point x="683" y="398"/>
      <point x="683" y="494" type="curve" smooth="yes"/>
      <point x="683" y="554"/>
      <point x="682" y="593"/>
      <point x="682" y="622" type="curve" smooth="yes"/>
      <point x="682" y="670"/>
      <point x="692" y="671"/>
      <point x="692" y="704" type="curve" smooth="yes"/>
      <point x="692" y="734"/>
      <point x="660" y="750"/>
      <point x="624" y="750" type="curve" smooth="yes"/>
      <point x="570" y="750"/>
      <point x="521" y="709"/>
      <point x="513" y="661" type="curve" smooth="yes"/>
      <point x="508" y="630"/>
      <point x="507" y="591"/>
      <point x="507" y="553" type="curve" smooth="yes"/>
      <point x="507" y="532"/>
      <point x="512" y="372"/>
      <point x="512" y="276" type="curve" smooth="yes"/>
      <point x="512" y="244"/>
      <point x="513" y="173"/>
      <point x="513" y="127" type="curve" smooth="yes"/>
      <point x="513" y="83"/>
      <point x="506" y="78"/>
      <point x="506" y="46" type="curve" smooth="yes"/>
      <point x="506" y="16"/>
      <point x="535" y="0"/>
    </contour>
  </outline>
</glyph>
<glyph name="yatt-tifi" format="2">
  <advance width="1258"/>
  <unicode hex="2D5F"/>
  <anchor x="670" y="1393" name="T"/>
  <outline>
    <component base="yam-tifi"/>
    <contour>
      <point x="712" y="380" type="curve" smooth="yes"/>
      <point x="783" y="380"/>
      <point x="813" y="445"/>
      <point x="813" y="545" type="curve" smooth="yes"/>
      <point x="813" y="663"/>
      <point x="805" y="742"/>
      <point x="805" y="825" type="curve" smooth="yes"/>
      <point x="805" y="987"/>
      <point x="814" y="953"/>
      <point x="814" y="992" type="curve" smooth="yes"/>
      <point x="814" y="1017"/>
      <point x="791" y="1031"/>
      <point x="761" y="1031" type="curve" smooth="yes"/>
      <point x="690" y="1031"/>
      <point x="660" y="966"/>
      <point x="660" y="875" type="curve" smooth="yes"/>
      <point x="660" y="748"/>
      <point x="668" y="682"/>
      <point x="668" y="599" type="curve" smooth="yes"/>
      <point x="668" y="437"/>
      <point x="659" y="458"/>
      <point x="659" y="419" type="curve" smooth="yes"/>
      <point x="659" y="394"/>
      <point x="682" y="380"/>
    </contour>
    <contour>
      <point x="1058" y="695" type="curve" smooth="yes"/>
      <point x="1058" y="749"/>
      <point x="1016" y="775"/>
      <point x="944" y="778" type="curve" smooth="yes"/>
      <point x="889" y="780"/>
      <point x="789" y="775"/>
      <point x="707" y="775" type="curve" smooth="yes"/>
      <point x="657" y="775"/>
      <point x="637" y="773"/>
      <point x="587" y="773" type="curve" smooth="yes"/>
      <point x="493" y="773"/>
      <point x="464" y="771"/>
      <point x="425" y="771" type="curve" smooth="yes"/>
      <point x="377" y="771"/>
      <point x="375" y="779"/>
      <point x="342" y="779" type="curve" smooth="yes"/>
      <point x="312" y="779"/>
      <point x="298" y="751"/>
      <point x="298" y="715" type="curve" smooth="yes"/>
      <point x="298" y="661"/>
      <point x="340" y="634"/>
      <point x="412" y="632" type="curve" smooth="yes"/>
      <point x="467" y="630"/>
      <point x="547" y="634"/>
      <point x="639" y="634" type="curve" smooth="yes"/>
      <point x="679" y="634"/>
      <point x="699" y="636"/>
      <point x="749" y="636" type="curve" smooth="yes"/>
      <point x="843" y="636"/>
      <point x="892" y="639"/>
      <point x="931" y="639" type="curve" smooth="yes"/>
      <point x="979" y="639"/>
      <point x="981" y="631"/>
      <point x="1014" y="631" type="curve" smooth="yes"/>
      <point x="1044" y="631"/>
      <point x="1058" y="659"/>
    </contour>
  </outline>
</glyph>
<glyph name="yav-tifi" format="2">
  <advance width="1320"/>
  <unicode hex="2D60"/>
  <anchor x="723" y="1393" name="T"/>
  <outline>
    <contour>
      <point x="1114" y="-1" type="curve" smooth="yes"/>
      <point x="1179" y="-1"/>
      <point x="1220" y="38"/>
      <point x="1220" y="90" type="curve" smooth="yes"/>
      <point x="1220" y="126"/>
      <point x="1211" y="198"/>
      <point x="1148" y="365" type="curve" smooth="yes"/>
      <point x="1048" y="631"/>
      <point x="985" y="780"/>
      <point x="894" y="1048" type="curve" smooth="yes"/>
      <point x="871" y="1117"/>
      <point x="841" y="1208"/>
      <point x="826" y="1255" type="curve" smooth="yes"/>
      <point x="813" y="1295"/>
      <point x="809" y="1331"/>
      <point x="803" y="1351" type="curve" smooth="yes"/>
      <point x="794" y="1379"/>
      <point x="770" y="1393"/>
      <point x="728" y="1393" type="curve" smooth="yes"/>
      <point x="667" y="1393"/>
      <point x="613" y="1340"/>
      <point x="574" y="1259" type="curve" smooth="yes"/>
      <point x="549" y="1206"/>
      <point x="456" y="972"/>
      <point x="390" y="790" type="curve" smooth="yes"/>
      <point x="298" y="537"/>
      <point x="188" y="246"/>
      <point x="148" y="168" type="curve" smooth="yes"/>
      <point x="130" y="133"/>
      <point x="100" y="84"/>
      <point x="100" y="54" type="curve" smooth="yes"/>
      <point x="100" y="14"/>
      <point x="133" y="-4"/>
      <point x="198" y="-4" type="curve" smooth="yes"/>
      <point x="237" y="-4"/>
      <point x="397" y="-3"/>
      <point x="436" y="-2" type="curve" smooth="yes"/>
      <point x="546" y="2"/>
      <point x="615" y="4"/>
      <point x="695" y="4" type="curve" smooth="yes"/>
      <point x="809" y="4"/>
      <point x="871" y="4"/>
      <point x="940" y="3" type="curve" smooth="yes"/>
      <point x="1008" y="2"/>
      <point x="1080" y="-1"/>
    </contour>
    <contour>
      <point x="300" y="111" type="line"/>
      <point x="339" y="194"/>
      <point x="409" y="398"/>
      <point x="493" y="622" type="curve" smooth="yes"/>
      <point x="578" y="849"/>
      <point x="697" y="1153"/>
      <point x="763" y="1296" type="curve"/>
      <point x="655" y="1281" type="line"/>
      <point x="661" y="1240"/>
      <point x="679" y="1167"/>
      <point x="737" y="1000" type="curve" smooth="yes"/>
      <point x="831" y="731"/>
      <point x="877" y="620"/>
      <point x="979" y="352" type="curve" smooth="yes"/>
      <point x="1026" y="228"/>
      <point x="1035" y="187"/>
      <point x="1051" y="109" type="curve"/>
      <point x="1111" y="142" type="line"/>
      <point x="997" y="149"/>
      <point x="910" y="149"/>
      <point x="845" y="149" type="curve" smooth="yes"/>
      <point x="786" y="149"/>
      <point x="746" y="148"/>
      <point x="705" y="148" type="curve" smooth="yes"/>
      <point x="625" y="148"/>
      <point x="543" y="145"/>
      <point x="463" y="142" type="curve" smooth="yes"/>
      <point x="346" y="138"/>
      <point x="324" y="138"/>
      <point x="289" y="139" type="curve"/>
    </contour>
  </outline>
</glyph>
<glyph name="yaw-tifi" format="2">
  <advance width="1301"/>
  <unicode hex="2D61"/>
  <anchor x="654" y="1393" name="T"/>
  <outline>
    <contour>
      <point x="1101" y="129" type="curve" smooth="yes"/>
      <point x="1101" y="207"/>
      <point x="1101" y="268"/>
      <point x="1101" y="380" type="curve" smooth="yes"/>
      <point x="1101" y="660"/>
      <point x="1086" y="733"/>
      <point x="1086" y="1013" type="curve" smooth="yes"/>
      <point x="1086" y="1177"/>
      <point x="1087" y="1226"/>
      <point x="1087" y="1265" type="curve" smooth="yes"/>
      <point x="1087" y="1313"/>
      <point x="1097" y="1314"/>
      <point x="1097" y="1347" type="curve" smooth="yes"/>
      <point x="1097" y="1377"/>
      <point x="1070" y="1393"/>
      <point x="1034" y="1393" type="curve" smooth="yes"/>
      <point x="980" y="1393"/>
      <point x="927" y="1352"/>
      <point x="923" y="1304" type="curve" smooth="yes"/>
      <point x="916" y="1226"/>
      <point x="916" y="1125"/>
      <point x="916" y="1013" type="curve" smooth="yes"/>
      <point x="916" y="733"/>
      <point x="931" y="660"/>
      <point x="931" y="380" type="curve" smooth="yes"/>
      <point x="931" y="216"/>
      <point x="930" y="176"/>
      <point x="930" y="137" type="curve"/>
      <point x="891" y="137"/>
      <point x="682" y="143"/>
      <point x="588" y="143" type="curve" smooth="yes"/>
      <point x="525" y="143"/>
      <point x="436" y="138"/>
      <point x="381" y="138" type="curve"/>
      <point x="385" y="207"/>
      <point x="385" y="268"/>
      <point x="385" y="380" type="curve" smooth="yes"/>
      <point x="385" y="660"/>
      <point x="370" y="733"/>
      <point x="370" y="1013" type="curve" smooth="yes"/>
      <point x="370" y="1177"/>
      <point x="371" y="1226"/>
      <point x="371" y="1265" type="curve" smooth="yes"/>
      <point x="371" y="1313"/>
      <point x="381" y="1314"/>
      <point x="381" y="1347" type="curve" smooth="yes"/>
      <point x="381" y="1377"/>
      <point x="354" y="1393"/>
      <point x="318" y="1393" type="curve" smooth="yes"/>
      <point x="264" y="1393"/>
      <point x="211" y="1352"/>
      <point x="207" y="1304" type="curve" smooth="yes"/>
      <point x="200" y="1226"/>
      <point x="200" y="1125"/>
      <point x="200" y="1013" type="curve" smooth="yes"/>
      <point x="200" y="733"/>
      <point x="215" y="660"/>
      <point x="215" y="380" type="curve" smooth="yes"/>
      <point x="215" y="216"/>
      <point x="214" y="163"/>
      <point x="214" y="124" type="curve" smooth="yes"/>
      <point x="214" y="37"/>
      <point x="267" y="0"/>
      <point x="359" y="0" type="curve" smooth="yes"/>
      <point x="409" y="0"/>
      <point x="488" y="4"/>
      <point x="552" y="4" type="curve" smooth="yes"/>
      <point x="608" y="4"/>
      <point x="935" y="0"/>
      <point x="984" y="0" type="curve" smooth="yes"/>
      <point x="1061" y="0"/>
      <point x="1101" y="44"/>
    </contour>
  </outline>
</glyph>
<glyph name="yay-tifi" format="2">
  <advance width="1083"/>
  <unicode hex="2D62"/>
  <anchor x="538" y="1393" name="T"/>
  <outline>
    <contour>
      <point x="793" y="1409" type="curve" smooth="yes"/>
      <point x="758" y="1409"/>
      <point x="721" y="1387"/>
      <point x="699" y="1362" type="curve" smooth="yes"/>
      <point x="592" y="1245"/>
      <point x="478" y="1133"/>
      <point x="371" y="1021" type="curve" smooth="yes"/>
      <point x="276" y="922"/>
      <point x="176" y="817"/>
      <point x="118" y="718" type="curve" smooth="yes"/>
      <point x="100" y="687"/>
      <point x="100" y="677"/>
      <point x="100" y="669" type="curve" smooth="yes"/>
      <point x="100" y="644"/>
      <point x="121" y="622"/>
      <point x="150" y="622" type="curve" smooth="yes"/>
      <point x="348" y="622"/>
      <point x="496" y="629"/>
      <point x="643" y="629" type="curve" smooth="yes"/>
      <point x="717" y="629"/>
      <point x="790" y="627"/>
      <point x="864" y="622" type="curve"/>
      <point x="833" y="712" type="line"/>
      <point x="740" y="591"/>
      <point x="655" y="462"/>
      <point x="565" y="337" type="curve" smooth="yes"/>
      <point x="526" y="282"/>
      <point x="485" y="227"/>
      <point x="442" y="172" type="curve" smooth="yes"/>
      <point x="423" y="147"/>
      <point x="380" y="94"/>
      <point x="357" y="72" type="curve" smooth="yes"/>
      <point x="341" y="57"/>
      <point x="321" y="32"/>
      <point x="321" y="9" type="curve" smooth="yes"/>
      <point x="321" y="-20"/>
      <point x="352" y="-34"/>
      <point x="376" y="-34" type="curve" smooth="yes"/>
      <point x="406" y="-34"/>
      <point x="439" y="-19"/>
      <point x="460" y="-1" type="curve" smooth="yes"/>
      <point x="526" y="56"/>
      <point x="590" y="144"/>
      <point x="681" y="272" type="curve" smooth="yes"/>
      <point x="781" y="412"/>
      <point x="871" y="550"/>
      <point x="967" y="674" type="curve" smooth="yes"/>
      <point x="978" y="688"/>
      <point x="983" y="704"/>
      <point x="983" y="719" type="curve" smooth="yes"/>
      <point x="983" y="742"/>
      <point x="966" y="762"/>
      <point x="933" y="764" type="curve" smooth="yes"/>
      <point x="861" y="769"/>
      <point x="789" y="771"/>
      <point x="716" y="771" type="curve" smooth="yes"/>
      <point x="572" y="771"/>
      <point x="421" y="764"/>
      <point x="222" y="764" type="curve"/>
      <point x="264" y="688" type="line"/>
      <point x="298" y="735"/>
      <point x="335" y="792"/>
      <point x="357" y="819" type="curve" smooth="yes"/>
      <point x="408" y="881"/>
      <point x="461" y="926"/>
      <point x="514" y="984" type="curve" smooth="yes"/>
      <point x="619" y="1098"/>
      <point x="730" y="1203"/>
      <point x="832" y="1318" type="curve" smooth="yes"/>
      <point x="844" y="1331"/>
      <point x="851" y="1348"/>
      <point x="851" y="1364" type="curve" smooth="yes"/>
      <point x="851" y="1395"/>
      <point x="819" y="1409"/>
    </contour>
  </outline>
</glyph>
<glyph name="yazTawellemet-tifi" format="2">
  <advance width="859"/>
  <unicode hex="2D64"/>
  <anchor x="462" y="1393" name="T"/>
  <outline>
    <component base="_VerticalBar" xOffset="-450"/>
    <contour>
      <point x="397" y="1365" type="curve" smooth="yes"/>
      <point x="364" y="1387"/>
      <point x="343" y="1393"/>
      <point x="315" y="1393" type="curve"/>
      <point x="287" y="1253" type="line"/>
      <point x="360" y="1211"/>
      <point x="567" y="1045"/>
      <point x="603" y="999" type="curve" smooth="yes"/>
      <point x="614" y="984"/>
      <point x="624" y="974"/>
      <point x="644" y="974" type="curve" smooth="yes"/>
      <point x="694" y="974"/>
      <point x="734" y="1017"/>
      <point x="734" y="1059" type="curve" smooth="yes"/>
      <point x="734" y="1085"/>
      <point x="701" y="1115"/>
      <point x="680" y="1134" type="curve" smooth="yes"/>
      <point x="627" y="1184"/>
      <point x="466" y="1320"/>
    </contour>
  </outline>
</glyph>
<glyph name="ye-tifi" format="2">
  <advance width="1637"/>
  <unicode hex="2D66"/>
  <outline>
    <contour>
      <point x="1520" y="105" type="curve" smooth="yes"/>
      <point x="1496" y="115"/>
      <point x="1485" y="101"/>
      <point x="1359" y="153" type="curve" smooth="yes"/>
      <point x="1197" y="220"/>
      <point x="766" y="475"/>
      <point x="332" y="708" type="curve"/>
      <point x="332" y="683" type="line"/>
      <point x="575" y="799"/>
      <point x="838" y="934"/>
      <point x="1347" y="1200" type="curve" smooth="yes"/>
      <point x="1447" y="1252"/>
      <point x="1497" y="1283"/>
      <point x="1497" y="1347" type="curve" smooth="yes"/>
      <point x="1497" y="1392"/>
      <point x="1467" y="1407"/>
      <point x="1437" y="1407" type="curve" smooth="yes"/>
      <point x="1423" y="1407"/>
      <point x="1407" y="1402"/>
      <point x="1390" y="1394" type="curve" smooth="yes"/>
      <point x="1354" y="1378"/>
      <point x="1314" y="1350"/>
      <point x="1272" y="1328" type="curve" smooth="yes"/>
      <point x="769" y="1065"/>
      <point x="549" y="950"/>
      <point x="228" y="799" type="curve" smooth="yes"/>
      <point x="135" y="755"/>
      <point x="105" y="712"/>
      <point x="105" y="677" type="curve" smooth="yes"/>
      <point x="105" y="643"/>
      <point x="128" y="626"/>
      <point x="259" y="556" type="curve" smooth="yes"/>
      <point x="587" y="382"/>
      <point x="1052" y="105"/>
      <point x="1250" y="21" type="curve" smooth="yes"/>
      <point x="1316" y="-7"/>
      <point x="1378" y="-30"/>
      <point x="1428" y="-30" type="curve" smooth="yes"/>
      <point x="1485" y="-30"/>
      <point x="1546" y="11"/>
      <point x="1546" y="62" type="curve" smooth="yes"/>
      <point x="1546" y="83"/>
      <point x="1538" y="98"/>
    </contour>
  </outline>
</glyph>
<glyph name="separator-tifi" format="2">
  <advance width="920"/>
  <unicode hex="2D70"/>
  <outline>
    <contour>
      <point x="742" y="1319" type="curve"/>
      <point x="613" y="-88"/>
      <point x="501" y="-467"/>
      <point x="-619" y="-711" type="curve"/>
      <point x="683" y="-477"/>
      <point x="759" y="-161"/>
      <point x="912" y="1382" type="curve" smooth="yes"/>
      <point x="915" y="1410"/>
      <point x="887" y="1419"/>
      <point x="859" y="1419" type="curve" smooth="yes"/>
      <point x="798" y="1419"/>
      <point x="742" y="1374"/>
    </contour>
  </outline>
</glyph>
<glyph name="ya-tifi.super" format="2">
  <advance width="428"/>
  <unicode hex="E300"/>
  <outline>
    <contour>
      <point x="214" y="1593" type="curve"/>
      <point x="162" y="1593"/>
      <point x="120" y="1551"/>
      <point x="120" y="1499" type="curve" smooth="yes"/>
      <point x="120" y="1447"/>
      <point x="162" y="1405"/>
      <point x="214" y="1405" type="curve" smooth="yes"/>
      <point x="266" y="1405"/>
      <point x="308" y="1447"/>
      <point x="308" y="1499" type="curve" smooth="yes"/>
      <point x="308" y="1551"/>
      <point x="266" y="1593"/>
    </contour>
  </outline>
</glyph>
<glyph name="yu-tifi.super" format="2">
  <advance width="173"/>
  <unicode hex="E301"/>
  <outline>
    <contour>
      <point x="77" y="1420" type="curve" smooth="yes"/>
      <point x="125" y="1420"/>
      <point x="173" y="1467"/>
      <point x="173" y="1516" type="curve" smooth="yes"/>
      <point x="173" y="1563"/>
      <point x="143" y="1593"/>
      <point x="96" y="1593" type="curve" smooth="yes"/>
      <point x="48" y="1593"/>
      <point x="0" y="1545"/>
      <point x="0" y="1497" type="curve" smooth="yes"/>
      <point x="0" y="1449"/>
      <point x="30" y="1420"/>
    </contour>
    <contour>
      <point x="77" y="1162" type="curve" smooth="yes"/>
      <point x="125" y="1162"/>
      <point x="173" y="1209"/>
      <point x="173" y="1258" type="curve" smooth="yes"/>
      <point x="173" y="1305"/>
      <point x="143" y="1335"/>
      <point x="96" y="1335" type="curve" smooth="yes"/>
      <point x="48" y="1335"/>
      <point x="0" y="1287"/>
      <point x="0" y="1239" type="curve" smooth="yes"/>
      <point x="0" y="1191"/>
      <point x="30" y="1162"/>
    </contour>
  </outline>
</glyph>
<glyph name="TifLtrYay.super" format="2">
  <advance width="469"/>
  <unicode hex="E302"/>
  <outline>
    <contour>
      <point x="360" y="1592" type="curve" smooth="yes"/>
      <point x="341" y="1592"/>
      <point x="319" y="1580"/>
      <point x="304" y="1563" type="curve" smooth="yes"/>
      <point x="275" y="1530"/>
      <point x="244" y="1500"/>
      <point x="213" y="1469" type="curve" smooth="yes"/>
      <point x="188" y="1444"/>
      <point x="164" y="1418"/>
      <point x="140" y="1393" type="curve" smooth="yes"/>
      <point x="92" y="1344"/>
      <point x="38" y="1292"/>
      <point x="5" y="1226" type="curve" smooth="yes"/>
      <point x="2" y="1220"/>
      <point x="0" y="1213"/>
      <point x="0" y="1207" type="curve" smooth="yes"/>
      <point x="0" y="1185"/>
      <point x="17" y="1168"/>
      <point x="39" y="1168" type="curve" smooth="yes"/>
      <point x="92" y="1168"/>
      <point x="139" y="1169"/>
      <point x="181" y="1170" type="curve" smooth="yes"/>
      <point x="218" y="1171"/>
      <point x="251" y="1172"/>
      <point x="285" y="1172" type="curve" smooth="yes"/>
      <point x="330" y="1172"/>
      <point x="374" y="1171"/>
      <point x="418" y="1166" type="curve"/>
      <point x="385" y="1259" type="line"/>
      <point x="350" y="1215"/>
      <point x="318" y="1169"/>
      <point x="285" y="1122" type="curve" smooth="yes"/>
      <point x="268" y="1098"/>
      <point x="251" y="1074"/>
      <point x="234" y="1050" type="curve" smooth="yes"/>
      <point x="219" y="1028"/>
      <point x="203" y="1007"/>
      <point x="187" y="985" type="curve"/>
      <point x="182" y="979"/>
      <point x="178" y="973"/>
      <point x="173" y="967" type="curve"/>
      <point x="172" y="965"/>
      <point x="169" y="962"/>
      <point x="167" y="959" type="curve"/>
      <point x="157" y="947"/>
      <point x="143" y="929"/>
      <point x="132" y="919" type="curve"/>
      <point x="119" y="908"/>
      <point x="109" y="890"/>
      <point x="109" y="876" type="curve" smooth="yes"/>
      <point x="109" y="855"/>
      <point x="129" y="840"/>
      <point x="152" y="840" type="curve" smooth="yes"/>
      <point x="169" y="840"/>
      <point x="189" y="848"/>
      <point x="202" y="860" type="curve" smooth="yes"/>
      <point x="246" y="900"/>
      <point x="281" y="952"/>
      <point x="315" y="999" type="curve" smooth="yes"/>
      <point x="333" y="1024"/>
      <point x="350" y="1049"/>
      <point x="367" y="1073" type="curve" smooth="yes"/>
      <point x="398" y="1117"/>
      <point x="427" y="1160"/>
      <point x="458" y="1200" type="curve"/>
      <point x="465" y="1210"/>
      <point x="469" y="1221"/>
      <point x="469" y="1232" type="curve" smooth="yes"/>
      <point x="469" y="1253"/>
      <point x="453" y="1268"/>
      <point x="431" y="1269" type="curve"/>
      <point x="399" y="1272"/>
      <point x="363" y="1273"/>
      <point x="322" y="1273" type="curve" smooth="yes"/>
      <point x="284" y="1273"/>
      <point x="247" y="1272"/>
      <point x="209" y="1271" type="curve" smooth="yes"/>
      <point x="172" y="1270"/>
      <point x="136" y="1269"/>
      <point x="99" y="1269" type="curve" smooth="yes"/>
      <point x="50" y="1269" type="line"/>
      <point x="95" y="1187" type="line"/>
      <point x="112" y="1213"/>
      <point x="140" y="1256"/>
      <point x="153" y="1272" type="curve" smooth="yes"/>
      <point x="170" y="1292"/>
      <point x="187" y="1308"/>
      <point x="205" y="1326" type="curve" smooth="yes"/>
      <point x="214" y="1335"/>
      <point x="223" y="1344"/>
      <point x="232" y="1354" type="curve" smooth="yes"/>
      <point x="256" y="1381"/>
      <point x="282" y="1406"/>
      <point x="307" y="1432" type="curve" smooth="yes"/>
      <point x="335" y="1461"/>
      <point x="364" y="1491"/>
      <point x="391" y="1521" type="curve"/>
      <point x="399" y="1531"/>
      <point x="404" y="1542"/>
      <point x="404" y="1554" type="curve" smooth="yes"/>
      <point x="404" y="1576"/>
      <point x="385" y="1592"/>
    </contour>
  </outline>
</glyph>
<glyph name="yay-tifi.super" format="2">
  <advance width="469"/>
  <unicode hex="E302"/>
  <outline>
    <contour>
      <point x="360" y="1592" type="curve" smooth="yes"/>
      <point x="341" y="1592"/>
      <point x="319" y="1580"/>
      <point x="304" y="1563" type="curve" smooth="yes"/>
      <point x="266" y="1520"/>
      <point x="181" y="1435"/>
      <point x="140" y="1393" type="curve" smooth="yes"/>
      <point x="92" y="1344"/>
      <point x="38" y="1292"/>
      <point x="5" y="1226" type="curve" smooth="yes"/>
      <point x="2" y="1220"/>
      <point x="0" y="1213"/>
      <point x="0" y="1207" type="curve" smooth="yes"/>
      <point x="0" y="1185"/>
      <point x="17" y="1168"/>
      <point x="39" y="1168" type="curve" smooth="yes"/>
      <point x="92" y="1168"/>
      <point x="225" y="1172"/>
      <point x="285" y="1172" type="curve" smooth="yes"/>
      <point x="330" y="1172"/>
      <point x="374" y="1171"/>
      <point x="418" y="1166" type="curve"/>
      <point x="385" y="1259" type="line"/>
      <point x="357" y="1224"/>
      <point x="344" y="1206"/>
      <point x="276" y="1110" type="curve" smooth="yes"/>
      <point x="212" y="1019"/>
      <point x="190" y="987"/>
      <point x="167" y="959" type="curve" smooth="yes"/>
      <point x="157" y="947"/>
      <point x="143" y="929"/>
      <point x="132" y="919" type="curve" smooth="yes"/>
      <point x="119" y="908"/>
      <point x="109" y="890"/>
      <point x="109" y="876" type="curve" smooth="yes"/>
      <point x="109" y="855"/>
      <point x="129" y="840"/>
      <point x="152" y="840" type="curve" smooth="yes"/>
      <point x="169" y="840"/>
      <point x="189" y="848"/>
      <point x="202" y="860" type="curve" smooth="yes"/>
      <point x="247" y="901"/>
      <point x="276" y="945"/>
      <point x="367" y="1073" type="curve" smooth="yes"/>
      <point x="398" y="1117"/>
      <point x="427" y="1160"/>
      <point x="458" y="1200" type="curve" smooth="yes"/>
      <point x="465" y="1210"/>
      <point x="469" y="1221"/>
      <point x="469" y="1232" type="curve" smooth="yes"/>
      <point x="469" y="1253"/>
      <point x="453" y="1268"/>
      <point x="431" y="1269" type="curve" smooth="yes"/>
      <point x="399" y="1272"/>
      <point x="363" y="1273"/>
      <point x="322" y="1273" type="curve" smooth="yes"/>
      <point x="289" y="1273"/>
      <point x="168" y="1269"/>
      <point x="50" y="1269" type="curve"/>
      <point x="95" y="1187" type="line"/>
      <point x="112" y="1213"/>
      <point x="140" y="1256"/>
      <point x="153" y="1272" type="curve" smooth="yes"/>
      <point x="167" y="1289"/>
      <point x="221" y="1342"/>
      <point x="261" y="1385" type="curve" smooth="yes"/>
      <point x="291" y="1417"/>
      <point x="355" y="1482"/>
      <point x="381" y="1510" type="curve" smooth="yes"/>
      <point x="400" y="1531"/>
      <point x="404" y="1542"/>
      <point x="404" y="1554" type="curve" smooth="yes"/>
      <point x="404" y="1576"/>
      <point x="385" y="1592"/>
    </contour>
  </outline>
</glyph>
<glyph name="yi-tifi.super" format="2">
  <advance width="534"/>
  <unicode hex="E303"/>
  <outline>
    <contour>
      <point x="448" y="1593" type="curve" smooth="yes"/>
      <point x="441" y="1593"/>
      <point x="433" y="1591"/>
      <point x="422" y="1587" type="curve" smooth="yes"/>
      <point x="350" y="1557"/>
      <point x="112" y="1463"/>
      <point x="74" y="1448" type="curve" smooth="yes"/>
      <point x="47" y="1437"/>
      <point x="26" y="1413"/>
      <point x="26" y="1391" type="curve" smooth="yes"/>
      <point x="26" y="1377"/>
      <point x="35" y="1365"/>
      <point x="50" y="1357" type="curve" smooth="yes"/>
      <point x="95" y="1333"/>
      <point x="317" y="1220"/>
      <point x="378" y="1190" type="curve"/>
      <point x="400" y="1298" type="line"/>
      <point x="263" y="1232"/>
      <point x="103" y="1151"/>
      <point x="41" y="1123" type="curve" smooth="yes"/>
      <point x="17" y="1112"/>
      <point x="0" y="1092"/>
      <point x="0" y="1072" type="curve" smooth="yes"/>
      <point x="0" y="1056"/>
      <point x="10" y="1043"/>
      <point x="26" y="1036" type="curve" smooth="yes"/>
      <point x="70" y="1014"/>
      <point x="300" y="896"/>
      <point x="365" y="868" type="curve" smooth="yes"/>
      <point x="409" y="849"/>
      <point x="438" y="842"/>
      <point x="465" y="842" type="curve" smooth="yes"/>
      <point x="499" y="842"/>
      <point x="534" y="872"/>
      <point x="534" y="903" type="curve" smooth="yes"/>
      <point x="534" y="928"/>
      <point x="523" y="938"/>
      <point x="496" y="942" type="curve" smooth="yes"/>
      <point x="490" y="943"/>
      <point x="484" y="944"/>
      <point x="478" y="946" type="curve" smooth="yes"/>
      <point x="382" y="978"/>
      <point x="221" y="1063"/>
      <point x="103" y="1125" type="curve"/>
      <point x="86" y="1043" type="line"/>
      <point x="189" y="1096"/>
      <point x="301" y="1149"/>
      <point x="416" y="1204" type="curve" smooth="yes"/>
      <point x="437" y="1214"/>
      <point x="452" y="1230"/>
      <point x="452" y="1249" type="curve" smooth="yes"/>
      <point x="452" y="1269"/>
      <point x="445" y="1282"/>
      <point x="428" y="1291" type="curve" smooth="yes"/>
      <point x="325" y="1345"/>
      <point x="220" y="1398"/>
      <point x="117" y="1450" type="curve"/>
      <point x="98" y="1362" type="line"/>
      <point x="247" y="1420"/>
      <point x="409" y="1484"/>
      <point x="441" y="1498" type="curve" smooth="yes"/>
      <point x="471" y="1512"/>
      <point x="489" y="1532"/>
      <point x="489" y="1554" type="curve" smooth="yes"/>
      <point x="489" y="1578"/>
      <point x="472" y="1593"/>
    </contour>
  </outline>
</glyph>
<glyph name="LtnSmLigFl" format="2">
  <advance width="1204"/>
  <unicode hex="FB02"/>
  <anchor x="923" y="-95" name="L"/>
  <anchor x="1185" y="954" name="R"/>
  <anchor x="923" y="1560" name="U"/>
  <outline>
    <contour>
      <point x="45" y="811" type="line"/>
      <point x="236" y="811" type="line"/>
      <point x="236" y="0" type="line"/>
      <point x="441" y="0" type="line"/>
      <point x="420" y="100"/>
      <point x="412" y="287"/>
      <point x="412" y="472" type="curve" smooth="yes"/>
      <point x="412" y="811" type="line"/>
      <point x="622" y="811" type="line"/>
      <point x="622" y="949" type="line"/>
      <point x="412" y="949" type="line"/>
      <point x="412" y="1116" type="line" smooth="yes"/>
      <point x="412" y="1325"/>
      <point x="513" y="1393"/>
      <point x="612" y="1393" type="curve" smooth="yes"/>
      <point x="692" y="1393"/>
      <point x="761" y="1374"/>
      <point x="827" y="1326" type="curve"/>
      <point x="827" y="0" type="line"/>
      <point x="1023" y="0" type="line"/>
      <point x="1010" y="104"/>
      <point x="1004" y="330"/>
      <point x="1004" y="453" type="curve" smooth="yes"/>
      <point x="1004" y="1493" type="line"/>
      <point x="827" y="1493" type="line"/>
      <point x="765" y="1524"/>
      <point x="693" y="1545"/>
      <point x="612" y="1545" type="curve" smooth="yes"/>
      <point x="397" y="1545"/>
      <point x="236" y="1402"/>
      <point x="236" y="1088" type="curve" smooth="yes"/>
      <point x="236" y="949" type="line"/>
      <point x="45" y="949" type="line"/>
    </contour>
  </outline>
</glyph>
<glyph name="Comma.latin" format="2">
  <advance width="650"/>
  <outline>
    <contour>
      <point x="185" y="131" type="curve"/>
      <point x="185" y="35" type="line"/>
      <point x="319" y="35" type="line"/>
      <point x="319" y="-61"/>
      <point x="245" y="-177"/>
      <point x="190" y="-232" type="curve"/>
      <point x="285" y="-270" type="line"/>
      <point x="397" y="-165"/>
      <point x="452" y="-48"/>
      <point x="452" y="69" type="curve" smooth="yes"/>
      <point x="452" y="165"/>
      <point x="390" y="226"/>
      <point x="314" y="226" type="curve" smooth="yes"/>
      <point x="259" y="226"/>
      <point x="197" y="191"/>
    </contour>
  </outline>
</glyph>
<glyph name="FullStop.latin" format="2">
  <advance width="640"/>
  <outline>
    <contour>
      <point x="185" y="174"/>
      <point x="185" y="104" type="curve" smooth="yes"/>
      <point x="185" y="33"/>
      <point x="243" y="-25"/>
      <point x="314" y="-25" type="curve" smooth="yes"/>
      <point x="384" y="-25"/>
      <point x="443" y="33"/>
      <point x="443" y="104" type="curve" smooth="yes"/>
      <point x="443" y="174"/>
      <point x="384" y="233"/>
      <point x="314" y="233" type="curve" smooth="yes"/>
      <point x="243" y="233"/>
    </contour>
  </outline>
</glyph>
<glyph name="TifConsLengthMark" format="2">
  <anchor x="0" y="1393" name="_T"/>
  <outline>
    <contour>
      <point x="127" y="1758" type="curve" smooth="yes"/>
      <point x="100" y="1741"/>
      <point x="76" y="1735"/>
      <point x="54" y="1735" type="curve" smooth="yes"/>
      <point x="-1" y="1735"/>
      <point x="-45" y="1775"/>
      <point x="-108" y="1775" type="curve" smooth="yes"/>
      <point x="-138" y="1775"/>
      <point x="-171" y="1766"/>
      <point x="-212" y="1740" type="curve" smooth="yes"/>
      <point x="-218" y="1736"/>
      <point x="-220" y="1730"/>
      <point x="-220" y="1722" type="curve" smooth="yes"/>
      <point x="-220" y="1699"/>
      <point x="-200" y="1665"/>
      <point x="-181" y="1665" type="curve" smooth="yes"/>
      <point x="-178" y="1665"/>
      <point x="-176" y="1666"/>
      <point x="-173" y="1668" type="curve" smooth="yes"/>
      <point x="-146" y="1685"/>
      <point x="-123" y="1692"/>
      <point x="-102" y="1692" type="curve" smooth="yes"/>
      <point x="-46" y="1692"/>
      <point x="0" y="1650"/>
      <point x="63" y="1650" type="curve" smooth="yes"/>
      <point x="92" y="1650"/>
      <point x="126" y="1659"/>
      <point x="166" y="1686" type="curve" smooth="yes"/>
      <point x="172" y="1690"/>
      <point x="174" y="1697"/>
      <point x="174" y="1706" type="curve" smooth="yes"/>
      <point x="174" y="1729"/>
      <point x="157" y="1761"/>
      <point x="137" y="1761" type="curve" smooth="yes"/>
      <point x="134" y="1761"/>
      <point x="130" y="1760"/>
    </contour>
  </outline>
</glyph>
<glyph name="TifLig-bt.alt" format="2">
  <advance width="1438"/>
  <outline>
    <contour>
      <point x="642" y="674"/>
      <point x="642" y="591" type="curve" smooth="yes"/>
      <point x="642" y="429"/>
      <point x="633" y="450"/>
      <point x="633" y="411" type="curve" smooth="yes"/>
      <point x="633" y="386"/>
      <point x="656" y="372"/>
      <point x="686" y="372" type="curve" smooth="yes"/>
      <point x="777" y="373"/>
      <point x="787" y="447"/>
      <point x="787" y="548" type="curve" smooth="yes"/>
      <point x="787" y="665"/>
      <point x="779" y="734"/>
      <point x="779" y="817" type="curve" smooth="yes"/>
      <point x="779" y="979"/>
      <point x="788" y="945"/>
      <point x="788" y="984" type="curve" smooth="yes"/>
      <point x="788" y="1009"/>
      <point x="765" y="1023"/>
      <point x="735" y="1023" type="curve" smooth="yes"/>
      <point x="644" y="1022"/>
      <point x="634" y="948"/>
      <point x="634" y="847" type="curve" smooth="yes"/>
      <point x="634" y="730"/>
    </contour>
    <component base="_HorizontalBar" xOffset="-24"/>
    <component base="_VerticalOval" xOffset="-24"/>
  </outline>
</glyph>
<glyph name="TifLig-bt" format="2">
  <advance width="2093"/>
  <outline>
    <contour>
      <point x="299" y="611" type="curve" smooth="yes"/>
      <point x="618" y="611"/>
      <point x="933" y="620"/>
      <point x="1247" y="626" type="curve"/>
      <point x="1246" y="766" type="line"/>
      <point x="968" y="760"/>
      <point x="692" y="753"/>
      <point x="417" y="753" type="curve" smooth="yes"/>
      <point x="226" y="753"/>
      <point x="266" y="769"/>
      <point x="220" y="769" type="curve" smooth="yes"/>
      <point x="191" y="769"/>
      <point x="174" y="742"/>
      <point x="174" y="706" type="curve" smooth="yes"/>
      <point x="175" y="626"/>
      <point x="225" y="611"/>
    </contour>
    <component base="_VerticalOval" xOffset="-24"/>
    <component base="_Plus" xOffset="1252" yOffset="322"/>
  </outline>
</glyph>
<glyph name="TifLig-bt.rtl" format="2">
  <advance width="2093"/>
  <outline>
    <contour>
      <point x="1805" y="779" type="curve" smooth="yes"/>
      <point x="1486" y="779"/>
      <point x="1171" y="770"/>
      <point x="857" y="764" type="curve"/>
      <point x="858" y="624" type="line"/>
      <point x="1136" y="630"/>
      <point x="1412" y="637"/>
      <point x="1687" y="637" type="curve" smooth="yes"/>
      <point x="1878" y="637"/>
      <point x="1838" y="621"/>
      <point x="1884" y="621" type="curve" smooth="yes"/>
      <point x="1913" y="621"/>
      <point x="1930" y="648"/>
      <point x="1930" y="684" type="curve" smooth="yes"/>
      <point x="1929" y="764"/>
      <point x="1879" y="779"/>
    </contour>
    <component base="_VerticalOval" xScale="-1" yScale="-1" xOffset="2128" yOffset="1390"/>
    <component base="_Plus" xScale="-1" yScale="-1" xOffset="852" yOffset="1068"/>
  </outline>
</glyph>
<glyph name="TifLig-mt" format="2">
  <advance width="1637"/>
  <outline>
    <contour>
      <point x="988" y="43"/>
      <point x="988" y="-40" type="curve" smooth="yes"/>
      <point x="988" y="-202"/>
      <point x="979" y="-181"/>
      <point x="979" y="-220" type="curve" smooth="yes"/>
      <point x="979" y="-245"/>
      <point x="1002" y="-259"/>
      <point x="1032" y="-259" type="curve" smooth="yes"/>
      <point x="1123" y="-258"/>
      <point x="1133" y="-184"/>
      <point x="1133" y="-83" type="curve" smooth="yes"/>
      <point x="1133" y="34"/>
      <point x="1125" y="103"/>
      <point x="1125" y="186" type="curve" smooth="yes"/>
      <point x="1125" y="348"/>
      <point x="1134" y="314"/>
      <point x="1134" y="353" type="curve" smooth="yes"/>
      <point x="1134" y="378"/>
      <point x="1111" y="392"/>
      <point x="1081" y="392" type="curve" smooth="yes"/>
      <point x="990" y="391"/>
      <point x="980" y="317"/>
      <point x="980" y="216" type="curve" smooth="yes"/>
      <point x="980" y="99"/>
    </contour>
    <contour>
      <point x="1011" y="1393"/>
      <point x="934" y="1393" type="curve" smooth="yes"/>
      <point x="885" y="1393"/>
      <point x="598" y="1389"/>
      <point x="542" y="1389" type="curve" smooth="yes"/>
      <point x="478" y="1389"/>
      <point x="382" y="1393"/>
      <point x="349" y="1393" type="curve" smooth="yes"/>
      <point x="257" y="1393"/>
      <point x="204" y="1355"/>
      <point x="204" y="1269" type="curve" smooth="yes"/>
      <point x="204" y="1197"/>
      <point x="200" y="1107"/>
      <point x="200" y="1013" type="curve" smooth="yes"/>
      <point x="200" y="733"/>
      <point x="215" y="660"/>
      <point x="215" y="380" type="curve" smooth="yes"/>
      <point x="215" y="217"/>
      <point x="214" y="165"/>
      <point x="214" y="124" type="curve" smooth="yes"/>
      <point x="214" y="38"/>
      <point x="267" y="0"/>
      <point x="359" y="0" type="curve" smooth="yes"/>
      <point x="392" y="0"/>
      <point x="488" y="4"/>
      <point x="552" y="4" type="curve" smooth="yes"/>
      <point x="608" y="4"/>
      <point x="1265" y="0"/>
      <point x="1314" y="0" type="curve" smooth="yes"/>
      <point x="1391" y="0"/>
      <point x="1437" y="17"/>
      <point x="1437" y="81" type="curve" smooth="yes"/>
      <point x="1437" y="117"/>
      <point x="1423" y="145"/>
      <point x="1392" y="145" type="curve" smooth="yes"/>
      <point x="1359" y="145"/>
      <point x="1357" y="137"/>
      <point x="1310" y="137" type="curve" smooth="yes"/>
      <point x="1271" y="137"/>
      <point x="682" y="143"/>
      <point x="588" y="143" type="curve" smooth="yes"/>
      <point x="525" y="143"/>
      <point x="436" y="138"/>
      <point x="381" y="138" type="curve"/>
      <point x="385" y="207"/>
      <point x="385" y="291"/>
      <point x="385" y="380" type="curve" smooth="yes"/>
      <point x="385" y="607"/>
      <point x="368" y="820"/>
      <point x="368" y="1072" type="curve" smooth="yes"/>
      <point x="368" y="1130"/>
      <point x="369" y="1192"/>
      <point x="371" y="1255" type="curve"/>
      <point x="426" y="1255"/>
      <point x="515" y="1250"/>
      <point x="578" y="1250" type="curve" smooth="yes"/>
      <point x="672" y="1250"/>
      <point x="891" y="1256"/>
      <point x="930" y="1256" type="curve" smooth="yes"/>
      <point x="977" y="1256"/>
      <point x="979" y="1248"/>
      <point x="1012" y="1248" type="curve" smooth="yes"/>
      <point x="1043" y="1248"/>
      <point x="1057" y="1276"/>
      <point x="1057" y="1312" type="curve" smooth="yes"/>
      <point x="1057" y="1376"/>
    </contour>
  </outline>
</glyph>
